<?xml version="1.0" standalone="no"?>
<!DOCTYPE svg PUBLIC "-//W3C//DTD SVG 20010904//EN"
 "http://www.w3.org/TR/2001/REC-SVG-20010904/DTD/svg10.dtd">
<svg version="1.0" xmlns="http://www.w3.org/2000/svg"
 width="700.000000pt" height="700.000000pt" viewBox="0 0 700.000000 700.000000"
 preserveAspectRatio="xMidYMid meet">
<metadata>
Created by potrace 1.11, written by Peter Selinger 2001-2013
</metadata>
<g transform="translate(0.000000,700.000000) scale(0.100000,-0.100000)"
fill="#000000" stroke="none">
<path d="M3278 6995 c-2 -1 -42 -5 -89 -9 -47 -4 -95 -8 -105 -10 -10 -2 -46
-7 -79 -11 -32 -4 -68 -9 -80 -11 -11 -2 -45 -8 -75 -14 -89 -16 -93 -17 -207
-46 -310 -77 -646 -216 -925 -383 -514 -305 -932 -727 -1237 -1246 -49 -82
-191 -364 -191 -378 0 -4 -11 -30 -24 -59 -41 -89 -134 -372 -151 -456 -2 -9
-10 -44 -18 -77 -8 -33 -19 -80 -23 -105 -4 -25 -8 -47 -9 -50 -3 -13 -16 -89
-21 -125 -3 -22 -7 -51 -9 -65 -4 -25 -12 -113 -20 -205 -5 -58 -6 -428 -1
-465 2 -14 7 -65 11 -115 4 -49 8 -92 10 -96 2 -3 6 -30 9 -60 3 -29 15 -101
26 -159 94 -474 260 -879 522 -1272 66 -100 197 -277 232 -314 6 -6 39 -43 73
-81 167 -188 407 -403 578 -518 33 -22 62 -42 65 -45 3 -3 41 -28 85 -57 450
-288 1012 -482 1530 -528 33 -3 83 -8 110 -10 70 -7 376 -7 455 0 36 3 93 8
128 10 78 6 150 17 337 50 72 13 249 59 355 92 888 276 1640 910 2067 1743 38
74 77 155 87 180 10 25 34 83 53 130 95 236 182 565 208 796 4 32 9 68 11 79
25 120 25 696 0 820 -2 11 -7 43 -10 70 -6 45 -17 112 -31 185 -33 176 -92
382 -163 570 -36 95 -58 147 -132 305 -42 88 -169 305 -243 413 -40 57 -79
114 -87 125 -84 125 -356 417 -521 560 -144 124 -440 337 -469 337 -5 0 -10 5
-10 10 0 6 -5 10 -10 10 -6 0 -29 12 -53 27 -73 46 -307 159 -437 211 -238 96
-520 174 -745 208 -27 4 -52 8 -55 9 -3 1 -41 5 -85 10 -44 4 -89 10 -100 12
-25 4 -532 12 -537 8z"/>
</g>
</svg>
