<?xml version="1.0" standalone="no"?>
<!DOCTYPE svg PUBLIC "-//W3C//DTD SVG 1.1//EN" "http://www.w3.org/Graphics/SVG/1.1/DTD/svg11.dtd" >
<svg xmlns="http://www.w3.org/2000/svg" xmlns:xlink="http://www.w3.org/1999/xlink" version="1.1">
<metadata>
Created by FontForge 20170731 at Tue May 24 20:51:56 2016
 By Aleksey,,,
Copyright (c) 2015, Cadson Demak (info@cadsondemak.com)
</metadata>
<defs>
<font id="Prompt-Medium" horiz-adv-x="0" >
  <font-face 
    font-family="Prompt Medium"
    font-weight="500"
    font-stretch="normal"
    units-per-em="1000"
    panose-1="0 0 6 0 0 0 0 0 0 0"
    ascent="750"
    descent="-250"
    x-height="480"
    cap-height="699"
    bbox="-628 -385 1274 1064"
    underline-thickness="50"
    underline-position="-150"
    unicode-range="U+000D-FB02"
  />
<missing-glyph horiz-adv-x="504" 
d="M40 714h424v-714h-424v714zM392 66v582h-280v-582h280z" />
    <glyph glyph-name="fi" unicode="fi" horiz-adv-x="620" 
d="M91 384h-71v96h71v79q0 59 26.5 100.5t71.5 63t101 21.5q48 0 84 -14v-102q-27 12 -59 12q-48 0 -73 -23t-25 -67v-70h336v-480h-126v384h-210v-384h-126v384zM438.5 584q-20.5 20 -20.5 50q0 29 20.5 49.5t50.5 20.5q29 0 50 -20.5t21 -49.5q0 -30 -20.5 -50t-50.5 -20
t-50.5 20z" />
    <glyph glyph-name="fl" unicode="fl" horiz-adv-x="615" 
d="M91 384h-71v96h71v83q0 87 56.5 134t142.5 47q48 0 84 -14v-102q-27 12 -59 12q-46 0 -72 -22t-26 -64v-74h212v227h126v-707h-126v384h-212v-384h-126v384z" />
    <glyph glyph-name="ru_lakkhangyaothai" unicode="&#xe24;&#xe45;" horiz-adv-x="890" 
d="M463 329q0 62 -33 92t-98 30q-49 0 -86.5 -14t-69.5 -46l41 -66v-172q0 -26 11.5 -36.5t38.5 -10.5h54v-106h-122q-53 0 -81 30t-28 82v214l-50 83q55 69 126.5 105t165.5 36q88 0 149 -29q24 12 63.5 20.5t77.5 8.5q103 0 155.5 -56t52.5 -160v-530h-127v538
q0 59 -23.5 84t-84.5 25q-16 0 -33 -3q28 -47 28 -109v-535h-127v525z" />
    <glyph glyph-name="lu_lakkhangyaothai" unicode="&#xe26;&#xe45;" horiz-adv-x="904" 
d="M477 329q0 62 -33 92t-98 30q-48 0 -84.5 -14t-68.5 -42l58 -69v-213q0 -53 -28.5 -83t-80.5 -30h-102v106h39q26 0 35.5 10t9.5 37v173l-70 83q107 141 293 141q87 0 148 -29q24 12 63.5 20.5t77.5 8.5q103 0 155.5 -56t52.5 -160v-530h-127v538q0 59 -23.5 84t-84.5 25
q-16 0 -33 -3q28 -47 28 -109v-535h-127v525z" />
    <glyph glyph-name=".notdef" horiz-adv-x="504" 
d="M40 714h424v-714h-424v714zM392 66v582h-280v-582h280z" />
    <glyph glyph-name=".null" horiz-adv-x="500" 
 />
    <glyph glyph-name="nonmarkingreturn" unicode="&#xd;" horiz-adv-x="260" 
 />
    <glyph glyph-name="space" unicode=" " horiz-adv-x="360" 
 />
    <glyph glyph-name="exclam" unicode="!" horiz-adv-x="222" 
d="M51 699h121v-490h-121v490zM60.5 5.5q-20.5 20.5 -20.5 49.5q0 30 20.5 50t50.5 20t50.5 -20t20.5 -50q0 -29 -21 -49.5t-50 -20.5q-30 0 -50.5 20.5z" />
    <glyph glyph-name="quotedbl" unicode="&#x22;" horiz-adv-x="349" 
d="M40 699h95v-193h-95v193zM214 699h95v-193h-95v193z" />
    <glyph glyph-name="numbersign" unicode="#" horiz-adv-x="771" 
d="M134 161h-94v93h120l49 172h-127v93h153l51 180h110l-51 -180h191l51 180h111l-51 -180h84v-93h-110l-49 -172h117v-93h-143l-45 -161h-111l45 161h-191l-45 -161h-110zM461 254l49 172h-191l-49 -172h191z" />
    <glyph glyph-name="dollar" unicode="$" horiz-adv-x="567" 
d="M232 -14q-56 2 -107.5 13t-84.5 28v109q89 -43 192 -48v222q-98 40 -142 89t-44 122t50 123.5t136 64.5v93h108v-90q81 -6 151 -37v-106q-76 37 -151 41v-217q67 -29 107 -57t60 -65t20 -90q0 -78 -47 -127t-140 -63v-94h-108v89zM232 596q-51 -22 -51 -75
q0 -28 12 -46.5t39 -33.5v155zM390 182q0 27 -12 45.5t-38 33.5v-157q50 24 50 78z" />
    <glyph glyph-name="percent" unicode="%" horiz-adv-x="891" 
d="M137 371.5q-42 24.5 -66.5 66.5t-24.5 92t24.5 92.5t66.5 67t92 24.5t92.5 -24.5t67 -67t24.5 -92.5t-24.5 -92t-67 -66.5t-92.5 -24.5t-92 24.5zM581 699h123l-387 -699h-123zM295.5 462.5q26.5 26.5 26.5 65.5q0 40 -26.5 66.5t-66.5 26.5q-39 0 -65.5 -26.5
t-26.5 -66.5q0 -39 26.5 -65.5t65.5 -26.5q40 0 66.5 26.5zM575 9.5q-42 24.5 -66.5 66.5t-24.5 92t24.5 92.5t66.5 67t92 24.5t92.5 -24.5t67 -67t24.5 -92.5t-24.5 -92t-67 -66.5t-92.5 -24.5t-92 24.5zM732.5 100.5q26.5 26.5 26.5 65.5q0 40 -26.5 66.5t-66.5 26.5
q-39 0 -65.5 -26.5t-26.5 -66.5q0 -39 26.5 -65.5t65.5 -26.5q40 0 66.5 26.5z" />
    <glyph glyph-name="ampersand" unicode="&#x26;" horiz-adv-x="782" 
d="M110 35q-70 50 -70 140q0 67 36.5 113.5t117.5 94.5q-47 44 -70.5 82t-23.5 84q0 48 24.5 85.5t68.5 58.5t103 21q57 0 100.5 -21.5t67.5 -59t24 -84.5q0 -57 -28.5 -98.5t-95.5 -84.5l171 -161q27 46 27 157h103q0 -78 -11.5 -130t-40.5 -101l139 -131h-148l-65 60
q-46 -39 -107.5 -57t-139.5 -18q-112 0 -182 50zM362 481q23 27 23 60q0 38 -24 62t-65 24q-40 0 -64 -24t-24 -62q0 -28 18.5 -52.5t61.5 -64.5q51 30 74 57zM392 85q45 16 75 44l-192 186q-60 -28 -88.5 -62t-28.5 -78q0 -52 39.5 -79t95.5 -27q54 0 99 16z" />
    <glyph glyph-name="quotesingle" unicode="'" horiz-adv-x="175" 
d="M40 699h95v-193h-95v193z" />
    <glyph glyph-name="parenleft" unicode="(" horiz-adv-x="340" 
d="M40 270q0 260 150 444h130q-152 -195 -152 -444t152 -444h-130q-150 184 -150 444z" />
    <glyph glyph-name="parenright" unicode=")" horiz-adv-x="340" 
d="M172 270q0 249 -152 444h130q150 -184 150 -444t-150 -444h-130q152 195 152 444z" />
    <glyph glyph-name="asterisk" unicode="*" horiz-adv-x="441" 
d="M81 417l78 108l-119 42l30 68l107 -39v103h87v-103l107 40l30 -69l-119 -41l79 -108l-68 -44l-72 101l-72 -102z" />
    <glyph glyph-name="plus" unicode="+" horiz-adv-x="412" 
d="M155 249h-115v101h115v115h101v-115h116v-101h-116v-116h-101v116z" />
    <glyph glyph-name="comma" unicode="," horiz-adv-x="293" 
d="M122 56h131l-98 -204h-115z" />
    <glyph glyph-name="hyphen" unicode="-" horiz-adv-x="412" 
d="M40 350h332v-101h-332v101z" />
    <glyph glyph-name="period" unicode="." horiz-adv-x="182" 
d="M55 14.5q-15 14.5 -15 35.5q0 22 15 37t36 15t36 -15t15 -37q0 -21 -15 -35.5t-36 -14.5t-36 14.5z" />
    <glyph glyph-name="slash" unicode="/" horiz-adv-x="488" 
d="M325 714h123l-285 -714h-123z" />
    <glyph glyph-name="zero" unicode="0" horiz-adv-x="682" 
d="M181 29q-68 44 -104.5 126t-36.5 194t36 194.5t103.5 126.5t161.5 44q93 0 161 -44t104 -126.5t36 -194.5t-36 -194t-104 -126t-161 -44q-92 0 -160 44zM469.5 165.5q45.5 66.5 45.5 182.5t-45 183t-128 67t-128.5 -67t-45.5 -183t45.5 -182.5t127.5 -66.5
q83 0 128.5 66.5z" />
    <glyph glyph-name="one" unicode="1" horiz-adv-x="374" 
d="M188 565l-148 -107v118l168 123h106v-699h-126v565z" />
    <glyph glyph-name="two" unicode="2" horiz-adv-x="585" 
d="M40 82l138 127l66 59q55 48 83.5 77t46.5 62.5t18 72.5q0 57 -33.5 87.5t-95.5 30.5q-48 0 -99.5 -17.5t-93.5 -49.5v121q87 62 214 62q112 0 174 -60t62 -164q0 -49 -19 -91.5t-54 -82.5t-95 -95l-125 -116h318v-105h-505v82z" />
    <glyph glyph-name="three" unicode="3" horiz-adv-x="580" 
d="M139.5 -5q-57.5 10 -99.5 30v97q95 -43 202 -43q85 0 127.5 30.5t42.5 87.5q0 59 -41.5 83.5t-128.5 24.5h-87v98h84q70 0 111 26.5t41 80.5t-36.5 82t-102.5 28q-57 0 -102.5 -13.5t-92.5 -42.5v98q90 52 212 52q124 0 187 -52.5t63 -146.5q0 -52 -27.5 -94t-81.5 -66
q64 -19 97 -60.5t33 -103.5q0 -97 -67 -151.5t-214 -54.5q-62 0 -119.5 10z" />
    <glyph glyph-name="four" unicode="4" horiz-adv-x="609" 
d="M354 166h-334v75l337 458h124v-438h108v-95h-108v-166h-127v166zM372 261v291l-213 -291h213z" />
    <glyph glyph-name="five" unicode="5" horiz-adv-x="577" 
d="M131 -3q-54 12 -91 33v107q42 -26 95 -40.5t101 -14.5q173 0 173 137q0 66 -42.5 101t-119.5 35q-35 0 -74 -7t-69 -19l-53 30l27 340h410v-105h-295l-13 -160q55 12 122 12q111 0 173 -61t62 -166q0 -114 -74 -174t-222 -60q-56 0 -110 12z" />
    <glyph glyph-name="six" unicode="6" horiz-adv-x="619" 
d="M173 21q-62 36 -97.5 105t-35.5 165q0 135 40.5 230t117 144t181.5 49q61 0 108 -14v-102q-39 18 -98 18q-98 0 -155 -58.5t-68 -169.5q33 35 81 51.5t105 16.5q68 0 119.5 -28t79.5 -79.5t28 -122.5q0 -69 -31 -124t-91.5 -86t-143.5 -31q-78 0 -140 36zM415.5 117
q38.5 39 38.5 103q0 65 -38.5 104t-102.5 39q-60 0 -100 -40.5t-40 -102.5q0 -38 17.5 -70.5t49 -52t73.5 -19.5q64 0 102.5 39z" />
    <glyph glyph-name="seven" unicode="7" horiz-adv-x="545" 
d="M385 594h-355v105h485v-88l-276 -611h-123z" />
    <glyph glyph-name="eight" unicode="8" horiz-adv-x="612" 
d="M112 39.5q-72 54.5 -72 154.5q0 65 32.5 109t86.5 61q-45 22 -70 62.5t-25 92.5q0 91 66 143t176 52q111 0 176.5 -52t65.5 -143q0 -52 -25 -92.5t-70 -62.5q54 -17 86.5 -61t32.5 -109q0 -100 -71.5 -154.5t-194.5 -54.5q-122 0 -194 54.5zM396 429.5q34 29.5 34 79.5
t-34.5 81t-89.5 31t-89 -31t-34 -81t34 -79.5t89 -29.5q56 0 90 29.5zM409 109.5q38 33.5 38 92.5q0 57 -39 90t-102 33t-102 -33t-39 -90q0 -59 38.5 -92.5t102.5 -33.5q65 0 103 33.5z" />
    <glyph glyph-name="nine" unicode="9" horiz-adv-x="619" 
d="M132 -1v102q39 -18 98 -18q98 0 155 58.5t68 169.5q-64 -68 -181 -68q-68 0 -120.5 28t-82 80t-29.5 122q0 69 31 124t91.5 86t143.5 31q78 0 140 -36t97.5 -105t35.5 -165q0 -135 -40.5 -230t-117 -144t-181.5 -49q-61 0 -108 14zM406 376.5q40 40.5 40 102.5
q0 38 -17.5 70.5t-49 52t-73.5 19.5q-64 0 -102.5 -39t-38.5 -103q0 -65 38.5 -104t102.5 -39q60 0 100 40.5z" />
    <glyph glyph-name="colon" unicode=":" horiz-adv-x="212" 
d="M59.5 375.5q-19.5 19.5 -19.5 46.5t19.5 46.5t46.5 19.5t46.5 -19.5t19.5 -46.5t-19.5 -46.5t-46.5 -19.5t-46.5 19.5zM59.5 35.5q-19.5 19.5 -19.5 46.5t19.5 46.5t46.5 19.5t46.5 -19.5t19.5 -46.5t-19.5 -46.5t-46.5 -19.5t-46.5 19.5z" />
    <glyph glyph-name="semicolon" unicode=";" horiz-adv-x="293" 
d="M134.5 375.5q-19.5 19.5 -19.5 46.5t19.5 46.5t46.5 19.5t46.5 -19.5t19.5 -46.5t-19.5 -46.5t-46.5 -19.5t-46.5 19.5zM122 56h131l-98 -204h-115z" />
    <glyph glyph-name="less" unicode="&#x3c;" horiz-adv-x="543" 
d="M40 280v89l463 227v-125l-309 -147l309 -147v-125z" />
    <glyph glyph-name="equal" unicode="=" horiz-adv-x="534" 
d="M40 502h454v-99h-454v99zM40 282h454v-99h-454v99z" />
    <glyph glyph-name="greater" unicode="&#x3e;" horiz-adv-x="543" 
d="M40 177l309 147l-309 147v125l463 -227v-89l-463 -228v125z" />
    <glyph glyph-name="question" unicode="?" horiz-adv-x="520" 
d="M159 232q0 59 22 99t72 76l26 18q42 29 59.5 48t17.5 51q0 41 -31.5 64t-95.5 23q-48 0 -98 -11t-91 -30v105q39 17 89 28t100 11q116 0 183.5 -50t67.5 -140q0 -37 -13.5 -63.5t-34 -45.5t-62.5 -51q-43 -33 -58.5 -47.5t-23.5 -33.5t-8 -52v-22h-121v23zM167.5 5.5
q-20.5 20.5 -20.5 49.5q0 30 20.5 50t50.5 20t50.5 -20t20.5 -50q0 -29 -21 -49.5t-50 -20.5q-30 0 -50.5 20.5z" />
    <glyph glyph-name="at" unicode="@" horiz-adv-x="911" 
d="M235 -34.5q-93 41.5 -144 122.5t-51 196q0 126 55 223.5t155 152t232 54.5q120 0 207.5 -40.5t134.5 -117.5t47 -186q0 -115 -48.5 -188t-136.5 -73q-37 0 -68 18t-42 49q-23 -33 -61.5 -50t-84.5 -17q-79 0 -127.5 45t-48.5 132q0 68 28 122t79.5 85t120.5 31
q42 0 85.5 -9.5t75.5 -25.5l-13 -224q-2 -34 13 -53t40 -19q43 0 61.5 45.5t18.5 131.5q0 127 -69 188t-212 61q-101 0 -176.5 -39.5t-116.5 -115t-41 -180.5q0 -133 77.5 -200t225.5 -67q101 0 185 28v-90q-81 -31 -185 -31q-123 0 -216 41.5zM509 220q24 24 26 60l9 147
q-25 11 -64 11q-52 0 -85 -40t-33 -103q0 -99 79 -99q44 0 68 24z" />
    <glyph glyph-name="A" unicode="A" horiz-adv-x="762" 
d="M320 699h123l279 -699h-129l-64 161h-296l-63 -161h-130zM494 266l-113 297l-113 -297h226z" />
    <glyph glyph-name="B" unicode="B" horiz-adv-x="658" 
d="M60 699h332q96 0 149.5 -48t53.5 -140q0 -49 -23.5 -88.5t-62.5 -60.5q109 -36 109 -161q0 -62 -28 -107.5t-75.5 -69.5t-105.5 -24h-349v699zM372 408q43 0 69 23.5t26 71.5q0 55 -25.5 75.5t-75.5 20.5h-180v-191h186zM380 100q53 0 81.5 22t28.5 78t-30 81t-87 25
h-187v-206h194z" />
    <glyph glyph-name="C" unicode="C" horiz-adv-x="704" 
d="M219 29.5q-85 44.5 -132 127t-47 192.5t47 192.5t132 127.5t195 45q145 0 242 -69v-121q-87 74 -231 74q-77 0 -135 -30.5t-90 -86.5t-32 -132t32.5 -132t90.5 -86.5t134 -30.5q74 0 132 18.5t107 59.5v-121q-92 -72 -250 -72q-110 0 -195 44.5z" />
    <glyph glyph-name="D" unicode="D" horiz-adv-x="706" 
d="M60 699h234q114 0 198 -42t129 -120t45 -184q0 -174 -101 -263.5t-282 -89.5h-223v699zM285 105q122 0 187.5 65.5t65.5 182.5q0 71 -29 125.5t-83 85t-128 30.5h-111v-489h98z" />
    <glyph glyph-name="E" unicode="E" horiz-adv-x="563" 
d="M60 699h473v-105h-346v-192h257v-105h-257v-192h346v-105h-473v699z" />
    <glyph glyph-name="F" unicode="F" horiz-adv-x="553" 
d="M60 699h473v-106h-346v-196h257v-95h-257v-302h-127v699z" />
    <glyph glyph-name="G" unicode="G" horiz-adv-x="713" 
d="M219 29.5q-85 44.5 -132 127t-47 192.5t47 192.5t132 127.5t195 45q75 0 134 -16t107 -51v-121q-44 38 -101 55t-129 17t-130.5 -30.5t-92.5 -87t-34 -131.5q0 -76 32 -132.5t89 -87t130 -30.5q77 0 127 26v157h-118v101h245v-326q-93 -72 -259 -72q-110 0 -195 44.5z
" />
    <glyph glyph-name="H" unicode="H" horiz-adv-x="709" 
d="M60 699h127v-290h336v290h126v-699h-126v304h-336v-304h-127v699z" />
    <glyph glyph-name="I" unicode="I" horiz-adv-x="247" 
d="M60 699h127v-699h-127v699z" />
    <glyph glyph-name="J" unicode="J" horiz-adv-x="386" 
d="M69.5 -9.5q-32.5 5.5 -49.5 13.5v106q33 -14 81 -14q98 0 98 93v510h127v-517q0 -92 -51 -144.5t-143 -52.5q-30 0 -62.5 5.5z" />
    <glyph glyph-name="K" unicode="K" horiz-adv-x="686" 
d="M60 699h127v-317l287 317h152l-310 -342l330 -357h-152l-307 332v-332h-127v699z" />
    <glyph glyph-name="L" unicode="L" horiz-adv-x="543" 
d="M60 699h127v-594h336v-105h-463v699z" />
    <glyph glyph-name="M" unicode="M" horiz-adv-x="836" 
d="M60 699h124l234 -512l234 512h124v-699h-120v454l-208 -454h-60l-208 454v-454h-120v699z" />
    <glyph glyph-name="N" unicode="N" horiz-adv-x="694" 
d="M60 699h120l327 -487v487h127v-699h-120l-327 488v-488h-127v699z" />
    <glyph glyph-name="O" unicode="O" horiz-adv-x="821" 
d="M221.5 30.5q-84.5 45.5 -133 128.5t-48.5 190t48.5 190t133 129t189.5 46q104 0 188.5 -46t133 -129t48.5 -190t-48.5 -189.5t-133 -128.5t-188.5 -46q-105 0 -189.5 45.5zM533 130.5q55 30.5 87.5 87t32.5 131.5q0 74 -32 130.5t-87 87.5t-123 31t-123.5 -31
t-87.5 -87.5t-32 -130.5q0 -75 32.5 -131.5t88 -87t122.5 -30.5t122 30.5z" />
    <glyph glyph-name="P" unicode="P" horiz-adv-x="614" 
d="M60 699h280q115 0 184.5 -61t69.5 -167q0 -110 -69 -167.5t-186 -57.5h-152v-246h-127v699zM324 351q143 0 143 120q0 123 -143 123h-137v-243h137z" />
    <glyph glyph-name="Q" unicode="Q" horiz-adv-x="814" 
d="M222.5 43q-87.5 43 -135 123t-47.5 186q0 107 48.5 189.5t133 127.5t189.5 45q104 0 188.5 -45t133 -127.5t48.5 -189.5q0 -72 -32 -137.5t-83 -103.5h128v-111h-367q-117 0 -204.5 43zM587.5 177q65.5 62 65.5 175q0 74 -32 130t-87 86t-123 30t-123.5 -30t-87.5 -86
t-32 -130q0 -114 65.5 -175.5t177.5 -61.5q111 0 176.5 62z" />
    <glyph glyph-name="R" unicode="R" horiz-adv-x="634" 
d="M60 699h292q116 0 179 -57t63 -165q0 -77 -38 -131t-108 -77l142 -269h-130l-135 256h-138v-256h-127v699zM329 361q62 0 100 29t38 87q0 117 -138 117h-142v-233h142z" />
    <glyph glyph-name="S" unicode="S" horiz-adv-x="567" 
d="M139.5 -3.5q-60.5 11.5 -99.5 30.5v109q50 -24 105 -36t108 -12q67 0 102 25t35 69q0 31 -16 51.5t-47 36t-95 40.5q-98 40 -142 89t-44 122q0 57 31 101t87 68t129 24q60 0 106.5 -9.5t91.5 -29.5v-106q-87 42 -176 42q-64 0 -99 -23.5t-35 -66.5q0 -31 16 -50.5
t42.5 -33t95.5 -42.5q70 -29 110.5 -57t61 -65.5t20.5 -91.5q0 -93 -67 -144.5t-198 -51.5q-62 0 -122.5 11.5z" />
    <glyph glyph-name="T" unicode="T" horiz-adv-x="589" 
d="M231 594h-211v105h549v-105h-211v-594h-127v594z" />
    <glyph glyph-name="U" unicode="U" horiz-adv-x="707" 
d="M130.5 62.5q-75.5 77.5 -75.5 209.5v427h127v-429q0 -83 46.5 -126.5t125.5 -43.5q78 0 124.5 43.5t46.5 126.5v429h127v-427q0 -132 -75 -209.5t-223 -77.5t-223.5 77.5z" />
    <glyph glyph-name="V" unicode="V" horiz-adv-x="762" 
d="M40 699h135l206 -529l207 529h134l-279 -699h-123z" />
    <glyph glyph-name="W" unicode="W" horiz-adv-x="994" 
d="M40 699h132l139 -494l137 494h98l137 -494l139 494h132l-199 -699h-118l-140 486l-140 -486h-118z" />
    <glyph glyph-name="X" unicode="X" horiz-adv-x="742" 
d="M299 353l-253 346h145l180 -247l181 247h145l-253 -346l258 -353h-145l-186 254l-186 -254h-145z" />
    <glyph glyph-name="Y" unicode="Y" horiz-adv-x="714" 
d="M294 266l-254 433h135l180 -311l185 311h134l-259 -433v-266h-121v266z" />
    <glyph glyph-name="Z" unicode="Z" horiz-adv-x="619" 
d="M40 83l366 511h-357v105h512v-83l-365 -511h383v-105h-539v83z" />
    <glyph glyph-name="bracketleft" unicode="[" horiz-adv-x="319" 
d="M40 787h249v-105h-122v-673h122v-105h-249v883z" />
    <glyph glyph-name="backslash" unicode="\" horiz-adv-x="488" 
d="M40 714h123l285 -714h-123z" />
    <glyph glyph-name="bracketright" unicode="]" horiz-adv-x="319" 
d="M30 9h122v673h-122v105h249v-883h-249v105z" />
    <glyph glyph-name="asciicircum" unicode="^" horiz-adv-x="564" 
d="M232 719h100l192 -332h-121l-121 214l-121 -214h-121z" />
    <glyph glyph-name="underscore" unicode="_" horiz-adv-x="488" 
d="M40 0h408v-111h-408v111z" />
    <glyph glyph-name="grave" unicode="`" horiz-adv-x="282" 
d="M40 743h133l69 -174h-116z" />
    <glyph glyph-name="a" unicode="a" horiz-adv-x="577" 
d="M95 30.5q-55 45.5 -55 122.5q0 80 52 125t146 45q91 0 157 -37v13q0 51 -31.5 74t-101.5 23q-44 0 -87 -8.5t-76 -23.5v99q30 14 80.5 23t97.5 9q125 0 185 -53.5t60 -148.5v-293h-119v47q-31 -30 -70.5 -46t-96.5 -16q-86 0 -141 45.5zM343 93.5q34 16.5 52 45.5v53
q-55 39 -126 39q-101 0 -101 -78q0 -38 25.5 -57t73.5 -19q42 0 76 16.5z" />
    <glyph glyph-name="b" unicode="b" horiz-adv-x="665" 
d="M267 1.5q-44 16.5 -85 54.5v-56h-122v739h126v-306q34 31 82.5 46.5t103.5 15.5q73 0 130.5 -32.5t90 -90.5t32.5 -133q0 -76 -32.5 -133.5t-90 -89t-130.5 -31.5q-61 0 -105 16.5zM453 127q44 43 44 112t-44 113t-112 44q-54 0 -96.5 -29.5t-58.5 -78.5v-97
q17 -49 59 -78t96 -29q68 0 112 43z" />
    <glyph glyph-name="c" unicode="c" horiz-adv-x="548" 
d="M173.5 15q-63.5 30 -98.5 87t-35 137t35.5 137.5t99 88t148.5 30.5q112 0 179 -44v-101q-65 46 -166 46q-77 0 -122.5 -38.5t-45.5 -118.5q0 -79 45.5 -117t120.5 -38q101 0 174 48v-100q-36 -24 -81.5 -35.5t-105.5 -11.5q-84 0 -147.5 30z" />
    <glyph glyph-name="d" unicode="d" horiz-adv-x="665" 
d="M162.5 16.5q-57.5 31.5 -90 89t-32.5 133.5q0 75 32.5 133t90 90.5t130.5 32.5q118 0 186 -62v306h126v-739h-122v56q-41 -38 -85 -54.5t-105 -16.5q-73 0 -130.5 31.5zM420 113q42 29 59 78v97q-16 49 -58.5 78.5t-96.5 29.5q-68 0 -112 -44t-44 -113t44 -112t112 -43
q54 0 96 29z" />
    <glyph glyph-name="e" unicode="e" horiz-adv-x="609" 
d="M118 52q-78 67 -78 187q0 118 69 187t197 69q84 0 143.5 -32t89.5 -87.5t30 -126.5v-58h-409q13 -107 186 -107q46 0 94 8t84 22v-97q-34 -14 -87.5 -23t-106.5 -9q-134 0 -212 67zM450 277q-2 57 -40.5 88t-105.5 31q-66 0 -104 -32t-40 -87h290z" />
    <glyph glyph-name="f" unicode="f" horiz-adv-x="364" 
d="M91 384h-71v96h71v83q0 88 52 134.5t137 46.5q48 0 84 -14v-102q-27 12 -59 12q-45 0 -66.5 -20t-21.5 -66v-74h117v-96h-117v-384h-126v384z" />
    <glyph glyph-name="g" unicode="g" horiz-adv-x="665" 
d="M218 -221q-48 9 -80 24v100q78 -34 176 -34q88 0 126.5 37t38.5 110v31q-34 -31 -81 -46.5t-101 -15.5q-73 0 -132 32.5t-92 90.5t-33 133q0 76 32.5 133.5t90 89t130.5 31.5q61 0 105 -16.5t85 -54.5v56h122v-451q0 -124 -71.5 -191.5t-219.5 -67.5q-48 0 -96 9z
M420.5 113.5q42.5 29.5 58.5 78.5v97q-17 49 -59 78t-96 29q-68 0 -112 -43t-44 -112t44 -113t112 -44q54 0 96.5 29.5z" />
    <glyph glyph-name="h" unicode="h" horiz-adv-x="610" 
d="M60 739h126v-320q68 76 176 76q97 0 145 -52.5t48 -139.5v-303h-126v291q0 105 -98 105q-43 0 -81 -20.5t-64 -61.5v-314h-126v739z" />
    <glyph glyph-name="i" unicode="i" horiz-adv-x="263" 
d="M80.5 584q-20.5 20 -20.5 50t20.5 50.5t50.5 20.5t51 -20.5t21 -50.5t-21 -50t-51 -20t-50.5 20zM67 480h128v-480h-128v480z" />
    <glyph glyph-name="j" unicode="j" horiz-adv-x="257" 
d="M75.5 584q-20.5 20 -20.5 50q0 29 20.5 49.5t50.5 20.5q29 0 50 -20.5t21 -49.5q0 -30 -20.5 -50t-50.5 -20t-50.5 20zM-80 -218v102q27 -12 62 -12q41 0 61 20.5t20 64.5v523h126v-536q0 -87 -50 -131t-135 -44q-48 0 -84 13z" />
    <glyph glyph-name="k" unicode="k" horiz-adv-x="589" 
d="M60 739h126v-470l191 211h148l-214 -235l238 -245h-148l-215 222v-222h-126v739z" />
    <glyph glyph-name="l" unicode="l" horiz-adv-x="246" 
d="M60 739h126v-739h-126v739z" />
    <glyph glyph-name="m" unicode="m" horiz-adv-x="872" 
d="M60 480h118v-63q32 38 75 58t87 20q56 0 90 -18.5t51 -55.5q32 36 77.5 55t90.5 19q90 0 129 -45t39 -132v-318h-121v301q0 51 -20.5 73t-65.5 22q-32 0 -58.5 -12.5t-48.5 -42.5q2 -32 2 -52v-289h-122v303q0 52 -17 72.5t-62 20.5q-68 0 -122 -77v-319h-122v480z" />
    <glyph glyph-name="n" unicode="n" horiz-adv-x="610" 
d="M60 480h122v-65q34 41 81 60.5t99 19.5q97 0 145 -52.5t48 -139.5v-303h-126v291q0 105 -98 105q-43 0 -81 -20.5t-64 -61.5v-314h-126v480z" />
    <glyph glyph-name="o" unicode="o" horiz-adv-x="642" 
d="M173.5 15.5q-63.5 30.5 -98.5 88t-35 136.5q0 77 34.5 134.5t98.5 89t148 31.5t147.5 -31.5t98.5 -89t35 -134.5q0 -79 -35 -136.5t-98.5 -88t-147.5 -30.5t-147.5 30.5zM431 127.5q41 43.5 41 112.5q0 73 -40.5 114.5t-110.5 41.5t-110.5 -41.5t-40.5 -114.5
q0 -69 41 -112.5t110 -43.5t110 43.5z" />
    <glyph glyph-name="p" unicode="p" horiz-adv-x="665" 
d="M60 480h122v-58q39 37 85 55t105 18q73 0 130.5 -31.5t90 -89t32.5 -133.5q0 -75 -32.5 -133t-90 -90.5t-130.5 -32.5q-55 0 -103.5 15.5t-82.5 46.5v-266h-126v699zM453 128q44 44 44 113t-44 112t-112 43q-54 0 -96 -29t-59 -78v-97q16 -49 58.5 -78.5t96.5 -29.5
q68 0 112 44z" />
    <glyph glyph-name="q" unicode="q" horiz-adv-x="665" 
d="M479 47q-34 -31 -82.5 -46.5t-103.5 -15.5q-73 0 -130.5 32.5t-90 90.5t-32.5 133q0 76 32.5 133.5t90 89t130.5 31.5q59 0 105 -18t85 -55v58h122v-699h-126v266zM420.5 113.5q42.5 29.5 58.5 78.5v97q-17 49 -59 78t-96 29q-68 0 -112 -43t-44 -112t44 -113t112 -44
q54 0 96.5 29.5z" />
    <glyph glyph-name="r" unicode="r" horiz-adv-x="407" 
d="M60 480h122v-77q29 39 82.5 58t122.5 19v-96q-73 0 -126.5 -22.5t-74.5 -70.5v-291h-126v480z" />
    <glyph glyph-name="s" unicode="s" horiz-adv-x="499" 
d="M136 -3q-59 12 -92 33v107q39 -24 93 -38.5t102 -14.5t70 8.5t22 31.5q0 18 -11.5 29.5t-37 21t-78.5 23.5q-60 17 -94.5 35t-52 45.5t-17.5 71.5q0 72 57 108.5t154 36.5q50 0 99.5 -9.5t77.5 -26.5v-103q-30 18 -73 29t-88 11q-49 0 -74 -9.5t-25 -36.5
q0 -18 13.5 -28.5t35.5 -18t80 -22.5q62 -17 97 -37t50 -48t15 -70q0 -64 -54.5 -102.5t-157.5 -38.5q-52 0 -111 12z" />
    <glyph glyph-name="t" unicode="t" horiz-adv-x="388" 
d="M133 29q-41 44 -41 124v231h-72v96h72v144h126v-144h115v-96h-115v-215q0 -46 17 -65.5t62 -19.5q31 0 61 14v-96q-43 -17 -105 -17q-79 0 -120 44z" />
    <glyph glyph-name="u" unicode="u" horiz-adv-x="610" 
d="M103 37.5q-48 52.5 -48 139.5v303h126v-291q0 -105 98 -105q43 0 81 20.5t64 61.5v314h126v-480h-122v65q-34 -41 -81 -60.5t-99 -19.5q-97 0 -145 52.5z" />
    <glyph glyph-name="v" unicode="v" horiz-adv-x="594" 
d="M40 480h127l130 -332l130 332h127l-198 -480h-118z" />
    <glyph glyph-name="w" unicode="w" horiz-adv-x="830" 
d="M40 480h126l98 -325l96 325h110l96 -325l98 325h126l-157 -480h-116l-102 326l-102 -326h-116z" />
    <glyph glyph-name="x" unicode="x" horiz-adv-x="630" 
d="M245 249l-191 231h140l121 -147l121 147h140l-191 -231l205 -249h-139l-136 164l-136 -164h-139z" />
    <glyph glyph-name="y" unicode="y" horiz-adv-x="600" 
d="M120.5 -194.5q-28.5 3.5 -44.5 9.5v96q25 -10 62 -10q38 0 57 17t33 54l19 50l-207 458h127l148 -350l139 350h126l-210 -523q-32 -79 -77.5 -117t-117.5 -38q-26 0 -54.5 3.5z" />
    <glyph glyph-name="z" unicode="z" horiz-adv-x="501" 
d="M40 79l255 305h-248v96h406v-79l-254 -305h262v-96h-421v79z" />
    <glyph glyph-name="braceleft" unicode="{" horiz-adv-x="344" 
d="M128.5 -71.5q-23.5 25.5 -23.5 76.5v214q0 34 -15.5 52.5t-46.5 18.5h-23v111h23q31 0 46.5 18t15.5 52v214q0 51 23.5 76.5t66.5 25.5h109v-106h-36q-21 0 -29 -9.5t-8 -32.5v-187q0 -84 -67 -106v-2q67 -19 67 -106v-187q0 -23 8 -32.5t29 -9.5h36v-106h-109
q-43 0 -66.5 25.5z" />
    <glyph glyph-name="bar" unicode="|" horiz-adv-x="207" 
d="M40 812h127v-956h-127v956z" />
    <glyph glyph-name="braceright" unicode="}" horiz-adv-x="344" 
d="M40 9h36q21 0 29 9.5t8 32.5v187q0 87 67 106v2q-67 22 -67 106v187q0 23 -8 32.5t-29 9.5h-36v106h109q43 0 66.5 -25.5t23.5 -76.5v-214q0 -34 15.5 -52t46.5 -18h23v-111h-23q-31 0 -46.5 -18.5t-15.5 -52.5v-214q0 -51 -23.5 -76.5t-66.5 -25.5h-109v106z" />
    <glyph glyph-name="asciitilde" unicode="~" horiz-adv-x="541" 
d="M332.5 271q-27.5 8 -64.5 23q-41 15 -65 22t-50 7q-70 0 -113 -59v113q16 24 45.5 37t67.5 13q28 0 54.5 -7.5t68.5 -23.5q36 -14 61.5 -21.5t50.5 -7.5q70 0 113 59v-113q-16 -24 -45.5 -37t-67.5 -13q-28 0 -55.5 8z" />
    <glyph glyph-name="uni00A0" unicode="&#xa0;" horiz-adv-x="360" 
 />
    <glyph glyph-name="exclamdown" unicode="&#xa1;" horiz-adv-x="222" 
d="M60.5 430q-20.5 20 -20.5 50q0 29 20.5 49.5t50.5 20.5q29 0 50 -20.5t21 -49.5q0 -30 -20.5 -50t-50.5 -20t-50.5 20zM51 321h121v-490h-121v490z" />
    <glyph glyph-name="cent" unicode="&#xa2;" horiz-adv-x="548" 
d="M269 -12q-106 13 -167.5 78.5t-61.5 172.5q0 106 61.5 172t167.5 80v90h108v-89q73 -7 125 -41v-101q-50 36 -125 44v-308q75 9 131 46v-100q-53 -35 -131 -44v-89h-108v89zM269 387q-48 -14 -74.5 -51t-26.5 -97t27 -96.5t74 -50.5v295z" />
    <glyph glyph-name="sterling" unicode="&#xa3;" horiz-adv-x="492" 
d="M40 105h78v215h-73v105h73v98q0 61 28 104t75.5 65t105.5 22q48 0 84 -14v-102q-27 12 -59 12q-49 0 -78 -25t-29 -71v-89h164v-105h-164v-215h207v-105h-412v105z" />
    <glyph glyph-name="currency" unicode="&#xa4;" horiz-adv-x="598" 
d="M40 112l85 63q-30 44 -30 100t30 101l-84 63l53 66l88 -70q51 38 117 38t117 -38l88 70l53 -66l-84 -63q30 -45 30 -101t-30 -100l85 -63l-54 -67l-89 69q-51 -37 -116 -37t-116 37l-89 -69zM372.5 200.5q30.5 30.5 30.5 74.5t-30.5 75t-73.5 31t-73.5 -31t-30.5 -75
t30.5 -74.5t73.5 -30.5t73.5 30.5z" />
    <glyph glyph-name="yen" unicode="&#xa5;" horiz-adv-x="714" 
d="M294 95h-137v84h137v64h-137v83h102l-219 373h135l180 -311l185 311h134l-223 -373h101v-83h-137v-64h137v-84h-137v-95h-121v95z" />
    <glyph glyph-name="brokenbar" unicode="&#xa6;" horiz-adv-x="207" 
d="M40 812h127v-389h-127v389zM40 245h127v-389h-127v389z" />
    <glyph glyph-name="section" unicode="&#xa7;" horiz-adv-x="567" 
d="M139.5 -158.5q-60.5 11.5 -99.5 30.5v109q50 -24 105 -36t108 -12q67 0 102 25t35 69q0 31 -15.5 50.5t-45.5 35t-97 43.5q-98 41 -142 89t-44 121q0 43 20 75q-20 33 -20 80q0 57 31 101t87 68t129 24q60 0 106.5 -9.5t91.5 -29.5v-106q-87 42 -176 42
q-59 0 -96.5 -26.5t-37.5 -66.5q0 -36 35 -63t119 -64q76 -34 114.5 -58t58 -59.5t19.5 -92.5q0 -39 -18 -75q18 -36 18 -80q0 -93 -67 -144.5t-198 -51.5q-62 0 -122.5 11.5zM424 192q0 28 -15.5 47t-43 34t-84.5 39q-38 16 -72.5 35.5t-49.5 34.5q-5 -17 -5 -32
q0 -35 32 -60t104 -56q52 -23 83 -39t47 -34q4 18 4 31z" />
    <glyph glyph-name="dieresis" unicode="&#xa8;" horiz-adv-x="450" 
d="M60 597.5q-20 19.5 -20 46.5q0 28 20 47.5t47 19.5t46.5 -19.5t19.5 -47.5t-19.5 -47t-46.5 -19t-47 19.5zM297 597.5q-20 19.5 -20 46.5q0 28 20 47.5t47 19.5t46.5 -19.5t19.5 -47.5t-19.5 -47t-46.5 -19t-47 19.5z" />
    <glyph glyph-name="copyright" unicode="&#xa9;" horiz-adv-x="817" 
d="M222.5 31q-84.5 46 -133.5 128.5t-49 189.5t49 190t133.5 129t186.5 46t186 -46t133 -129t49 -190t-49 -189.5t-133 -128.5t-186 -46t-186.5 46zM540 121.5q58 30.5 91.5 89t33.5 138.5q0 79 -33 137.5t-91.5 89.5t-131.5 31q-74 0 -132 -31t-91 -89.5t-33 -137.5
q0 -80 33.5 -138.5t91.5 -89t131 -30.5t131 30.5zM247 187q-61 58 -61 161q0 68 28 118t78.5 76t115.5 26q97 0 155 -38v-91q-28 20 -64.5 29.5t-77.5 9.5q-130 0 -130 -130q0 -129 128 -129q87 0 150 42v-91q-62 -41 -163 -41q-98 0 -159 58z" />
    <glyph glyph-name="ordfeminine" unicode="&#xaa;" horiz-adv-x="425" 
d="M79 381.5q-39 32.5 -39 87.5q0 57 37.5 89.5t104.5 32.5q66 0 112 -27v10q0 36 -22.5 52.5t-72.5 16.5q-68 0 -117 -23v71q22 10 58.5 16.5t69.5 6.5q89 0 132 -38.5t43 -106.5v-209h-85v33q-22 -21 -50.5 -32.5t-69.5 -11.5q-62 0 -101 32.5zM256.5 426.5
q24.5 11.5 37.5 32.5v38q-38 28 -90 28q-72 0 -72 -56q0 -27 18 -40.5t52 -13.5q30 0 54.5 11.5z" />
    <glyph glyph-name="guillemotleft" unicode="&#xab;" horiz-adv-x="628" 
d="M40 308v32l237 206l63 -79l-169 -143l169 -142l-63 -79zM288 308v32l237 206l63 -79l-169 -143l169 -142l-63 -79z" />
    <glyph glyph-name="logicalnot" unicode="&#xac;" horiz-adv-x="446" 
d="M280 254h-240v96h366v-218h-126v122z" />
    <glyph glyph-name="uni00AD" unicode="&#xad;" horiz-adv-x="412" 
d="M40 350h332v-101h-332v101z" />
    <glyph glyph-name="registered" unicode="&#xae;" horiz-adv-x="817" 
d="M222.5 31q-84.5 46 -133.5 128.5t-49 189.5t49 190t133.5 129t186.5 46t186 -46t133 -129t49 -190t-49 -189.5t-133 -128.5t-186 -46t-186.5 46zM540 121.5q58 30.5 91.5 89t33.5 138.5q0 79 -33 137.5t-91.5 89.5t-131.5 31q-74 0 -132 -31t-91 -89.5t-33 -137.5
q0 -80 33.5 -138.5t91.5 -89t131 -30.5t131 30.5zM260 557h169q69 0 111 -34t42 -96q0 -45 -26 -76t-72 -43l81 -162h-98l-79 156h-31v-156h-97v411zM425 376q37 0 53.5 12t16.5 39q0 31 -16 43t-54 12h-68v-106h68z" />
    <glyph glyph-name="macron" unicode="&#xaf;" horiz-adv-x="403" 
d="M40 678h323v-84h-323v84z" />
    <glyph glyph-name="degree" unicode="&#xb0;" horiz-adv-x="368" 
d="M112 458.5q-33 19.5 -52.5 52.5t-19.5 72t19.5 72t52.5 52.5t72 19.5t72 -19.5t52.5 -52.5t19.5 -72t-19.5 -72t-52.5 -52.5t-72 -19.5t-72 19.5zM230.5 536q19.5 20 19.5 47t-19.5 46.5t-46.5 19.5t-46.5 -19.5t-19.5 -46.5t20 -47t46 -20q27 0 46.5 20z" />
    <glyph glyph-name="plusminus" unicode="&#xb1;" horiz-adv-x="412" 
d="M155 269h-115v101h115v115h101v-115h116v-101h-116v-116h-101v116zM40 101h332v-101h-332v101z" />
    <glyph glyph-name="uni00B2" unicode="&#xb2;" horiz-adv-x="342" 
d="M40 429l66 55q57 47 77.5 68.5t20.5 43.5q0 35 -45 35q-24 0 -55 -9.5t-50 -22.5v81q19 12 51 20.5t60 8.5q66 0 99.5 -31t33.5 -77q0 -24 -8.5 -42t-23.5 -32.5t-48 -42.5l-50 -42h134v-72h-262v59z" />
    <glyph glyph-name="uni00B3" unicode="&#xb3;" horiz-adv-x="347" 
d="M40 379v71q21 -10 50 -15.5t53 -5.5q31 0 48.5 8t17.5 29q0 19 -15 27.5t-50 8.5h-49v68h48q57 0 57 33q0 17 -16 26.5t-46 9.5q-45 0 -91 -26v71q47 25 119 25q62 0 97 -25.5t35 -70.5q0 -53 -50 -77q59 -16 59 -77q0 -46 -37.5 -72.5t-106.5 -26.5q-78 0 -123 19z" />
    <glyph glyph-name="acute" unicode="&#xb4;" horiz-adv-x="282" 
d="M110 743h132l-86 -174h-116z" />
    <glyph glyph-name="paragraph" unicode="&#xb6;" horiz-adv-x="758" 
d="M341 261h-59q-110 0 -176 64.5t-66 183.5q0 122 72.5 187.5t192.5 65.5h413v-896h-127v791h-123v-791h-127v395z" />
    <glyph glyph-name="periodcentered" unicode="&#xb7;" horiz-adv-x="182" 
d="M55 260q-15 15 -15 36t15 36t36 15t36 -15t15 -36t-15 -36t-36 -15t-36 15z" />
    <glyph glyph-name="cedilla" unicode="&#xb8;" horiz-adv-x="315" 
d="M79 -244.5q-25 3.5 -39 8.5l1 69q11 -5 27 -8.5t31 -3.5q59 0 59 41q0 24 -23.5 38.5t-75.5 14.5l33 85h113l-20 -52q43 -5 66.5 -31.5t23.5 -66.5q0 -47 -39 -72.5t-105 -25.5q-27 0 -52 3.5z" />
    <glyph glyph-name="uni00B9" unicode="&#xb9;" horiz-adv-x="236" 
d="M122 605l-82 -59v86l91 67h85v-329h-94v235z" />
    <glyph glyph-name="ordmasculine" unicode="&#xba;" horiz-adv-x="483" 
d="M95 397q-55 49 -55 134q0 83 55 133t147 50q91 0 146 -50t55 -133q0 -85 -54.5 -134t-146.5 -49t-147 49zM319 451.5q29 30.5 29 79.5q0 51 -28.5 80.5t-77.5 29.5q-50 0 -78.5 -29t-28.5 -81q0 -49 29 -79.5t78 -30.5q48 0 77 30.5z" />
    <glyph glyph-name="guillemotright" unicode="&#xbb;" horiz-adv-x="628" 
d="M40 182l169 142l-169 143l63 79l237 -206v-32l-237 -205zM288 182l169 142l-169 143l63 79l237 -206v-32l-237 -205z" />
    <glyph glyph-name="onequarter" unicode="&#xbc;" horiz-adv-x="733" 
d="M122 605l-82 -59v86l91 67h85v-329h-94v235zM488 699h129l-387 -699h-129zM553 68h-154v64l147 197h101v-193h46v-68h-46v-68h-94v68zM567 136v105l-80 -105h80z" />
    <glyph glyph-name="onehalf" unicode="&#xbd;" horiz-adv-x="749" 
d="M122 605l-82 -59v86l91 67h85v-329h-94v235zM488 699h129l-387 -699h-129zM447 59l66 55q57 47 77.5 68.5t20.5 43.5q0 35 -45 35q-24 0 -55 -9.5t-50 -22.5v81q19 12 51 20.5t60 8.5q66 0 99.5 -31t33.5 -77q0 -24 -8.5 -42t-23.5 -32.5t-48 -42.5l-50 -42h134v-72h-262
v59z" />
    <glyph glyph-name="threequarters" unicode="&#xbe;" horiz-adv-x="745" 
d="M40 379v71q21 -10 50 -15.5t53 -5.5q31 0 48.5 8t17.5 29q0 19 -15 27.5t-50 8.5h-49v68h48q57 0 57 33q0 17 -16 26.5t-46 9.5q-45 0 -91 -26v71q47 25 119 25q62 0 97 -25.5t35 -70.5q0 -53 -50 -77q59 -16 59 -77q0 -46 -37.5 -72.5t-106.5 -26.5q-78 0 -123 19z
M500 699h129l-387 -699h-129zM565 68h-154v64l147 197h101v-193h46v-68h-46v-68h-94v68zM579 136v105l-80 -105h80z" />
    <glyph glyph-name="questiondown" unicode="&#xbf;" horiz-adv-x="520" 
d="M251.5 430q-20.5 20 -20.5 50q0 29 21 49.5t50 20.5q30 0 50.5 -20.5t20.5 -49.5q0 -30 -20.5 -50t-50.5 -20t-50.5 20zM107.5 -129q-67.5 50 -67.5 140q0 37 13.5 63.5t34 45.5t62.5 51q43 33 58.5 47.5t23.5 33.5t8 52v22h121v-23q0 -59 -22 -99t-72 -76l-26 -18
q-42 -29 -59.5 -48t-17.5 -51q0 -41 31.5 -64t95.5 -23q48 0 98 11t91 30v-105q-39 -17 -89 -28t-100 -11q-116 0 -183.5 50z" />
    <glyph glyph-name="Agrave" unicode="&#xc0;" horiz-adv-x="762" 
d="M234 916h133l69 -174h-116zM320 699h123l279 -699h-129l-64 161h-296l-63 -161h-130zM494 266l-113 297l-113 -297h226z" />
    <glyph glyph-name="Aacute" unicode="&#xc1;" horiz-adv-x="762" 
d="M398 916h133l-86 -174h-116zM320 699h123l279 -699h-129l-64 161h-296l-63 -161h-130zM494 266l-113 297l-113 -297h226z" />
    <glyph glyph-name="Acircumflex" unicode="&#xc2;" horiz-adv-x="762" 
d="M326 913h112l146 -171h-126l-76 99l-76 -99h-127zM320 699h123l279 -699h-129l-64 161h-296l-63 -161h-130zM494 266l-113 297l-113 -297h226z" />
    <glyph glyph-name="Atilde" unicode="&#xc3;" horiz-adv-x="762" 
d="M187 845q32 43 100 43q22 0 43 -6t54 -19q28 -12 49 -18.5t43 -6.5q62 0 100 51v-103q-31 -42 -100 -42q-25 0 -48 6.5t-53 19.5q-30 12 -48.5 18t-39.5 6q-29 0 -53.5 -12t-46.5 -40v103zM320 699h123l279 -699h-129l-64 161h-296l-63 -161h-130zM494 266l-113 297
l-113 -297h226z" />
    <glyph glyph-name="Adieresis" unicode="&#xc4;" horiz-adv-x="762" 
d="M216 771.5q-20 19.5 -20 46.5q0 28 20 47.5t47 19.5t46.5 -19.5t19.5 -47.5t-19.5 -47t-46.5 -19t-47 19.5zM453 771.5q-20 19.5 -20 46.5q0 28 20 47.5t47 19.5t46.5 -19.5t19.5 -47.5t-19.5 -47t-46.5 -19t-47 19.5zM320 699h123l279 -699h-129l-64 161h-296l-63 -161
h-130zM494 266l-113 297l-113 -297h226z" />
    <glyph glyph-name="Aring" unicode="&#xc5;" horiz-adv-x="762" 
d="M722 0h-129l-64 161h-296l-63 -161h-130l271 676q-25 17 -39.5 43.5t-14.5 58.5q0 52 36 88.5t88 36.5t88.5 -36.5t36.5 -88.5q0 -32 -14.5 -58.5t-39.5 -43.5zM345 814q-15 -15 -15 -36t15 -36t36 -15t36 15t15 36t-15 36t-36 15t-36 -15zM494 266l-113 297l-113 -297
h226z" />
    <glyph glyph-name="AE" unicode="&#xc6;" horiz-adv-x="924" 
d="M371 699h513v-105h-311v-192h222v-105h-222v-192h311v-105h-438v171h-191l-79 -171h-136zM446 266v316h-3l-140 -316h143z" />
    <glyph glyph-name="Ccedilla" unicode="&#xc7;" horiz-adv-x="704" 
d="M480 -12l-16 -40q43 -5 66.5 -31.5t23.5 -66.5q0 -47 -39 -72.5t-105 -25.5q-27 0 -52 3.5t-39 8.5l1 69q11 -5 27 -8.5t31 -3.5q59 0 59 41q0 24 -23.5 38.5t-75.5 14.5l28 72q-97 9 -171 56t-114.5 125.5t-40.5 180.5q0 110 47 192.5t132 127.5t195 45q145 0 242 -69
v-121q-87 74 -231 74q-77 0 -135 -30.5t-90 -86.5t-32 -132t32.5 -132t90.5 -86.5t134 -30.5q74 0 132 18.5t107 59.5v-121q-72 -56 -184 -69z" />
    <glyph glyph-name="Egrave" unicode="&#xc8;" horiz-adv-x="573" 
d="M153 916h133l69 -174h-116zM60 699h473v-105h-346v-192h257v-105h-257v-192h346v-105h-473v699z" />
    <glyph glyph-name="Eacute" unicode="&#xc9;" horiz-adv-x="563" 
d="M287 916h133l-86 -174h-116zM60 699h473v-105h-346v-192h257v-105h-257v-192h346v-105h-473v699z" />
    <glyph glyph-name="Ecircumflex" unicode="&#xca;" horiz-adv-x="573" 
d="M226 913h112l146 -171h-126l-76 99l-76 -99h-127zM60 699h473v-105h-346v-192h257v-105h-257v-192h346v-105h-473v699z" />
    <glyph glyph-name="Edieresis" unicode="&#xcb;" horiz-adv-x="573" 
d="M124 771.5q-20 19.5 -20 46.5q0 28 20 47.5t47 19.5t46.5 -19.5t19.5 -47.5t-19.5 -47t-46.5 -19t-47 19.5zM361 771.5q-20 19.5 -20 46.5q0 28 20 47.5t47 19.5t46.5 -19.5t19.5 -47.5t-19.5 -47t-46.5 -19t-47 19.5zM60 699h473v-105h-346v-192h257v-105h-257v-192h346
v-105h-473v699z" />
    <glyph glyph-name="Igrave" unicode="&#xcc;" horiz-adv-x="253" 
d="M-19 916h133l69 -174h-116zM63 699h127v-699h-127v699z" />
    <glyph glyph-name="Iacute" unicode="&#xcd;" horiz-adv-x="253" 
d="M138 916h133l-86 -174h-116zM63 699h127v-699h-127v699z" />
    <glyph glyph-name="Icircumflex" unicode="&#xce;" horiz-adv-x="253" 
d="M71 913h112l146 -171h-126l-76 99l-76 -99h-127zM63 699h127v-699h-127v699z" />
    <glyph glyph-name="Idieresis" unicode="&#xcf;" horiz-adv-x="253" 
d="M-39 771.5q-20 19.5 -20 46.5q0 28 20 47.5t47 19.5t46.5 -19.5t19.5 -47.5t-19.5 -47t-46.5 -19t-47 19.5zM198 771.5q-20 19.5 -20 46.5q0 28 20 47.5t47 19.5t46.5 -19.5t19.5 -47.5t-19.5 -47t-46.5 -19t-47 19.5zM63 699h127v-699h-127v699z" />
    <glyph glyph-name="Eth" unicode="&#xd0;" horiz-adv-x="725" 
d="M79 301h-59v96h59v302h234q114 0 198 -42t129 -120t45 -184q0 -174 -101 -263.5t-282 -89.5h-223v301zM304 105q122 0 187.5 65.5t65.5 182.5q0 71 -29 125.5t-83 85t-128 30.5h-111v-197h172v-96h-172v-196h98z" />
    <glyph glyph-name="Ntilde" unicode="&#xd1;" horiz-adv-x="694" 
d="M160 845q32 43 100 43q22 0 43 -6t54 -19q28 -12 49 -18.5t43 -6.5q62 0 100 51v-103q-31 -42 -100 -42q-25 0 -48 6.5t-53 19.5q-30 12 -48.5 18t-39.5 6q-29 0 -53.5 -12t-46.5 -40v103zM60 699h120l327 -487v487h127v-699h-120l-327 488v-488h-127v699z" />
    <glyph glyph-name="Ograve" unicode="&#xd2;" horiz-adv-x="821" 
d="M275 916h133l69 -174h-116zM221.5 30.5q-84.5 45.5 -133 128.5t-48.5 190t48.5 190t133 129t189.5 46q104 0 188.5 -46t133 -129t48.5 -190t-48.5 -189.5t-133 -128.5t-188.5 -46q-105 0 -189.5 45.5zM533 130.5q55 30.5 87.5 87t32.5 131.5q0 74 -32 130.5t-87 87.5
t-123 31t-123.5 -31t-87.5 -87.5t-32 -130.5q0 -75 32.5 -131.5t88 -87t122.5 -30.5t122 30.5z" />
    <glyph glyph-name="Oacute" unicode="&#xd3;" horiz-adv-x="821" 
d="M420 916h133l-86 -174h-116zM221.5 30.5q-84.5 45.5 -133 128.5t-48.5 190t48.5 190t133 129t189.5 46q104 0 188.5 -46t133 -129t48.5 -190t-48.5 -189.5t-133 -128.5t-188.5 -46q-105 0 -189.5 45.5zM533 130.5q55 30.5 87.5 87t32.5 131.5q0 74 -32 130.5t-87 87.5
t-123 31t-123.5 -31t-87.5 -87.5t-32 -130.5q0 -75 32.5 -131.5t88 -87t122.5 -30.5t122 30.5z" />
    <glyph glyph-name="Ocircumflex" unicode="&#xd4;" horiz-adv-x="821" 
d="M355 913h112l146 -171h-126l-76 99l-76 -99h-127zM221.5 30.5q-84.5 45.5 -133 128.5t-48.5 190t48.5 190t133 129t189.5 46q104 0 188.5 -46t133 -129t48.5 -190t-48.5 -189.5t-133 -128.5t-188.5 -46q-105 0 -189.5 45.5zM533 130.5q55 30.5 87.5 87t32.5 131.5
q0 74 -32 130.5t-87 87.5t-123 31t-123.5 -31t-87.5 -87.5t-32 -130.5q0 -75 32.5 -131.5t88 -87t122.5 -30.5t122 30.5z" />
    <glyph glyph-name="Otilde" unicode="&#xd5;" horiz-adv-x="821" 
d="M217 845q32 43 100 43q22 0 43 -6t54 -19q28 -12 49 -18.5t43 -6.5q62 0 100 51v-103q-31 -42 -100 -42q-25 0 -48 6.5t-53 19.5q-30 12 -48.5 18t-39.5 6q-29 0 -53.5 -12t-46.5 -40v103zM221.5 30.5q-84.5 45.5 -133 128.5t-48.5 190t48.5 190t133 129t189.5 46
q104 0 188.5 -46t133 -129t48.5 -190t-48.5 -189.5t-133 -128.5t-188.5 -46q-105 0 -189.5 45.5zM533 130.5q55 30.5 87.5 87t32.5 131.5q0 74 -32 130.5t-87 87.5t-123 31t-123.5 -31t-87.5 -87.5t-32 -130.5q0 -75 32.5 -131.5t88 -87t122.5 -30.5t122 30.5z" />
    <glyph glyph-name="Odieresis" unicode="&#xd6;" horiz-adv-x="821" 
d="M245 771.5q-20 19.5 -20 46.5q0 28 20 47.5t47 19.5t46.5 -19.5t19.5 -47.5t-19.5 -47t-46.5 -19t-47 19.5zM482 771.5q-20 19.5 -20 46.5q0 28 20 47.5t47 19.5t46.5 -19.5t19.5 -47.5t-19.5 -47t-46.5 -19t-47 19.5zM221.5 30.5q-84.5 45.5 -133 128.5t-48.5 190
t48.5 190t133 129t189.5 46q104 0 188.5 -46t133 -129t48.5 -190t-48.5 -189.5t-133 -128.5t-188.5 -46q-105 0 -189.5 45.5zM533 130.5q55 30.5 87.5 87t32.5 131.5q0 74 -32 130.5t-87 87.5t-123 31t-123.5 -31t-87.5 -87.5t-32 -130.5q0 -75 32.5 -131.5t88 -87
t122.5 -30.5t122 30.5z" />
    <glyph glyph-name="multiply" unicode="&#xd7;" horiz-adv-x="387" 
d="M193 232l-80 -80l-72 71l81 81l-82 82l72 71l81 -82l82 83l72 -72l-82 -82l81 -81l-71 -72z" />
    <glyph glyph-name="Oslash" unicode="&#xd8;" horiz-adv-x="821" 
d="M222 30q-85 46 -133.5 129t-48.5 190t48.5 190t133 129t189.5 46q40 0 82 -8l32 78h124l-47 -118q83 -46 131 -128.5t48 -188.5q0 -107 -48.5 -189.5t-133 -128.5t-188.5 -46q-39 0 -81 8l-31 -79h-124zM449 595q-19 3 -38 3q-68 0 -123.5 -31t-87.5 -87.5t-32 -130.5
q0 -68 26.5 -121t72.5 -85zM533 130.5q55 30.5 87.5 87t32.5 131.5q0 66 -26 118.5t-71 85.5l-181 -451q22 -2 36 -2q67 0 122 30.5z" />
    <glyph glyph-name="Ugrave" unicode="&#xd9;" horiz-adv-x="707" 
d="M214 916h133l69 -174h-116zM130.5 62.5q-75.5 77.5 -75.5 209.5v427h127v-429q0 -83 46.5 -126.5t125.5 -43.5q78 0 124.5 43.5t46.5 126.5v429h127v-427q0 -132 -75 -209.5t-223 -77.5t-223.5 77.5z" />
    <glyph glyph-name="Uacute" unicode="&#xda;" horiz-adv-x="707" 
d="M358 916h133l-86 -174h-116zM130.5 62.5q-75.5 77.5 -75.5 209.5v427h127v-429q0 -83 46.5 -126.5t125.5 -43.5q78 0 124.5 43.5t46.5 126.5v429h127v-427q0 -132 -75 -209.5t-223 -77.5t-223.5 77.5z" />
    <glyph glyph-name="Ucircumflex" unicode="&#xdb;" horiz-adv-x="707" 
d="M298 913h112l146 -171h-126l-76 99l-76 -99h-127zM130.5 62.5q-75.5 77.5 -75.5 209.5v427h127v-429q0 -83 46.5 -126.5t125.5 -43.5q78 0 124.5 43.5t46.5 126.5v429h127v-427q0 -132 -75 -209.5t-223 -77.5t-223.5 77.5z" />
    <glyph glyph-name="Udieresis" unicode="&#xdc;" horiz-adv-x="707" 
d="M188 771.5q-20 19.5 -20 46.5q0 28 20 47.5t47 19.5t46.5 -19.5t19.5 -47.5t-19.5 -47t-46.5 -19t-47 19.5zM425 771.5q-20 19.5 -20 46.5q0 28 20 47.5t47 19.5t46.5 -19.5t19.5 -47.5t-19.5 -47t-46.5 -19t-47 19.5zM130.5 62.5q-75.5 77.5 -75.5 209.5v427h127v-429
q0 -83 46.5 -126.5t125.5 -43.5q78 0 124.5 43.5t46.5 126.5v429h127v-427q0 -132 -75 -209.5t-223 -77.5t-223.5 77.5z" />
    <glyph glyph-name="Yacute" unicode="&#xdd;" horiz-adv-x="726" 
d="M367 916h133l-86 -174h-116zM300 266l-254 433h135l180 -311l185 311h134l-259 -433v-266h-121v266z" />
    <glyph glyph-name="Thorn" unicode="&#xde;" horiz-adv-x="614" 
d="M60 699h127v-129h161q117 0 181.5 -54.5t64.5 -164.5t-64.5 -164t-181.5 -54h-161v-133h-127v699zM324 238q67 0 105 24t38 89q0 66 -38 90t-105 24h-137v-227h137z" />
    <glyph glyph-name="germandbls" unicode="&#xdf;" horiz-adv-x="648" 
d="M250 4v117q41 -21 109 -21q56 0 88 33t32 87q0 55 -33.5 79.5t-99.5 24.5h-57v106h45q96 0 96 98q0 45 -31.5 72t-85.5 27q-131 0 -131 -121v-506h-127v498q0 115 65 180.5t192 65.5q83 0 138.5 -30.5t82 -80t26.5 -105.5q0 -48 -21.5 -88t-61.5 -59q66 -19 99 -64.5
t33 -114.5q0 -100 -59 -158.5t-169 -58.5q-85 0 -130 19z" />
    <glyph glyph-name="agrave" unicode="&#xe0;" horiz-adv-x="577" 
d="M176 709h133l69 -174h-116zM95 30.5q-55 45.5 -55 122.5q0 80 52 125t146 45q91 0 157 -37v13q0 51 -31.5 74t-101.5 23q-44 0 -87 -8.5t-76 -23.5v99q30 14 80.5 23t97.5 9q125 0 185 -53.5t60 -148.5v-293h-119v47q-31 -30 -70.5 -46t-96.5 -16q-86 0 -141 45.5z
M343 93.5q34 16.5 52 45.5v53q-55 39 -126 39q-101 0 -101 -78q0 -38 25.5 -57t73.5 -19q42 0 76 16.5z" />
    <glyph glyph-name="aacute" unicode="&#xe1;" horiz-adv-x="577" 
d="M301 709h133l-86 -174h-116zM95 30.5q-55 45.5 -55 122.5q0 80 52 125t146 45q91 0 157 -37v13q0 51 -31.5 74t-101.5 23q-44 0 -87 -8.5t-76 -23.5v99q30 14 80.5 23t97.5 9q125 0 185 -53.5t60 -148.5v-293h-119v47q-31 -30 -70.5 -46t-96.5 -16q-86 0 -141 45.5z
M343 93.5q34 16.5 52 45.5v53q-55 39 -126 39q-101 0 -101 -78q0 -38 25.5 -57t73.5 -19q42 0 76 16.5z" />
    <glyph glyph-name="acircumflex" unicode="&#xe2;" horiz-adv-x="577" 
d="M241 706h112l146 -171h-126l-76 99l-76 -99h-127zM95 30.5q-55 45.5 -55 122.5q0 80 52 125t146 45q91 0 157 -37v13q0 51 -31.5 74t-101.5 23q-44 0 -87 -8.5t-76 -23.5v99q30 14 80.5 23t97.5 9q125 0 185 -53.5t60 -148.5v-293h-119v47q-31 -30 -70.5 -46t-96.5 -16
q-86 0 -141 45.5zM343 93.5q34 16.5 52 45.5v53q-55 39 -126 39q-101 0 -101 -78q0 -38 25.5 -57t73.5 -19q42 0 76 16.5z" />
    <glyph glyph-name="atilde" unicode="&#xe3;" horiz-adv-x="577" 
d="M115 636q32 43 100 43q22 0 43 -6t54 -19q28 -12 49 -18.5t43 -6.5q62 0 100 51v-103q-31 -42 -100 -42q-25 0 -48 6.5t-53 19.5q-30 12 -48.5 18t-39.5 6q-29 0 -53.5 -12t-46.5 -40v103zM95 30.5q-55 45.5 -55 122.5q0 80 52 125t146 45q91 0 157 -37v13q0 51 -31.5 74
t-101.5 23q-44 0 -87 -8.5t-76 -23.5v99q30 14 80.5 23t97.5 9q125 0 185 -53.5t60 -148.5v-293h-119v47q-31 -30 -70.5 -46t-96.5 -16q-86 0 -141 45.5zM343 93.5q34 16.5 52 45.5v53q-55 39 -126 39q-101 0 -101 -78q0 -38 25.5 -57t73.5 -19q42 0 76 16.5z" />
    <glyph glyph-name="adieresis" unicode="&#xe4;" horiz-adv-x="577" 
d="M126 564.5q-20 19.5 -20 46.5q0 28 20 47.5t47 19.5t46.5 -19.5t19.5 -47.5t-19.5 -47t-46.5 -19t-47 19.5zM363 564.5q-20 19.5 -20 46.5q0 28 20 47.5t47 19.5t46.5 -19.5t19.5 -47.5t-19.5 -47t-46.5 -19t-47 19.5zM95 30.5q-55 45.5 -55 122.5q0 80 52 125t146 45
q91 0 157 -37v13q0 51 -31.5 74t-101.5 23q-44 0 -87 -8.5t-76 -23.5v99q30 14 80.5 23t97.5 9q125 0 185 -53.5t60 -148.5v-293h-119v47q-31 -30 -70.5 -46t-96.5 -16q-86 0 -141 45.5zM343 93.5q34 16.5 52 45.5v53q-55 39 -126 39q-101 0 -101 -78q0 -38 25.5 -57
t73.5 -19q42 0 76 16.5z" />
    <glyph glyph-name="aring" unicode="&#xe5;" horiz-adv-x="577" 
d="M216 571q-36 36 -36 88t36 88.5t88 36.5t88.5 -36.5t36.5 -88.5t-36.5 -88t-88.5 -36t-88 36zM340 623q15 15 15 36t-15 36t-36 15t-36 -15t-15 -36t15 -36t36 -15t36 15zM95 30.5q-55 45.5 -55 122.5q0 80 52 125t146 45q91 0 157 -37v13q0 51 -31.5 74t-101.5 23
q-44 0 -87 -8.5t-76 -23.5v99q30 14 80.5 23t97.5 9q125 0 185 -53.5t60 -148.5v-293h-119v47q-31 -30 -70.5 -46t-96.5 -16q-86 0 -141 45.5zM343 93.5q34 16.5 52 45.5v53q-55 39 -126 39q-101 0 -101 -78q0 -38 25.5 -57t73.5 -19q42 0 76 16.5z" />
    <glyph glyph-name="ae" unicode="&#xe6;" horiz-adv-x="969" 
d="M94.5 30q-54.5 45 -54.5 123q0 80 52 125t146 45q91 0 157 -37v13q0 51 -31.5 74t-101.5 23q-44 0 -87 -8.5t-76 -23.5v99q30 14 80.5 23t97.5 9q130 0 192 -70q34 34 84.5 52t112.5 18q84 0 143.5 -32t89.5 -87.5t30 -126.5v-58h-407q13 -107 184 -107q46 0 94 8t84 22
v-97q-34 -14 -87.5 -23t-106.5 -9q-139 0 -224 77q-41 -38 -92 -57.5t-130 -19.5q-95 0 -149.5 45zM810 277q-2 57 -40.5 88t-105.5 31q-65 0 -102.5 -32t-39.5 -87h288zM342.5 92.5q33.5 15.5 52.5 43.5v56q-55 39 -126 39q-101 0 -101 -78q0 -38 25.5 -57t73.5 -19
q42 0 75.5 15.5z" />
    <glyph glyph-name="ccedilla" unicode="&#xe7;" horiz-adv-x="548" 
d="M376 -12l-15 -40q43 -5 66.5 -31.5t23.5 -66.5q0 -47 -39 -72.5t-105 -25.5q-27 0 -52 3.5t-39 8.5l1 69q11 -5 27 -8.5t31 -3.5q59 0 59 41q0 24 -23.5 38.5t-75.5 14.5l29 74q-104 15 -164 79.5t-60 170.5q0 80 35.5 137.5t99 88t148.5 30.5q112 0 179 -44v-101
q-65 46 -166 46q-77 0 -122.5 -38.5t-45.5 -118.5q0 -79 45.5 -117t120.5 -38q101 0 174 48v-100q-53 -35 -132 -44z" />
    <glyph glyph-name="egrave" unicode="&#xe8;" horiz-adv-x="609" 
d="M174 709h133l69 -174h-116zM118 52q-78 67 -78 187q0 118 69 187t197 69q84 0 143.5 -32t89.5 -87.5t30 -126.5v-58h-409q13 -107 186 -107q46 0 94 8t84 22v-97q-34 -14 -87.5 -23t-106.5 -9q-134 0 -212 67zM450 277q-2 57 -40.5 88t-105.5 31q-66 0 -104 -32t-40 -87
h290z" />
    <glyph glyph-name="eacute" unicode="&#xe9;" horiz-adv-x="609" 
d="M306 709h133l-86 -174h-116zM118 52q-78 67 -78 187q0 118 69 187t197 69q84 0 143.5 -32t89.5 -87.5t30 -126.5v-58h-409q13 -107 186 -107q46 0 94 8t84 22v-97q-34 -14 -87.5 -23t-106.5 -9q-134 0 -212 67zM450 277q-2 57 -40.5 88t-105.5 31q-66 0 -104 -32t-40 -87
h290z" />
    <glyph glyph-name="ecircumflex" unicode="&#xea;" horiz-adv-x="609" 
d="M258 706h112l146 -171h-126l-76 99l-76 -99h-127zM118 52q-78 67 -78 187q0 118 69 187t197 69q84 0 143.5 -32t89.5 -87.5t30 -126.5v-58h-409q13 -107 186 -107q46 0 94 8t84 22v-97q-34 -14 -87.5 -23t-106.5 -9q-134 0 -212 67zM450 277q-2 57 -40.5 88t-105.5 31
q-66 0 -104 -32t-40 -87h290z" />
    <glyph glyph-name="edieresis" unicode="&#xeb;" horiz-adv-x="609" 
d="M145 564.5q-20 19.5 -20 46.5q0 28 20 47.5t47 19.5t46.5 -19.5t19.5 -47.5t-19.5 -47t-46.5 -19t-47 19.5zM382 564.5q-20 19.5 -20 46.5q0 28 20 47.5t47 19.5t46.5 -19.5t19.5 -47.5t-19.5 -47t-46.5 -19t-47 19.5zM118 52q-78 67 -78 187q0 118 69 187t197 69
q84 0 143.5 -32t89.5 -87.5t30 -126.5v-58h-409q13 -107 186 -107q46 0 94 8t84 22v-97q-34 -14 -87.5 -23t-106.5 -9q-134 0 -212 67zM450 277q-2 57 -40.5 88t-105.5 31q-66 0 -104 -32t-40 -87h290z" />
    <glyph glyph-name="igrave" unicode="&#xec;" horiz-adv-x="248" 
d="M-20 709h133l69 -174h-116zM60 480h128v-480h-128v480z" />
    <glyph glyph-name="iacute" unicode="&#xed;" horiz-adv-x="248" 
d="M133 709h133l-86 -174h-116zM60 480h128v-480h-128v480z" />
    <glyph glyph-name="icircumflex" unicode="&#xee;" horiz-adv-x="248" 
d="M69 706h112l146 -171h-126l-76 99l-76 -99h-127zM60 480h128v-480h-128v480z" />
    <glyph glyph-name="idieresis" unicode="&#xef;" horiz-adv-x="248" 
d="M-41 564.5q-20 19.5 -20 46.5q0 28 20 47.5t47 19.5t46.5 -19.5t19.5 -47.5t-19.5 -47t-46.5 -19t-47 19.5zM196 564.5q-20 19.5 -20 46.5q0 28 20 47.5t47 19.5t46.5 -19.5t19.5 -47.5t-19.5 -47t-46.5 -19t-47 19.5zM60 480h128v-480h-128v480z" />
    <glyph glyph-name="eth" unicode="&#xf0;" horiz-adv-x="634" 
d="M159.5 15q-59.5 30 -89.5 83.5t-30 122.5q0 108 68 170t190 62q48 0 92.5 -16t74.5 -46q-3 90 -41 151l-134 -65v81l79 38q-34 20 -77 20q-29 0 -66 -5.5t-57 -13.5v102q22 6 59.5 10.5t63.5 4.5q115 0 185 -66l117 57v-81l-71 -35q56 -98 56 -267q0 -110 -35 -185.5
t-97.5 -113.5t-144.5 -38q-83 0 -142.5 30zM403 121.5q37 39.5 37 96.5q0 60 -38 98t-96 38q-62 0 -101.5 -37t-39.5 -99t39.5 -99t101.5 -37q60 0 97 39.5z" />
    <glyph glyph-name="ntilde" unicode="&#xf1;" horiz-adv-x="610" 
d="M101 638q32 43 100 43q22 0 43 -6t54 -19q28 -12 49 -18.5t43 -6.5q62 0 100 51v-103q-31 -42 -100 -42q-25 0 -48 6.5t-53 19.5q-30 12 -48.5 18t-39.5 6q-29 0 -53.5 -12t-46.5 -40v103zM60 480h122v-65q34 41 81 60.5t99 19.5q97 0 145 -52.5t48 -139.5v-303h-126v291
q0 105 -98 105q-43 0 -81 -20.5t-64 -61.5v-314h-126v480z" />
    <glyph glyph-name="ograve" unicode="&#xf2;" horiz-adv-x="642" 
d="M193 709h133l69 -174h-116zM173.5 15.5q-63.5 30.5 -98.5 88t-35 136.5q0 77 34.5 134.5t98.5 89t148 31.5t147.5 -31.5t98.5 -89t35 -134.5q0 -79 -35 -136.5t-98.5 -88t-147.5 -30.5t-147.5 30.5zM431 127.5q41 43.5 41 112.5q0 73 -40.5 114.5t-110.5 41.5
t-110.5 -41.5t-40.5 -114.5q0 -69 41 -112.5t110 -43.5t110 43.5z" />
    <glyph glyph-name="oacute" unicode="&#xf3;" horiz-adv-x="642" 
d="M329 709h133l-86 -174h-116zM173.5 15.5q-63.5 30.5 -98.5 88t-35 136.5q0 77 34.5 134.5t98.5 89t148 31.5t147.5 -31.5t98.5 -89t35 -134.5q0 -79 -35 -136.5t-98.5 -88t-147.5 -30.5t-147.5 30.5zM431 127.5q41 43.5 41 112.5q0 73 -40.5 114.5t-110.5 41.5
t-110.5 -41.5t-40.5 -114.5q0 -69 41 -112.5t110 -43.5t110 43.5z" />
    <glyph glyph-name="ocircumflex" unicode="&#xf4;" horiz-adv-x="678" 
d="M302 706h112l146 -171h-126l-76 99l-76 -99h-127zM209.5 15.5q-63.5 30.5 -98.5 88t-35 136.5q0 77 34.5 134.5t98.5 89t148 31.5t147.5 -31.5t98.5 -89t35 -134.5q0 -79 -35 -136.5t-98.5 -88t-147.5 -30.5t-147.5 30.5zM467 127.5q41 43.5 41 112.5q0 73 -40.5 114.5
t-110.5 41.5t-110.5 -41.5t-40.5 -114.5q0 -69 41 -112.5t110 -43.5t110 43.5z" />
    <glyph glyph-name="otilde" unicode="&#xf5;" horiz-adv-x="670" 
d="M155 651q32 43 100 43q22 0 43 -6t54 -19q28 -12 49 -18.5t43 -6.5q62 0 100 51v-103q-31 -42 -100 -42q-25 0 -48 6.5t-53 19.5q-30 12 -48.5 18t-39.5 6q-29 0 -53.5 -12t-46.5 -40v103zM201.5 15.5q-63.5 30.5 -98.5 88t-35 136.5q0 77 34.5 134.5t98.5 89t148 31.5
t147.5 -31.5t98.5 -89t35 -134.5q0 -79 -35 -136.5t-98.5 -88t-147.5 -30.5t-147.5 30.5zM459 127.5q41 43.5 41 112.5q0 73 -40.5 114.5t-110.5 41.5t-110.5 -41.5t-40.5 -114.5q0 -69 41 -112.5t110 -43.5t110 43.5z" />
    <glyph glyph-name="odieresis" unicode="&#xf6;" horiz-adv-x="660" 
d="M174 564.5q-20 19.5 -20 46.5q0 28 20 47.5t47 19.5t46.5 -19.5t19.5 -47.5t-19.5 -47t-46.5 -19t-47 19.5zM411 564.5q-20 19.5 -20 46.5q0 28 20 47.5t47 19.5t46.5 -19.5t19.5 -47.5t-19.5 -47t-46.5 -19t-47 19.5zM191.5 15.5q-63.5 30.5 -98.5 88t-35 136.5
q0 77 34.5 134.5t98.5 89t148 31.5t147.5 -31.5t98.5 -89t35 -134.5q0 -79 -35 -136.5t-98.5 -88t-147.5 -30.5t-147.5 30.5zM449 127.5q41 43.5 41 112.5q0 73 -40.5 114.5t-110.5 41.5t-110.5 -41.5t-40.5 -114.5q0 -69 41 -112.5t110 -43.5t110 43.5z" />
    <glyph glyph-name="divide" unicode="&#xf7;" horiz-adv-x="412" 
d="M166.5 399q-16.5 16 -16.5 39q0 24 16.5 40.5t39.5 16.5t39.5 -16.5t16.5 -40.5q0 -23 -16.5 -39t-39.5 -16t-39.5 16zM40 350h332v-101h-332v101zM166.5 120q-16.5 16 -16.5 39q0 24 16.5 40.5t39.5 16.5t39.5 -16.5t16.5 -40.5q0 -23 -16.5 -39t-39.5 -16t-39.5 16z
" />
    <glyph glyph-name="oslash" unicode="&#xf8;" horiz-adv-x="642" 
d="M167 18q-61 31 -94 88t-33 134t34.5 134.5t98.5 89t148 31.5q13 0 37 -2l29 73h124l-42 -103q63 -31 98 -89t35 -134q0 -79 -35 -136.5t-98.5 -88t-147.5 -30.5q-15 0 -43 2l-29 -73h-124zM319 396q-69 -1 -109 -42.5t-40 -113.5q0 -70 41 -113zM321 84q69 0 110 43.5
t41 112.5q0 76 -45 118l-110 -274h4z" />
    <glyph glyph-name="ugrave" unicode="&#xf9;" horiz-adv-x="610" 
d="M166 709h133l69 -174h-116zM103 37.5q-48 52.5 -48 139.5v303h126v-291q0 -105 98 -105q43 0 81 20.5t64 61.5v314h126v-480h-122v65q-34 -41 -81 -60.5t-99 -19.5q-97 0 -145 52.5z" />
    <glyph glyph-name="uacute" unicode="&#xfa;" horiz-adv-x="610" 
d="M305 709h133l-86 -174h-116zM103 37.5q-48 52.5 -48 139.5v303h126v-291q0 -105 98 -105q43 0 81 20.5t64 61.5v314h126v-480h-122v65q-34 -41 -81 -60.5t-99 -19.5q-97 0 -145 52.5z" />
    <glyph glyph-name="ucircumflex" unicode="&#xfb;" horiz-adv-x="610" 
d="M242 706h112l146 -171h-126l-76 99l-76 -99h-127zM103 37.5q-48 52.5 -48 139.5v303h126v-291q0 -105 98 -105q43 0 81 20.5t64 61.5v314h126v-480h-122v65q-34 -41 -81 -60.5t-99 -19.5q-97 0 -145 52.5z" />
    <glyph glyph-name="udieresis" unicode="&#xfc;" horiz-adv-x="610" 
d="M134 564.5q-20 19.5 -20 46.5q0 28 20 47.5t47 19.5t46.5 -19.5t19.5 -47.5t-19.5 -47t-46.5 -19t-47 19.5zM371 564.5q-20 19.5 -20 46.5q0 28 20 47.5t47 19.5t46.5 -19.5t19.5 -47.5t-19.5 -47t-46.5 -19t-47 19.5zM103 37.5q-48 52.5 -48 139.5v303h126v-291
q0 -105 98 -105q43 0 81 20.5t64 61.5v314h126v-480h-122v65q-34 -41 -81 -60.5t-99 -19.5q-97 0 -145 52.5z" />
    <glyph glyph-name="yacute" unicode="&#xfd;" horiz-adv-x="600" 
d="M313 709h133l-86 -174h-116zM120.5 -194.5q-28.5 3.5 -44.5 9.5v96q25 -10 62 -10q38 0 57 17t33 54l19 50l-207 458h127l148 -350l139 350h126l-210 -523q-32 -79 -77.5 -117t-117.5 -38q-26 0 -54.5 3.5z" />
    <glyph glyph-name="thorn" unicode="&#xfe;" horiz-adv-x="665" 
d="M60 699h126v-266q34 31 82.5 46.5t103.5 15.5q73 0 130.5 -31.5t90 -89t32.5 -133.5q0 -75 -32.5 -133t-90 -90.5t-130.5 -32.5q-55 0 -103.5 15.5t-82.5 46.5v-266h-126v918zM453 128q44 44 44 113t-44 112t-112 43q-54 0 -96 -29t-59 -78v-97q16 -49 58.5 -78.5
t96.5 -29.5q68 0 112 44z" />
    <glyph glyph-name="ydieresis" unicode="&#xff;" horiz-adv-x="600" 
d="M150 564.5q-20 19.5 -20 46.5q0 28 20 47.5t47 19.5t46.5 -19.5t19.5 -47.5t-19.5 -47t-46.5 -19t-47 19.5zM387 564.5q-20 19.5 -20 46.5q0 28 20 47.5t47 19.5t46.5 -19.5t19.5 -47.5t-19.5 -47t-46.5 -19t-47 19.5zM120.5 -194.5q-28.5 3.5 -44.5 9.5v96
q25 -10 62 -10q38 0 57 17t33 54l19 50l-207 458h127l148 -350l139 350h126l-210 -523q-32 -79 -77.5 -117t-117.5 -38q-26 0 -54.5 3.5z" />
    <glyph glyph-name="Amacron" unicode="&#x100;" horiz-adv-x="762" 
d="M220 836h323v-84h-323v84zM320 699h123l279 -699h-129l-64 161h-296l-63 -161h-130zM494 266l-113 297l-113 -297h226z" />
    <glyph glyph-name="amacron" unicode="&#x101;" horiz-adv-x="577" 
d="M144 629h323v-84h-323v84zM95 30.5q-55 45.5 -55 122.5q0 80 52 125t146 45q91 0 157 -37v13q0 51 -31.5 74t-101.5 23q-44 0 -87 -8.5t-76 -23.5v99q30 14 80.5 23t97.5 9q125 0 185 -53.5t60 -148.5v-293h-119v47q-31 -30 -70.5 -46t-96.5 -16q-86 0 -141 45.5z
M343 93.5q34 16.5 52 45.5v53q-55 39 -126 39q-101 0 -101 -78q0 -38 25.5 -57t73.5 -19q42 0 76 16.5z" />
    <glyph glyph-name="Abreve" unicode="&#x102;" horiz-adv-x="762" 
d="M263 783.5q-43 41.5 -43 109.5h95q0 -33 17 -50t49 -17t49 17t17 50h95q0 -68 -43 -109.5t-118 -41.5t-118 41.5zM320 699h123l279 -699h-129l-64 161h-296l-63 -161h-130zM494 266l-113 297l-113 -297h226z" />
    <glyph glyph-name="abreve" unicode="&#x103;" horiz-adv-x="577" 
d="M184 576.5q-43 41.5 -43 109.5h95q0 -33 17 -50t49 -17t49 17t17 50h95q0 -68 -43 -109.5t-118 -41.5t-118 41.5zM95 30.5q-55 45.5 -55 122.5q0 80 52 125t146 45q91 0 157 -37v13q0 51 -31.5 74t-101.5 23q-44 0 -87 -8.5t-76 -23.5v99q30 14 80.5 23t97.5 9
q125 0 185 -53.5t60 -148.5v-293h-119v47q-31 -30 -70.5 -46t-96.5 -16q-86 0 -141 45.5zM343 93.5q34 16.5 52 45.5v53q-55 39 -126 39q-101 0 -101 -78q0 -38 25.5 -57t73.5 -19q42 0 76 16.5z" />
    <glyph glyph-name="Aogonek" unicode="&#x104;" horiz-adv-x="762" 
d="M635.5 -128.5q11.5 -10.5 29.5 -10.5q26 0 48 11v-72q-34 -13 -87 -13q-50 0 -81 23.5t-31 68.5q0 38 20 69t53 52h6l-64 161h-296l-63 -161h-130l280 699h123l279 -699h-19q-40 -24 -59.5 -47.5t-19.5 -51.5q0 -19 11.5 -29.5zM494 266l-113 297l-113 -297h226z" />
    <glyph glyph-name="aogonek" unicode="&#x105;" horiz-adv-x="577" 
d="M529 -128v-72q-34 -13 -87 -13q-50 0 -81 23.5t-31 68.5q0 38 20 69t53 52v47q-31 -30 -70.5 -46t-96.5 -16q-86 0 -141 45.5t-55 122.5q0 80 52 125t146 45q91 0 157 -37v13q0 51 -31.5 74t-101.5 23q-44 0 -87 -8.5t-76 -23.5v99q30 14 80.5 23t97.5 9q125 0 185 -53.5
t60 -148.5v-293h-3q-40 -24 -59.5 -47.5t-19.5 -51.5q0 -19 11.5 -29.5t29.5 -10.5q26 0 48 11zM395 192q-55 39 -126 39q-101 0 -101 -78q0 -38 25.5 -57t73.5 -19q42 0 76 16.5t52 45.5v53z" />
    <glyph glyph-name="Cacute" unicode="&#x106;" horiz-adv-x="704" 
d="M416 916h133l-86 -174h-116zM219 29.5q-85 44.5 -132 127t-47 192.5t47 192.5t132 127.5t195 45q145 0 242 -69v-121q-87 74 -231 74q-77 0 -135 -30.5t-90 -86.5t-32 -132t32.5 -132t90.5 -86.5t134 -30.5q74 0 132 18.5t107 59.5v-121q-92 -72 -250 -72
q-110 0 -195 44.5z" />
    <glyph glyph-name="cacute" unicode="&#x107;" horiz-adv-x="548" 
d="M331 709h133l-86 -174h-116zM173.5 15q-63.5 30 -98.5 87t-35 137t35.5 137.5t99 88t148.5 30.5q112 0 179 -44v-101q-65 46 -166 46q-77 0 -122.5 -38.5t-45.5 -118.5q0 -79 45.5 -117t120.5 -38q101 0 174 48v-100q-36 -24 -81.5 -35.5t-105.5 -11.5q-84 0 -147.5 30z
" />
    <glyph glyph-name="Ccircumflex" unicode="&#x108;" horiz-adv-x="704" 
d="M350 913h112l146 -171h-126l-76 99l-76 -99h-127zM219 29.5q-85 44.5 -132 127t-47 192.5t47 192.5t132 127.5t195 45q145 0 242 -69v-121q-87 74 -231 74q-77 0 -135 -30.5t-90 -86.5t-32 -132t32.5 -132t90.5 -86.5t134 -30.5q74 0 132 18.5t107 59.5v-121
q-92 -72 -250 -72q-110 0 -195 44.5z" />
    <glyph glyph-name="ccircumflex" unicode="&#x109;" horiz-adv-x="548" 
d="M249 706h112l146 -171h-126l-76 99l-76 -99h-127zM173.5 15q-63.5 30 -98.5 87t-35 137t35.5 137.5t99 88t148.5 30.5q112 0 179 -44v-101q-65 46 -166 46q-77 0 -122.5 -38.5t-45.5 -118.5q0 -79 45.5 -117t120.5 -38q101 0 174 48v-100q-36 -24 -81.5 -35.5
t-105.5 -11.5q-84 0 -147.5 30z" />
    <glyph glyph-name="Cdotaccent" unicode="&#x10a;" horiz-adv-x="704" 
d="M355 771.5q-20 19.5 -20 46.5q0 28 20 47.5t47 19.5t46.5 -19.5t19.5 -47.5t-19.5 -47t-46.5 -19t-47 19.5zM219 29.5q-85 44.5 -132 127t-47 192.5t47 192.5t132 127.5t195 45q145 0 242 -69v-121q-87 74 -231 74q-77 0 -135 -30.5t-90 -86.5t-32 -132t32.5 -132
t90.5 -86.5t134 -30.5q74 0 132 18.5t107 59.5v-121q-92 -72 -250 -72q-110 0 -195 44.5z" />
    <glyph glyph-name="cdotaccent" unicode="&#x10b;" horiz-adv-x="548" 
d="M263 554.5q-20 19.5 -20 46.5q0 28 20 47.5t47 19.5t46.5 -19.5t19.5 -47.5t-19.5 -47t-46.5 -19t-47 19.5zM173.5 15q-63.5 30 -98.5 87t-35 137t35.5 137.5t99 88t148.5 30.5q112 0 179 -44v-101q-65 46 -166 46q-77 0 -122.5 -38.5t-45.5 -118.5q0 -79 45.5 -117
t120.5 -38q101 0 174 48v-100q-36 -24 -81.5 -35.5t-105.5 -11.5q-84 0 -147.5 30z" />
    <glyph glyph-name="Ccaron" unicode="&#x10c;" horiz-adv-x="704" 
d="M203 913h127l76 -100l76 100h126l-146 -171h-112zM219 29.5q-85 44.5 -132 127t-47 192.5t47 192.5t132 127.5t195 45q145 0 242 -69v-121q-87 74 -231 74q-77 0 -135 -30.5t-90 -86.5t-32 -132t32.5 -132t90.5 -86.5t134 -30.5q74 0 132 18.5t107 59.5v-121
q-92 -72 -250 -72q-110 0 -195 44.5z" />
    <glyph glyph-name="ccaron" unicode="&#x10d;" horiz-adv-x="548" 
d="M95 706h127l76 -100l76 100h126l-146 -171h-112zM173.5 15q-63.5 30 -98.5 87t-35 137t35.5 137.5t99 88t148.5 30.5q112 0 179 -44v-101q-65 46 -166 46q-77 0 -122.5 -38.5t-45.5 -118.5q0 -79 45.5 -117t120.5 -38q101 0 174 48v-100q-36 -24 -81.5 -35.5
t-105.5 -11.5q-84 0 -147.5 30z" />
    <glyph glyph-name="Dcaron" unicode="&#x10e;" horiz-adv-x="706" 
d="M128 913h127l76 -100l76 100h126l-146 -171h-112zM60 699h234q114 0 198 -42t129 -120t45 -184q0 -174 -101 -263.5t-282 -89.5h-223v699zM285 105q122 0 187.5 65.5t65.5 182.5q0 71 -29 125.5t-83 85t-128 30.5h-111v-489h98z" />
    <glyph glyph-name="dcaron" unicode="&#x10f;" horiz-adv-x="825" 
d="M719 769h106l-91 -186h-93zM162.5 6.5q-57.5 31.5 -90 89t-32.5 134.5q0 75 32.5 133t90 90t130.5 32q59 0 110 -23t77 -64v331h126v-739h-122v77q-30 -44 -80 -68t-111 -24q-73 0 -130.5 31.5zM421 101q42 27 59 75v107q-16 48 -58.5 75.5t-97.5 27.5
q-67 0 -110.5 -42.5t-43.5 -114.5q0 -71 43.5 -113t110.5 -42q55 0 97 27z" />
    <glyph glyph-name="Dcroat" unicode="&#x110;" horiz-adv-x="725" 
d="M79 301h-59v96h59v302h234q114 0 198 -42t129 -120t45 -184q0 -174 -101 -263.5t-282 -89.5h-223v301zM304 105q122 0 187.5 65.5t65.5 182.5q0 71 -29 125.5t-83 85t-128 30.5h-111v-197h172v-96h-172v-196h98z" />
    <glyph glyph-name="dcroat" unicode="&#x111;" horiz-adv-x="675" 
d="M162.5 16.5q-57.5 31.5 -90 89t-32.5 133.5q0 75 32.5 133t90 90.5t130.5 32.5q118 0 186 -62v127h-182v95h182v84h126v-84h50v-95h-50v-560h-122v56q-41 -38 -85 -54.5t-105 -16.5q-73 0 -130.5 31.5zM420 113q42 29 59 78v97q-16 49 -58.5 78.5t-96.5 29.5
q-68 0 -112 -44t-44 -113t44 -112t112 -43q54 0 96 29z" />
    <glyph glyph-name="Emacron" unicode="&#x112;" horiz-adv-x="573" 
d="M142 836h323v-84h-323v84zM60 699h473v-105h-346v-192h257v-105h-257v-192h346v-105h-473v699z" />
    <glyph glyph-name="emacron" unicode="&#x113;" horiz-adv-x="609" 
d="M151 629h323v-84h-323v84zM118 52q-78 67 -78 187q0 118 69 187t197 69q84 0 143.5 -32t89.5 -87.5t30 -126.5v-58h-409q13 -107 186 -107q46 0 94 8t84 22v-97q-34 -14 -87.5 -23t-106.5 -9q-134 0 -212 67zM450 277q-2 57 -40.5 88t-105.5 31q-66 0 -104 -32t-40 -87
h290z" />
    <glyph glyph-name="Ebreve" unicode="&#x114;" horiz-adv-x="573" 
d="M192 783.5q-43 41.5 -43 109.5h95q0 -33 17 -50t49 -17t49 17t17 50h95q0 -68 -43 -109.5t-118 -41.5t-118 41.5zM60 699h473v-105h-346v-192h257v-105h-257v-192h346v-105h-473v699z" />
    <glyph glyph-name="ebreve" unicode="&#x115;" horiz-adv-x="609" 
d="M193 576.5q-43 41.5 -43 109.5h95q0 -33 17 -50t49 -17t49 17t17 50h95q0 -68 -43 -109.5t-118 -41.5t-118 41.5zM118 52q-78 67 -78 187q0 118 69 187t197 69q84 0 143.5 -32t89.5 -87.5t30 -126.5v-58h-409q13 -107 186 -107q46 0 94 8t84 22v-97q-34 -14 -87.5 -23
t-106.5 -9q-134 0 -212 67zM450 277q-2 57 -40.5 88t-105.5 31q-66 0 -104 -32t-40 -87h290z" />
    <glyph glyph-name="Edotaccent" unicode="&#x116;" horiz-adv-x="573" 
d="M261 771.5q-20 19.5 -20 46.5q0 28 20 47.5t47 19.5t46.5 -19.5t19.5 -47.5t-19.5 -47t-46.5 -19t-47 19.5zM60 699h473v-105h-346v-192h257v-105h-257v-192h346v-105h-473v699z" />
    <glyph glyph-name="edotaccent" unicode="&#x117;" horiz-adv-x="609" 
d="M261 564.5q-20 19.5 -20 46.5q0 28 20 47.5t47 19.5t46.5 -19.5t19.5 -47.5t-19.5 -47t-46.5 -19t-47 19.5zM118 52q-78 67 -78 187q0 118 69 187t197 69q84 0 143.5 -32t89.5 -87.5t30 -126.5v-58h-409q13 -107 186 -107q46 0 94 8t84 22v-97q-34 -14 -87.5 -23
t-106.5 -9q-134 0 -212 67zM450 277q-2 57 -40.5 88t-105.5 31q-66 0 -104 -32t-40 -87h290z" />
    <glyph glyph-name="Eogonek" unicode="&#x118;" horiz-adv-x="573" 
d="M187 594v-192h257v-105h-257v-192h346v-105h-10q-40 -24 -59.5 -47.5t-19.5 -51.5q0 -19 11.5 -29.5t29.5 -10.5q26 0 48 11v-72q-34 -13 -87 -13q-50 0 -81 23.5t-31 68.5q0 38 20 69t53 52h-347v699h473v-105h-346z" />
    <glyph glyph-name="eogonek" unicode="&#x119;" horiz-adv-x="609" 
d="M569 191h-409q13 -107 186 -107q46 0 94 8t84 22v-97q-27 -12 -82 -22q-36 -22 -53.5 -45t-17.5 -49q0 -19 11.5 -29.5t29.5 -10.5q26 0 48 11v-72q-34 -13 -87 -13q-50 0 -81 23.5t-31 68.5q0 63 53 106q-128 5 -201 71.5t-73 182.5q0 118 69 187t197 69q84 0 143.5 -32
t89.5 -87.5t30 -126.5v-58zM450 277q-2 57 -40.5 88t-105.5 31q-66 0 -104 -32t-40 -87h290z" />
    <glyph glyph-name="Ecaron" unicode="&#x11a;" horiz-adv-x="573" 
d="M112 913h127l76 -100l76 100h126l-146 -171h-112zM60 699h473v-105h-346v-192h257v-105h-257v-192h346v-105h-473v699z" />
    <glyph glyph-name="ecaron" unicode="&#x11b;" horiz-adv-x="609" 
d="M108 706h127l76 -100l76 100h126l-146 -171h-112zM118 52q-78 67 -78 187q0 118 69 187t197 69q84 0 143.5 -32t89.5 -87.5t30 -126.5v-58h-409q13 -107 186 -107q46 0 94 8t84 22v-97q-34 -14 -87.5 -23t-106.5 -9q-134 0 -212 67zM450 277q-2 57 -40.5 88t-105.5 31
q-66 0 -104 -32t-40 -87h290z" />
    <glyph glyph-name="Gcircumflex" unicode="&#x11c;" horiz-adv-x="713" 
d="M354 913h112l146 -171h-126l-76 99l-76 -99h-127zM219 29.5q-85 44.5 -132 127t-47 192.5t47 192.5t132 127.5t195 45q75 0 134 -16t107 -51v-121q-44 38 -101 55t-129 17t-130.5 -30.5t-92.5 -87t-34 -131.5q0 -76 32 -132.5t89 -87t130 -30.5q77 0 127 26v157h-118v101
h245v-326q-93 -72 -259 -72q-110 0 -195 44.5z" />
    <glyph glyph-name="gcircumflex" unicode="&#x11d;" horiz-adv-x="665" 
d="M289 706h112l146 -171h-126l-76 99l-76 -99h-127zM218 -221q-48 9 -80 24v100q78 -34 176 -34q88 0 126.5 37t38.5 110v31q-34 -31 -81 -46.5t-101 -15.5q-73 0 -132 32.5t-92 90.5t-33 133q0 76 32.5 133.5t90 89t130.5 31.5q61 0 105 -16.5t85 -54.5v56h122v-451
q0 -124 -71.5 -191.5t-219.5 -67.5q-48 0 -96 9zM420.5 113.5q42.5 29.5 58.5 78.5v97q-17 49 -59 78t-96 29q-68 0 -112 -43t-44 -112t44 -113t112 -44q54 0 96.5 29.5z" />
    <glyph glyph-name="Gbreve" unicode="&#x11e;" horiz-adv-x="713" 
d="M300 783.5q-43 41.5 -43 109.5h95q0 -33 17 -50t49 -17t49 17t17 50h95q0 -68 -43 -109.5t-118 -41.5t-118 41.5zM219 29.5q-85 44.5 -132 127t-47 192.5t47 192.5t132 127.5t195 45q75 0 134 -16t107 -51v-121q-44 38 -101 55t-129 17t-130.5 -30.5t-92.5 -87
t-34 -131.5q0 -76 32 -132.5t89 -87t130 -30.5q77 0 127 26v157h-118v101h245v-326q-93 -72 -259 -72q-110 0 -195 44.5z" />
    <glyph glyph-name="gbreve" unicode="&#x11f;" horiz-adv-x="665" 
d="M223 576.5q-43 41.5 -43 109.5h95q0 -33 17 -50t49 -17t49 17t17 50h95q0 -68 -43 -109.5t-118 -41.5t-118 41.5zM218 -221q-48 9 -80 24v100q78 -34 176 -34q88 0 126.5 37t38.5 110v31q-34 -31 -81 -46.5t-101 -15.5q-73 0 -132 32.5t-92 90.5t-33 133q0 76 32.5 133.5
t90 89t130.5 31.5q61 0 105 -16.5t85 -54.5v56h122v-451q0 -124 -71.5 -191.5t-219.5 -67.5q-48 0 -96 9zM420.5 113.5q42.5 29.5 58.5 78.5v97q-17 49 -59 78t-96 29q-68 0 -112 -43t-44 -112t44 -113t112 -44q54 0 96.5 29.5z" />
    <glyph glyph-name="Gdotaccent" unicode="&#x120;" horiz-adv-x="713" 
d="M368 771.5q-20 19.5 -20 46.5q0 28 20 47.5t47 19.5t46.5 -19.5t19.5 -47.5t-19.5 -47t-46.5 -19t-47 19.5zM219 29.5q-85 44.5 -132 127t-47 192.5t47 192.5t132 127.5t195 45q75 0 134 -16t107 -51v-121q-44 38 -101 55t-129 17t-130.5 -30.5t-92.5 -87t-34 -131.5
q0 -76 32 -132.5t89 -87t130 -30.5q77 0 127 26v157h-118v101h245v-326q-93 -72 -259 -72q-110 0 -195 44.5z" />
    <glyph glyph-name="gdotaccent" unicode="&#x121;" horiz-adv-x="665" 
d="M298 564.5q-20 19.5 -20 46.5q0 28 20 47.5t47 19.5t46.5 -19.5t19.5 -47.5t-19.5 -47t-46.5 -19t-47 19.5zM218 -221q-48 9 -80 24v100q78 -34 176 -34q88 0 126.5 37t38.5 110v31q-34 -31 -81 -46.5t-101 -15.5q-73 0 -132 32.5t-92 90.5t-33 133q0 76 32.5 133.5
t90 89t130.5 31.5q61 0 105 -16.5t85 -54.5v56h122v-451q0 -124 -71.5 -191.5t-219.5 -67.5q-48 0 -96 9zM420.5 113.5q42.5 29.5 58.5 78.5v97q-17 49 -59 78t-96 29q-68 0 -112 -43t-44 -112t44 -113t112 -44q54 0 96.5 29.5z" />
    <glyph glyph-name="Gcommaaccent" unicode="&#x122;" horiz-adv-x="713" 
d="M219 29.5q-85 44.5 -132 127t-47 192.5t47 192.5t132 127.5t195 45q75 0 134 -16t107 -51v-121q-44 38 -101 55t-129 17t-130.5 -30.5t-92.5 -87t-34 -131.5q0 -76 32 -132.5t89 -87t130 -30.5q77 0 127 26v157h-118v101h245v-326q-93 -72 -259 -72q-110 0 -195 44.5z
M369 -56h131l-98 -203h-115z" />
    <glyph glyph-name="gcommaaccent" unicode="&#x123;" horiz-adv-x="665" 
d="M386 738h115l-82 -203h-131zM218 -221q-48 9 -80 24v100q78 -34 176 -34q88 0 126.5 37t38.5 110v31q-34 -31 -81 -46.5t-101 -15.5q-73 0 -132 32.5t-92 90.5t-33 133q0 76 32.5 133.5t90 89t130.5 31.5q61 0 105 -16.5t85 -54.5v56h122v-451q0 -124 -71.5 -191.5
t-219.5 -67.5q-48 0 -96 9zM420.5 113.5q42.5 29.5 58.5 78.5v97q-17 49 -59 78t-96 29q-68 0 -112 -43t-44 -112t44 -113t112 -44q54 0 96.5 29.5z" />
    <glyph glyph-name="Hcircumflex" unicode="&#x124;" horiz-adv-x="709" 
d="M299 913h112l146 -171h-126l-76 99l-76 -99h-127zM60 699h127v-290h336v290h126v-699h-126v304h-336v-304h-127v699z" />
    <glyph glyph-name="hcircumflex" unicode="&#x125;" horiz-adv-x="610" 
d="M211 938h112l146 -171h-126l-76 99l-76 -99h-127zM60 739h126v-320q68 76 176 76q97 0 145 -52.5t48 -139.5v-303h-126v291q0 105 -98 105q-43 0 -81 -20.5t-64 -61.5v-314h-126v739z" />
    <glyph glyph-name="Hbar" unicode="&#x126;" horiz-adv-x="726" 
d="M65 499h-45v105h45v95h127v-95h336v95h126v-95h52v-105h-52v-499h-126v304h-336v-304h-127v499zM528 409v90h-336v-90h336z" />
    <glyph glyph-name="hbar" unicode="&#x127;" horiz-adv-x="615" 
d="M65 547h-45v91h45v101h126v-101h152v-91h-152v-130q35 40 80.5 59t96.5 19q98 0 145 -50t47 -137v-308h-126v291q0 105 -102 105q-89 0 -141 -82v-314h-126v547z" />
    <glyph glyph-name="Itilde" unicode="&#x128;" horiz-adv-x="253" 
d="M-68 845q32 43 100 43q22 0 43 -6t54 -19q28 -12 49 -18.5t43 -6.5q62 0 100 51v-103q-31 -42 -100 -42q-25 0 -48 6.5t-53 19.5q-30 12 -48.5 18t-39.5 6q-29 0 -53.5 -12t-46.5 -40v103zM63 699h127v-699h-127v699z" />
    <glyph glyph-name="itilde" unicode="&#x129;" horiz-adv-x="248" 
d="M-70 636q32 43 100 43q22 0 43 -6t54 -19q28 -12 49 -18.5t43 -6.5q62 0 100 51v-103q-31 -42 -100 -42q-25 0 -48 6.5t-53 19.5q-30 12 -48.5 18t-39.5 6q-29 0 -53.5 -12t-46.5 -40v103zM60 480h128v-480h-128v480z" />
    <glyph glyph-name="Imacron" unicode="&#x12a;" horiz-adv-x="253" 
d="M-40 836h332v-84h-332v84zM63 699h127v-699h-127v699z" />
    <glyph glyph-name="imacron" unicode="&#x12b;" horiz-adv-x="248" 
d="M-42 629h332v-84h-332v84zM60 480h128v-480h-128v480z" />
    <glyph glyph-name="Ibreve" unicode="&#x12c;" horiz-adv-x="253" 
d="M8 783.5q-43 41.5 -43 109.5h95q0 -33 17 -50t49 -17t49 17t17 50h95q0 -68 -43 -109.5t-118 -41.5t-118 41.5zM63 699h127v-699h-127v699z" />
    <glyph glyph-name="ibreve" unicode="&#x12d;" horiz-adv-x="248" 
d="M6 576.5q-43 41.5 -43 109.5h95q0 -33 17 -50t49 -17t49 17t17 50h95q0 -68 -43 -109.5t-118 -41.5t-118 41.5zM60 480h128v-480h-128v480z" />
    <glyph glyph-name="Iogonek" unicode="&#x12e;" horiz-adv-x="253" 
d="M196 -128v-72q-34 -13 -87 -13q-50 0 -81 23.5t-31 68.5q0 38 20 69t53 52h-7v699h127v-699h-4q-40 -24 -59.5 -47.5t-19.5 -51.5q0 -19 11.5 -29.5t29.5 -10.5q26 0 48 11z" />
    <glyph glyph-name="iogonek" unicode="&#x12f;" horiz-adv-x="263" 
d="M80.5 584q-20.5 20 -20.5 50t20.5 50.5t50.5 20.5t51 -20.5t21 -50.5t-21 -50t-51 -20t-50.5 20zM122.5 -128.5q11.5 -10.5 29.5 -10.5q26 0 48 11v-72q-34 -13 -87 -13q-50 0 -81 23.5t-31 68.5q0 38 20 69t53 52h-7v480h128v-480h-5q-40 -24 -59.5 -47.5t-19.5 -51.5
q0 -19 11.5 -29.5z" />
    <glyph glyph-name="Idotaccent" unicode="&#x130;" horiz-adv-x="253" 
d="M80 771.5q-20 19.5 -20 46.5q0 28 20 47.5t47 19.5t46.5 -19.5t19.5 -47.5t-19.5 -47t-46.5 -19t-47 19.5zM63 699h127v-699h-127v699z" />
    <glyph glyph-name="dotlessi" unicode="&#x131;" horiz-adv-x="248" 
d="M60 480h128v-480h-128v480z" />
    <glyph glyph-name="IJ" unicode="&#x132;" horiz-adv-x="633" 
d="M63 699h127v-699h-127v699zM318.5 -9.5q-32.5 5.5 -49.5 13.5v106q33 -14 81 -14q98 0 98 93v510h127v-517q0 -92 -51 -144.5t-143 -52.5q-30 0 -62.5 5.5z" />
    <glyph glyph-name="ij" unicode="&#x133;" horiz-adv-x="474" 
d="M80.5 584q-20.5 20 -20.5 50t20.5 50.5t50.5 20.5t51 -20.5t21 -50.5t-21 -50t-51 -20t-50.5 20zM292.5 584q-20.5 20 -20.5 50q0 29 20.5 49.5t50.5 20.5q29 0 50 -20.5t21 -49.5q0 -30 -20.5 -50t-50.5 -20t-50.5 20zM67 480h128v-480h-128v480zM137 -218v102
q27 -12 62 -12q41 0 61 20.5t20 64.5v523h126v-536q0 -87 -50 -131t-135 -44q-48 0 -84 13z" />
    <glyph glyph-name="Jcircumflex" unicode="&#x134;" horiz-adv-x="384" 
d="M208 913h112l146 -171h-126l-76 99l-76 -99h-127zM69.5 -9.5q-32.5 5.5 -49.5 13.5v106q33 -14 81 -14q98 0 98 93v510h127v-517q0 -92 -51 -144.5t-143 -52.5q-30 0 -62.5 5.5z" />
    <glyph glyph-name="jcircumflex" unicode="&#x135;" horiz-adv-x="249" 
d="M70 706h112l146 -171h-126l-76 99l-76 -99h-127zM-80 -218v102q27 -12 62 -12q41 0 61 20.5t20 64.5v523h126v-536q0 -87 -50 -131t-135 -44q-48 0 -84 13z" />
    <glyph glyph-name="Kcommaaccent" unicode="&#x136;" horiz-adv-x="686" 
d="M60 699h127v-317l287 317h152l-310 -342l330 -357h-152l-307 332v-332h-127v699zM265 -56h131l-98 -203h-115z" />
    <glyph glyph-name="kcommaaccent" unicode="&#x137;" horiz-adv-x="589" 
d="M60 739h126v-470l191 211h148l-214 -235l238 -245h-148l-215 222v-222h-126v739zM219 -56h131l-98 -203h-115z" />
    <glyph glyph-name="kgreenlandic" unicode="&#x138;" horiz-adv-x="589" 
d="M60 480h121v-228l202 228h142l-214 -240l238 -240h-142l-226 229v-229h-121v480z" />
    <glyph glyph-name="Lacute" unicode="&#x139;" horiz-adv-x="543" 
d="M135 916h133l-86 -174h-116zM60 699h127v-594h336v-105h-463v699z" />
    <glyph glyph-name="lacute" unicode="&#x13a;" horiz-adv-x="246" 
d="M135 939h133l-86 -174h-116zM60 739h126v-739h-126v739z" />
    <glyph glyph-name="Lcommaaccent" unicode="&#x13b;" horiz-adv-x="543" 
d="M60 699h127v-594h336v-105h-463v699zM235 -56h131l-98 -203h-115z" />
    <glyph glyph-name="lcommaaccent" unicode="&#x13c;" horiz-adv-x="271" 
d="M87 739h126v-739h-126v739zM85 -56h131l-98 -203h-115z" />
    <glyph glyph-name="Lcaron" unicode="&#x13d;" horiz-adv-x="543" 
d="M367 707h131l-98 -203h-115zM60 699h127v-594h336v-105h-463v699z" />
    <glyph glyph-name="lcaron" unicode="&#x13e;" horiz-adv-x="473" 
d="M312 753h131l-98 -203h-115zM60 739h126v-739h-126v739z" />
    <glyph glyph-name="Ldot" unicode="&#x13f;" horiz-adv-x="543" 
d="M60 699h127v-594h336v-105h-463v699zM332 340.5q-20 19.5 -20 46.5q0 28 20 47.5t47 19.5t46.5 -19.5t19.5 -47.5t-19.5 -47t-46.5 -19t-47 19.5z" />
    <glyph glyph-name="ldot" unicode="&#x140;" horiz-adv-x="383" 
d="M60 739h126v-739h-126v739zM260 336.5q-20 19.5 -20 46.5q0 28 20 47.5t47 19.5t46.5 -19.5t19.5 -47.5t-19.5 -47t-46.5 -19t-47 19.5z" />
    <glyph glyph-name="Lslash" unicode="&#x141;" horiz-adv-x="587" 
d="M104 283l-94 -42v121l94 42v295h127v-239l155 70v-121l-155 -70v-234h336v-105h-463v283z" />
    <glyph glyph-name="lslash" unicode="&#x142;" horiz-adv-x="396" 
d="M125 277l-115 -51v121l115 51v341h126v-285l135 61v-121l-135 -61v-333h-126v277z" />
    <glyph glyph-name="Nacute" unicode="&#x143;" horiz-adv-x="694" 
d="M347 916h133l-86 -174h-116zM60 699h120l327 -487v487h127v-699h-120l-327 488v-488h-127v699z" />
    <glyph glyph-name="nacute" unicode="&#x144;" horiz-adv-x="610" 
d="M289 709h133l-86 -174h-116zM60 480h122v-65q34 41 81 60.5t99 19.5q97 0 145 -52.5t48 -139.5v-303h-126v291q0 105 -98 105q-43 0 -81 -20.5t-64 -61.5v-314h-126v480z" />
    <glyph glyph-name="Ncommaaccent" unicode="&#x145;" horiz-adv-x="694" 
d="M60 699h120l327 -487v487h127v-699h-120l-327 488v-488h-127v699zM289 -56h131l-98 -203h-115z" />
    <glyph glyph-name="ncommaaccent" unicode="&#x146;" horiz-adv-x="610" 
d="M60 480h122v-65q34 41 81 60.5t99 19.5q97 0 145 -52.5t48 -139.5v-303h-126v291q0 105 -98 105q-43 0 -81 -20.5t-64 -61.5v-314h-126v480zM254 -56h131l-98 -203h-115z" />
    <glyph glyph-name="Ncaron" unicode="&#x147;" horiz-adv-x="694" 
d="M143 913h127l76 -100l76 100h126l-146 -171h-112zM60 699h120l327 -487v487h127v-699h-120l-327 488v-488h-127v699z" />
    <glyph glyph-name="ncaron" unicode="&#x148;" horiz-adv-x="610" 
d="M113 706h127l76 -100l76 100h126l-146 -171h-112zM60 480h122v-65q34 41 81 60.5t99 19.5q97 0 145 -52.5t48 -139.5v-303h-126v291q0 105 -98 105q-43 0 -81 -20.5t-64 -61.5v-314h-126v480z" />
    <glyph glyph-name="napostrophe" unicode="&#x149;" horiz-adv-x="732" 
d="M102 707h131l-98 -203h-115zM182 480h122v-65q34 41 81 60.5t99 19.5q97 0 145 -52.5t48 -139.5v-303h-126v291q0 105 -98 105q-43 0 -81 -20.5t-64 -61.5v-314h-126v480z" />
    <glyph glyph-name="Eng" unicode="&#x14a;" horiz-adv-x="694" 
d="M634 699v-699v-55q0 -87 -50 -131t-135 -44q-48 0 -84 13v102q27 -12 62 -12q41 0 61 20.5t20 64.5v51l-321 479v-488h-127v699h120l327 -487v487h127z" />
    <glyph glyph-name="eng" unicode="&#x14b;" horiz-adv-x="610" 
d="M286 -217v102q27 -12 62 -12q41 0 61 20.5t20 64.5v333q0 105 -98 105q-43 0 -81 -20.5t-64 -61.5v-314h-126v480h122v-65q34 41 81 60.5t99 19.5q97 0 145 -52.5t48 -139.5v-358q0 -87 -50 -131t-135 -44q-48 0 -84 13z" />
    <glyph glyph-name="Omacron" unicode="&#x14c;" horiz-adv-x="821" 
d="M249 836h323v-84h-323v84zM221.5 30.5q-84.5 45.5 -133 128.5t-48.5 190t48.5 190t133 129t189.5 46q104 0 188.5 -46t133 -129t48.5 -190t-48.5 -189.5t-133 -128.5t-188.5 -46q-105 0 -189.5 45.5zM533 130.5q55 30.5 87.5 87t32.5 131.5q0 74 -32 130.5t-87 87.5
t-123 31t-123.5 -31t-87.5 -87.5t-32 -130.5q0 -75 32.5 -131.5t88 -87t122.5 -30.5t122 30.5z" />
    <glyph glyph-name="omacron" unicode="&#x14d;" horiz-adv-x="642" 
d="M160 629h323v-84h-323v84zM173.5 15.5q-63.5 30.5 -98.5 88t-35 136.5q0 77 34.5 134.5t98.5 89t148 31.5t147.5 -31.5t98.5 -89t35 -134.5q0 -79 -35 -136.5t-98.5 -88t-147.5 -30.5t-147.5 30.5zM431 127.5q41 43.5 41 112.5q0 73 -40.5 114.5t-110.5 41.5
t-110.5 -41.5t-40.5 -114.5q0 -69 41 -112.5t110 -43.5t110 43.5z" />
    <glyph glyph-name="Obreve" unicode="&#x14e;" horiz-adv-x="821" 
d="M292 783.5q-43 41.5 -43 109.5h95q0 -33 17 -50t49 -17t49 17t17 50h95q0 -68 -43 -109.5t-118 -41.5t-118 41.5zM221.5 30.5q-84.5 45.5 -133 128.5t-48.5 190t48.5 190t133 129t189.5 46q104 0 188.5 -46t133 -129t48.5 -190t-48.5 -189.5t-133 -128.5t-188.5 -46
q-105 0 -189.5 45.5zM533 130.5q55 30.5 87.5 87t32.5 131.5q0 74 -32 130.5t-87 87.5t-123 31t-123.5 -31t-87.5 -87.5t-32 -130.5q0 -75 32.5 -131.5t88 -87t122.5 -30.5t122 30.5z" />
    <glyph glyph-name="obreve" unicode="&#x14f;" horiz-adv-x="642" 
d="M203 576.5q-43 41.5 -43 109.5h95q0 -33 17 -50t49 -17t49 17t17 50h95q0 -68 -43 -109.5t-118 -41.5t-118 41.5zM173.5 15.5q-63.5 30.5 -98.5 88t-35 136.5q0 77 34.5 134.5t98.5 89t148 31.5t147.5 -31.5t98.5 -89t35 -134.5q0 -79 -35 -136.5t-98.5 -88t-147.5 -30.5
t-147.5 30.5zM431 127.5q41 43.5 41 112.5q0 73 -40.5 114.5t-110.5 41.5t-110.5 -41.5t-40.5 -114.5q0 -69 41 -112.5t110 -43.5t110 43.5z" />
    <glyph glyph-name="Ohungarumlaut" unicode="&#x150;" horiz-adv-x="821" 
d="M304 916h123l-86 -174h-106zM528 916h122l-86 -174h-106zM221.5 30.5q-84.5 45.5 -133 128.5t-48.5 190t48.5 190t133 129t189.5 46q104 0 188.5 -46t133 -129t48.5 -190t-48.5 -189.5t-133 -128.5t-188.5 -46q-105 0 -189.5 45.5zM533 130.5q55 30.5 87.5 87t32.5 131.5
q0 74 -32 130.5t-87 87.5t-123 31t-123.5 -31t-87.5 -87.5t-32 -130.5q0 -75 32.5 -131.5t88 -87t122.5 -30.5t122 30.5z" />
    <glyph glyph-name="ohungarumlaut" unicode="&#x151;" horiz-adv-x="661" 
d="M234 709h123l-86 -174h-106zM458 709h122l-86 -174h-106zM192.5 15.5q-63.5 30.5 -98.5 88t-35 136.5q0 77 34.5 134.5t98.5 89t148 31.5t147.5 -31.5t98.5 -89t35 -134.5q0 -79 -35 -136.5t-98.5 -88t-147.5 -30.5t-147.5 30.5zM450 127.5q41 43.5 41 112.5
q0 73 -40.5 114.5t-110.5 41.5t-110.5 -41.5t-40.5 -114.5q0 -69 41 -112.5t110 -43.5t110 43.5z" />
    <glyph glyph-name="OE" unicode="&#x152;" horiz-adv-x="894" 
d="M226 42q-87 42 -136.5 121t-49.5 186t49.5 186.5t136.5 121.5t197 42h431v-105h-300v-192h211v-105h-211v-192h300v-105h-431q-110 0 -197 42zM427 105v489h-13q-71 0 -127 -30t-87.5 -85.5t-31.5 -129.5q0 -75 31.5 -130t87 -84.5t127.5 -29.5h13z" />
    <glyph glyph-name="oe" unicode="&#x153;" horiz-adv-x="1029" 
d="M598 191q-4 -24 -8 -35q35 -72 176 -72q46 0 94 8t84 22v-97q-34 -14 -87.5 -23t-106.5 -9q-141 0 -219 73q-37 -35 -90.5 -54t-119.5 -19q-84 0 -147.5 30.5t-98.5 88t-35 136.5q0 77 34.5 134.5t98.5 89t148 31.5q64 0 116.5 -18.5t89.5 -52.5q71 71 199 71
q84 0 143.5 -32t89.5 -87.5t30 -126.5v-58h-391zM412.5 111.5q37.5 27.5 51.5 74.5q-4 23 -4 53q0 27 5 57q-14 48 -51.5 74t-92.5 26q-70 0 -110.5 -41.5t-40.5 -114.5q0 -69 41 -112.5t110 -43.5q54 0 91.5 27.5zM638.5 377q-34.5 -19 -48.5 -54q8 -30 10 -46h270
q-2 57 -40.5 88t-105.5 31q-51 0 -85.5 -19z" />
    <glyph glyph-name="Racute" unicode="&#x154;" horiz-adv-x="634" 
d="M288 916h133l-86 -174h-116zM60 699h292q116 0 179 -57t63 -165q0 -77 -38 -131t-108 -77l142 -269h-130l-135 256h-138v-256h-127v699zM329 361q62 0 100 29t38 87q0 117 -138 117h-142v-233h142z" />
    <glyph glyph-name="racute" unicode="&#x155;" horiz-adv-x="407" 
d="M135 709h133l-86 -174h-116zM60 480h122v-77q29 39 82.5 58t122.5 19v-96q-73 0 -126.5 -22.5t-74.5 -70.5v-291h-126v480z" />
    <glyph glyph-name="Rcommaaccent" unicode="&#x156;" horiz-adv-x="634" 
d="M60 699h292q116 0 179 -57t63 -165q0 -77 -38 -131t-108 -77l142 -269h-130l-135 256h-138v-256h-127v699zM329 361q62 0 100 29t38 87q0 117 -138 117h-142v-233h142zM246 -56h131l-98 -203h-115z" />
    <glyph glyph-name="rcommaaccent" unicode="&#x157;" horiz-adv-x="407" 
d="M60 480h122v-77q29 39 82.5 58t122.5 19v-96q-73 0 -126.5 -22.5t-74.5 -70.5v-291h-126v480zM56 -56h131l-98 -203h-115z" />
    <glyph glyph-name="Rcaron" unicode="&#x158;" horiz-adv-x="634" 
d="M68 913h127l76 -100l76 100h126l-146 -171h-112zM60 699h292q116 0 179 -57t63 -165q0 -77 -38 -131t-108 -77l142 -269h-130l-135 256h-138v-256h-127v699zM329 361q62 0 100 29t38 87q0 117 -138 117h-142v-233h142z" />
    <glyph glyph-name="rcaron" unicode="&#x159;" horiz-adv-x="490" 
d="M19 706h127l76 -100l76 100h126l-146 -171h-112zM143 480h122v-77q29 39 82.5 58t122.5 19v-96q-73 0 -126.5 -22.5t-74.5 -70.5v-291h-126v480z" />
    <glyph glyph-name="Sacute" unicode="&#x15a;" horiz-adv-x="567" 
d="M289 916h133l-86 -174h-116zM139.5 -3.5q-60.5 11.5 -99.5 30.5v109q50 -24 105 -36t108 -12q67 0 102 25t35 69q0 31 -16 51.5t-47 36t-95 40.5q-98 40 -142 89t-44 122q0 57 31 101t87 68t129 24q60 0 106.5 -9.5t91.5 -29.5v-106q-87 42 -176 42q-64 0 -99 -23.5
t-35 -66.5q0 -31 16 -50.5t42.5 -33t95.5 -42.5q70 -29 110.5 -57t61 -65.5t20.5 -91.5q0 -93 -67 -144.5t-198 -51.5q-62 0 -122.5 11.5z" />
    <glyph glyph-name="sacute" unicode="&#x15b;" horiz-adv-x="499" 
d="M233 709h133l-86 -174h-116zM136 -3q-59 12 -92 33v107q39 -24 93 -38.5t102 -14.5t70 8.5t22 31.5q0 18 -11.5 29.5t-37 21t-78.5 23.5q-60 17 -94.5 35t-52 45.5t-17.5 71.5q0 72 57 108.5t154 36.5q50 0 99.5 -9.5t77.5 -26.5v-103q-30 18 -73 29t-88 11
q-49 0 -74 -9.5t-25 -36.5q0 -18 13.5 -28.5t35.5 -18t80 -22.5q62 -17 97 -37t50 -48t15 -70q0 -64 -54.5 -102.5t-157.5 -38.5q-52 0 -111 12z" />
    <glyph glyph-name="Scircumflex" unicode="&#x15c;" horiz-adv-x="567" 
d="M221 913h112l146 -171h-126l-76 99l-76 -99h-127zM139.5 -3.5q-60.5 11.5 -99.5 30.5v109q50 -24 105 -36t108 -12q67 0 102 25t35 69q0 31 -16 51.5t-47 36t-95 40.5q-98 40 -142 89t-44 122q0 57 31 101t87 68t129 24q60 0 106.5 -9.5t91.5 -29.5v-106q-87 42 -176 42
q-64 0 -99 -23.5t-35 -66.5q0 -31 16 -50.5t42.5 -33t95.5 -42.5q70 -29 110.5 -57t61 -65.5t20.5 -91.5q0 -93 -67 -144.5t-198 -51.5q-62 0 -122.5 11.5z" />
    <glyph glyph-name="scircumflex" unicode="&#x15d;" horiz-adv-x="499" 
d="M195 706h112l146 -171h-126l-76 99l-76 -99h-127zM136 -3q-59 12 -92 33v107q39 -24 93 -38.5t102 -14.5t70 8.5t22 31.5q0 18 -11.5 29.5t-37 21t-78.5 23.5q-60 17 -94.5 35t-52 45.5t-17.5 71.5q0 72 57 108.5t154 36.5q50 0 99.5 -9.5t77.5 -26.5v-103q-30 18 -73 29
t-88 11q-49 0 -74 -9.5t-25 -36.5q0 -18 13.5 -28.5t35.5 -18t80 -22.5q62 -17 97 -37t50 -48t15 -70q0 -64 -54.5 -102.5t-157.5 -38.5q-52 0 -111 12z" />
    <glyph glyph-name="Scedilla" unicode="&#x15e;" horiz-adv-x="567" 
d="M474 48.5q-53 -50.5 -158 -60.5l-15 -40q43 -5 66.5 -31.5t23.5 -66.5q0 -47 -39 -72.5t-105 -25.5q-27 0 -52 3.5t-39 8.5l1 69q11 -5 27 -8.5t31 -3.5q59 0 59 41q0 24 -23.5 38.5t-75.5 14.5l28 73q-48 4 -90.5 14t-72.5 25v109q50 -24 105 -36t108 -12q67 0 102 25
t35 69q0 31 -16 51.5t-47 36t-95 40.5q-98 40 -142 89t-44 122q0 57 31 101t87 68t129 24q60 0 106.5 -9.5t91.5 -29.5v-106q-87 42 -176 42q-64 0 -99 -23.5t-35 -66.5q0 -31 16 -50.5t42.5 -33t95.5 -42.5q70 -29 110.5 -57t61 -65.5t20.5 -91.5q0 -82 -53 -132.5z" />
    <glyph glyph-name="scedilla" unicode="&#x15f;" horiz-adv-x="499" 
d="M414.5 30.5q-44.5 -37.5 -130.5 -44.5l-15 -38q43 -5 66.5 -31.5t23.5 -66.5q0 -47 -39 -72.5t-105 -25.5q-27 0 -52 3.5t-39 8.5l1 69q11 -5 27 -8.5t31 -3.5q59 0 59 41q0 24 -23.5 38.5t-75.5 14.5l29 76q-84 12 -128 39v107q39 -24 93 -38.5t102 -14.5t70 8.5
t22 31.5q0 18 -11.5 29.5t-37 21t-78.5 23.5q-60 17 -94.5 35t-52 45.5t-17.5 71.5q0 72 57 108.5t154 36.5q50 0 99.5 -9.5t77.5 -26.5v-103q-30 18 -73 29t-88 11q-49 0 -74 -9.5t-25 -36.5q0 -18 13.5 -28.5t35.5 -18t80 -22.5q62 -17 97 -37t50 -48t15 -70
q0 -58 -44.5 -95.5z" />
    <glyph glyph-name="Scaron" unicode="&#x160;" horiz-adv-x="567" 
d="M88 913h127l76 -100l76 100h126l-146 -171h-112zM139.5 -3.5q-60.5 11.5 -99.5 30.5v109q50 -24 105 -36t108 -12q67 0 102 25t35 69q0 31 -16 51.5t-47 36t-95 40.5q-98 40 -142 89t-44 122q0 57 31 101t87 68t129 24q60 0 106.5 -9.5t91.5 -29.5v-106q-87 42 -176 42
q-64 0 -99 -23.5t-35 -66.5q0 -31 16 -50.5t42.5 -33t95.5 -42.5q70 -29 110.5 -57t61 -65.5t20.5 -91.5q0 -93 -67 -144.5t-198 -51.5q-62 0 -122.5 11.5z" />
    <glyph glyph-name="scaron" unicode="&#x161;" horiz-adv-x="499" 
d="M44 706h127l76 -100l76 100h126l-146 -171h-112zM136 -3q-59 12 -92 33v107q39 -24 93 -38.5t102 -14.5t70 8.5t22 31.5q0 18 -11.5 29.5t-37 21t-78.5 23.5q-60 17 -94.5 35t-52 45.5t-17.5 71.5q0 72 57 108.5t154 36.5q50 0 99.5 -9.5t77.5 -26.5v-103q-30 18 -73 29
t-88 11q-49 0 -74 -9.5t-25 -36.5q0 -18 13.5 -28.5t35.5 -18t80 -22.5q62 -17 97 -37t50 -48t15 -70q0 -64 -54.5 -102.5t-157.5 -38.5q-52 0 -111 12z" />
    <glyph glyph-name="uni0162" unicode="&#x162;" horiz-adv-x="589" 
d="M352 0l-20 -52q43 -5 66.5 -31.5t23.5 -66.5q0 -47 -39 -72.5t-105 -25.5q-27 0 -52 3.5t-39 8.5l1 69q11 -5 27 -8.5t31 -3.5q59 0 59 41q0 24 -23.5 38.5t-75.5 14.5l33 85h-8v594h-211v105h549v-105h-211v-594h-6z" />
    <glyph glyph-name="uni0163" unicode="&#x163;" horiz-adv-x="395" 
d="M341.5 -83.5q23.5 -26.5 23.5 -66.5q0 -47 -39 -72.5t-105 -25.5q-27 0 -52 3.5t-39 8.5l1 69q11 -5 27 -8.5t31 -3.5q59 0 59 41q0 24 -23.5 38.5t-75.5 14.5l32 82q-44 17 -66.5 56.5t-22.5 99.5v231h-72v96h72v144h126v-144h115v-96h-115v-215q0 -46 17 -65.5
t62 -19.5q31 0 61 14v-96q-29 -12 -68 -16l-15 -38q43 -5 66.5 -31.5z" />
    <glyph glyph-name="Tcaron" unicode="&#x164;" horiz-adv-x="589" 
d="M92 913h127l76 -100l76 100h126l-146 -171h-112zM231 594h-211v105h549v-105h-211v-594h-127v594z" />
    <glyph glyph-name="tcaron" unicode="&#x165;" horiz-adv-x="491" 
d="M350 788h131l-98 -203h-115zM133 29q-41 44 -41 124v231h-72v96h72v144h126v-144h115v-96h-115v-215q0 -46 17 -65.5t62 -19.5q31 0 61 14v-96q-43 -17 -105 -17q-79 0 -120 44z" />
    <glyph glyph-name="Tbar" unicode="&#x166;" horiz-adv-x="589" 
d="M228 279h-118v107h118v201h-208v112h549v-112h-208v-201h119v-107h-119v-279h-133v279z" />
    <glyph glyph-name="tbar" unicode="&#x167;" horiz-adv-x="389" 
d="M134.5 29q-41.5 44 -41.5 124v70h-73v71h73v100h-72v86h72v144h126v-144h116v-86h-116v-100h115v-71h-115v-54q0 -45 19 -65t61 -20q32 0 60 14v-96q-43 -17 -105 -17q-78 0 -119.5 44z" />
    <glyph glyph-name="Utilde" unicode="&#x168;" horiz-adv-x="707" 
d="M164 845q32 43 100 43q22 0 43 -6t54 -19q28 -12 49 -18.5t43 -6.5q62 0 100 51v-103q-31 -42 -100 -42q-25 0 -48 6.5t-53 19.5q-30 12 -48.5 18t-39.5 6q-29 0 -53.5 -12t-46.5 -40v103zM130.5 62.5q-75.5 77.5 -75.5 209.5v427h127v-429q0 -83 46.5 -126.5
t125.5 -43.5q78 0 124.5 43.5t46.5 126.5v429h127v-427q0 -132 -75 -209.5t-223 -77.5t-223.5 77.5z" />
    <glyph glyph-name="utilde" unicode="&#x169;" horiz-adv-x="610" 
d="M113 638q32 43 100 43q22 0 43 -6t54 -19q28 -12 49 -18.5t43 -6.5q62 0 100 51v-103q-31 -42 -100 -42q-25 0 -48 6.5t-53 19.5q-30 12 -48.5 18t-39.5 6q-29 0 -53.5 -12t-46.5 -40v103zM103 37.5q-48 52.5 -48 139.5v303h126v-291q0 -105 98 -105q43 0 81 20.5
t64 61.5v314h126v-480h-122v65q-34 -41 -81 -60.5t-99 -19.5q-97 0 -145 52.5z" />
    <glyph glyph-name="Umacron" unicode="&#x16a;" horiz-adv-x="707" 
d="M192 836h323v-84h-323v84zM130.5 62.5q-75.5 77.5 -75.5 209.5v427h127v-429q0 -83 46.5 -126.5t125.5 -43.5q78 0 124.5 43.5t46.5 126.5v429h127v-427q0 -132 -75 -209.5t-223 -77.5t-223.5 77.5z" />
    <glyph glyph-name="umacron" unicode="&#x16b;" horiz-adv-x="610" 
d="M140 629h323v-84h-323v84zM103 37.5q-48 52.5 -48 139.5v303h126v-291q0 -105 98 -105q43 0 81 20.5t64 61.5v314h126v-480h-122v65q-34 -41 -81 -60.5t-99 -19.5q-97 0 -145 52.5z" />
    <glyph glyph-name="Ubreve" unicode="&#x16c;" horiz-adv-x="707" 
d="M235 783.5q-43 41.5 -43 109.5h95q0 -33 17 -50t49 -17t49 17t17 50h95q0 -68 -43 -109.5t-118 -41.5t-118 41.5zM130.5 62.5q-75.5 77.5 -75.5 209.5v427h127v-429q0 -83 46.5 -126.5t125.5 -43.5q78 0 124.5 43.5t46.5 126.5v429h127v-427q0 -132 -75 -209.5
t-223 -77.5t-223.5 77.5z" />
    <glyph glyph-name="ubreve" unicode="&#x16d;" horiz-adv-x="610" 
d="M183 576.5q-43 41.5 -43 109.5h95q0 -33 17 -50t49 -17t49 17t17 50h95q0 -68 -43 -109.5t-118 -41.5t-118 41.5zM103 37.5q-48 52.5 -48 139.5v303h126v-291q0 -105 98 -105q43 0 81 20.5t64 61.5v314h126v-480h-122v65q-34 -41 -81 -60.5t-99 -19.5q-97 0 -145 52.5z
" />
    <glyph glyph-name="Uring" unicode="&#x16e;" horiz-adv-x="707" 
d="M265 778q-36 36 -36 88t36 88.5t88 36.5t88.5 -36.5t36.5 -88.5t-36.5 -88t-88.5 -36t-88 36zM389 830q15 15 15 36t-15 36t-36 15t-36 -15t-15 -36t15 -36t36 -15t36 15zM130.5 62.5q-75.5 77.5 -75.5 209.5v427h127v-429q0 -83 46.5 -126.5t125.5 -43.5
q78 0 124.5 43.5t46.5 126.5v429h127v-427q0 -132 -75 -209.5t-223 -77.5t-223.5 77.5z" />
    <glyph glyph-name="uring" unicode="&#x16f;" horiz-adv-x="610" 
d="M213 571q-36 36 -36 88t36 88.5t88 36.5t88.5 -36.5t36.5 -88.5t-36.5 -88t-88.5 -36t-88 36zM337 623q15 15 15 36t-15 36t-36 15t-36 -15t-15 -36t15 -36t36 -15t36 15zM103 37.5q-48 52.5 -48 139.5v303h126v-291q0 -105 98 -105q43 0 81 20.5t64 61.5v314h126v-480
h-122v65q-34 -41 -81 -60.5t-99 -19.5q-97 0 -145 52.5z" />
    <glyph glyph-name="Uhungarumlaut" unicode="&#x170;" horiz-adv-x="707" 
d="M254 916h123l-86 -174h-106zM478 916h122l-86 -174h-106zM130.5 62.5q-75.5 77.5 -75.5 209.5v427h127v-429q0 -83 46.5 -126.5t125.5 -43.5q78 0 124.5 43.5t46.5 126.5v429h127v-427q0 -132 -75 -209.5t-223 -77.5t-223.5 77.5z" />
    <glyph glyph-name="uhungarumlaut" unicode="&#x171;" horiz-adv-x="610" 
d="M196 709h123l-86 -174h-106zM420 709h122l-86 -174h-106zM103 37.5q-48 52.5 -48 139.5v303h126v-291q0 -105 98 -105q43 0 81 20.5t64 61.5v314h126v-480h-122v65q-34 -41 -81 -60.5t-99 -19.5q-97 0 -145 52.5z" />
    <glyph glyph-name="Uogonek" unicode="&#x172;" horiz-adv-x="707" 
d="M652 699v-427q0 -119 -61.5 -194.5t-182.5 -89.5q-31 -21 -45.5 -42t-14.5 -45q0 -19 11.5 -29.5t29.5 -10.5q26 0 48 11v-72q-34 -13 -87 -13q-50 0 -81 23.5t-31 68.5q0 65 57 110q-119 15 -179.5 90t-60.5 193v427h127v-429q0 -83 46.5 -126.5t125.5 -43.5
q78 0 124.5 43.5t46.5 126.5v429h127z" />
    <glyph glyph-name="uogonek" unicode="&#x173;" horiz-adv-x="615" 
d="M555 -128v-72q-34 -13 -87 -13q-50 0 -81 23.5t-31 68.5q0 38 20 69t53 52h-1v65q-34 -41 -81 -60.5t-99 -19.5q-97 0 -145 52.5t-48 139.5v303h126v-291q0 -105 98 -105q43 0 81 20.5t64 61.5v314h126v-480h-5q-40 -24 -59.5 -47.5t-19.5 -51.5q0 -19 11.5 -29.5
t29.5 -10.5q26 0 48 11z" />
    <glyph glyph-name="Wcircumflex" unicode="&#x174;" horiz-adv-x="1006" 
d="M448 913h112l146 -171h-126l-76 99l-76 -99h-127zM46 699h132l139 -494l137 494h98l137 -494l139 494h132l-199 -699h-118l-140 486l-140 -486h-118z" />
    <glyph glyph-name="wcircumflex" unicode="&#x175;" horiz-adv-x="830" 
d="M360 706h112l146 -171h-126l-76 99l-76 -99h-127zM40 480h126l98 -325l96 325h110l96 -325l98 325h126l-157 -480h-116l-102 326l-102 -326h-116z" />
    <glyph glyph-name="Ycircumflex" unicode="&#x176;" horiz-adv-x="726" 
d="M306 913h112l146 -171h-126l-76 99l-76 -99h-127zM300 266l-254 433h135l180 -311l185 311h134l-259 -433v-266h-121v266z" />
    <glyph glyph-name="ycircumflex" unicode="&#x177;" horiz-adv-x="600" 
d="M261 706h112l146 -171h-126l-76 99l-76 -99h-127zM120.5 -194.5q-28.5 3.5 -44.5 9.5v96q25 -10 62 -10q38 0 57 17t33 54l19 50l-207 458h127l148 -350l139 350h126l-210 -523q-32 -79 -77.5 -117t-117.5 -38q-26 0 -54.5 3.5z" />
    <glyph glyph-name="Ydieresis" unicode="&#x178;" horiz-adv-x="726" 
d="M196 771.5q-20 19.5 -20 46.5q0 28 20 47.5t47 19.5t46.5 -19.5t19.5 -47.5t-19.5 -47t-46.5 -19t-47 19.5zM433 771.5q-20 19.5 -20 46.5q0 28 20 47.5t47 19.5t46.5 -19.5t19.5 -47.5t-19.5 -47t-46.5 -19t-47 19.5zM300 266l-254 433h135l180 -311l185 311h134
l-259 -433v-266h-121v266z" />
    <glyph glyph-name="Zacute" unicode="&#x179;" horiz-adv-x="619" 
d="M300 916h133l-86 -174h-116zM40 83l366 511h-357v105h512v-83l-365 -511h383v-105h-539v83z" />
    <glyph glyph-name="zacute" unicode="&#x17a;" horiz-adv-x="501" 
d="M248 709h133l-86 -174h-116zM40 79l255 305h-248v96h406v-79l-254 -305h262v-96h-421v79z" />
    <glyph glyph-name="Zdotaccent" unicode="&#x17b;" horiz-adv-x="619" 
d="M252 771.5q-20 19.5 -20 46.5q0 28 20 47.5t47 19.5t46.5 -19.5t19.5 -47.5t-19.5 -47t-46.5 -19t-47 19.5zM40 83l366 511h-357v105h512v-83l-365 -511h383v-105h-539v83z" />
    <glyph glyph-name="zdotaccent" unicode="&#x17c;" horiz-adv-x="501" 
d="M204 564.5q-20 19.5 -20 46.5q0 28 20 47.5t47 19.5t46.5 -19.5t19.5 -47.5t-19.5 -47t-46.5 -19t-47 19.5zM40 79l255 305h-248v96h406v-79l-254 -305h262v-96h-421v79z" />
    <glyph glyph-name="Zcaron" unicode="&#x17d;" horiz-adv-x="619" 
d="M103 913h127l76 -100l76 100h126l-146 -171h-112zM40 83l366 511h-357v105h512v-83l-365 -511h383v-105h-539v83z" />
    <glyph glyph-name="zcaron" unicode="&#x17e;" horiz-adv-x="501" 
d="M53 706h127l76 -100l76 100h126l-146 -171h-112zM40 79l255 305h-248v96h406v-79l-254 -305h262v-96h-421v79z" />
    <glyph glyph-name="uni018F" unicode="&#x18f;" horiz-adv-x="826" 
d="M207.5 30.5q-83.5 45.5 -125.5 124.5t-42 180v60h611q-10 99 -88 156.5t-205 57.5q-65 0 -134 -12t-119 -32v103q49 20 123 33t148 13q129 0 221 -42.5t140.5 -124t48.5 -196.5q0 -111 -43 -193.5t-127.5 -127.5t-204.5 -45t-203.5 45.5zM585.5 145q60.5 58 66.5 155
h-490q5 -97 66 -155t180 -58q117 0 177.5 58z" />
    <glyph glyph-name="florin" unicode="&#x192;" horiz-adv-x="525" 
d="M-95 -216l19 102q26 -13 59 -13q47 0 71.5 21t34.5 66l91 434h-77l16 86h80l17 83q39 181 224 181q54 0 85 -14l-19 -102q-24 12 -61 12q-43 0 -68.5 -19.5t-35.5 -66.5l-16 -74h128l-16 -86h-130l-94 -443q-20 -95 -74.5 -138t-149.5 -43q-51 0 -84 14z" />
    <glyph glyph-name="Ohorn" unicode="&#x1a0;" horiz-adv-x="872" 
d="M221.5 30.5q-84.5 45.5 -133 128.5t-48.5 190t48.5 190t133 129t189.5 46q72 0 136 -23t113 -65q49 1 67 19t18 67v35h117v-42q0 -62 -34 -109.5t-92 -63.5q45 -81 45 -183q0 -107 -48.5 -189.5t-133 -128.5t-188.5 -46q-105 0 -189.5 45.5zM530 136q54 30 85.5 85
t31.5 128q0 72 -31 127.5t-85 85.5t-120 30t-120.5 -30t-85.5 -85.5t-31 -127.5q0 -73 31.5 -128t85.5 -85t120 -30q65 0 119 30z" />
    <glyph glyph-name="ohorn" unicode="&#x1a1;" horiz-adv-x="690" 
d="M173.5 15.5q-63.5 30.5 -98.5 88t-35 136.5q0 77 34.5 134.5t98.5 89t148 31.5q113 0 189 -57q68 12 68 85v35h102v-42q0 -53 -28.5 -94t-78.5 -59q29 -56 29 -123q0 -79 -35 -136.5t-98.5 -88t-147.5 -30.5t-147.5 30.5zM431 127.5q41 43.5 41 112.5q0 73 -40.5 114.5
t-110.5 41.5t-110.5 -41.5t-40.5 -114.5q0 -69 41 -112.5t110 -43.5t110 43.5z" />
    <glyph glyph-name="Uhorn" unicode="&#x1af;" horiz-adv-x="862" 
d="M130.5 62.5q-75.5 77.5 -75.5 209.5v427h133v-429q0 -83 43.5 -123.5t122.5 -40.5q78 0 121.5 41t43.5 123v429h133v-74q49 0 66 19t17 68v35h117v-42q0 -80 -49 -129t-151 -50v-254q0 -132 -75 -209.5t-223 -77.5t-223.5 77.5z" />
    <glyph glyph-name="uhorn" unicode="&#x1b0;" horiz-adv-x="738" 
d="M103 37.5q-48 52.5 -48 139.5v303h126v-291q0 -105 98 -105q43 0 81 20.5t64 61.5v314h126v-45q38 4 57 25.5t19 58.5v39h102v-42q0 -69 -46.5 -114.5t-131.5 -49.5v-352h-122v65q-34 -41 -81 -60.5t-99 -19.5q-97 0 -145 52.5z" />
    <glyph glyph-name="uni01CD" unicode="&#x1cd;" horiz-adv-x="762" 
d="M179 913h127l76 -100l76 100h126l-146 -171h-112zM320 699h123l279 -699h-129l-64 161h-296l-63 -161h-130zM494 266l-113 297l-113 -297h226z" />
    <glyph glyph-name="uni01CE" unicode="&#x1ce;" horiz-adv-x="577" 
d="M108 706h127l76 -100l76 100h126l-146 -171h-112zM95 30.5q-55 45.5 -55 122.5q0 80 52 125t146 45q91 0 157 -37v13q0 51 -31.5 74t-101.5 23q-44 0 -87 -8.5t-76 -23.5v99q30 14 80.5 23t97.5 9q125 0 185 -53.5t60 -148.5v-293h-119v47q-31 -30 -70.5 -46t-96.5 -16
q-86 0 -141 45.5zM343 93.5q34 16.5 52 45.5v53q-55 39 -126 39q-101 0 -101 -78q0 -38 25.5 -57t73.5 -19q42 0 76 16.5z" />
    <glyph glyph-name="uni01CF" unicode="&#x1cf;" horiz-adv-x="247" 
d="M-78 935h127l76 -100l76 100h126l-146 -171h-112zM60 699h127v-699h-127v699z" />
    <glyph glyph-name="uni01D0" unicode="&#x1d0;" horiz-adv-x="248" 
d="M-78 706h127l76 -100l76 100h126l-146 -171h-112zM60 480h128v-480h-128v480z" />
    <glyph glyph-name="uni01D1" unicode="&#x1d1;" horiz-adv-x="821" 
d="M207 913h127l76 -100l76 100h126l-146 -171h-112zM221.5 30.5q-84.5 45.5 -133 128.5t-48.5 190t48.5 190t133 129t189.5 46q104 0 188.5 -46t133 -129t48.5 -190t-48.5 -189.5t-133 -128.5t-188.5 -46q-105 0 -189.5 45.5zM533 130.5q55 30.5 87.5 87t32.5 131.5
q0 74 -32 130.5t-87 87.5t-123 31t-123.5 -31t-87.5 -87.5t-32 -130.5q0 -75 32.5 -131.5t88 -87t122.5 -30.5t122 30.5z" />
    <glyph glyph-name="uni01D2" unicode="&#x1d2;" horiz-adv-x="678" 
d="M155 706h127l76 -100l76 100h126l-146 -171h-112zM209.5 15.5q-63.5 30.5 -98.5 88t-35 136.5q0 77 34.5 134.5t98.5 89t148 31.5t147.5 -31.5t98.5 -89t35 -134.5q0 -79 -35 -136.5t-98.5 -88t-147.5 -30.5t-147.5 30.5zM467 127.5q41 43.5 41 112.5q0 73 -40.5 114.5
t-110.5 41.5t-110.5 -41.5t-40.5 -114.5q0 -69 41 -112.5t110 -43.5t110 43.5z" />
    <glyph glyph-name="uni01D3" unicode="&#x1d3;" horiz-adv-x="707" 
d="M151 913h127l76 -100l76 100h126l-146 -171h-112zM130.5 62.5q-75.5 77.5 -75.5 209.5v427h127v-429q0 -83 46.5 -126.5t125.5 -43.5q78 0 124.5 43.5t46.5 126.5v429h127v-427q0 -132 -75 -209.5t-223 -77.5t-223.5 77.5z" />
    <glyph glyph-name="uni01D4" unicode="&#x1d4;" horiz-adv-x="610" 
d="M100 706h127l76 -100l76 100h126l-146 -171h-112zM103 37.5q-48 52.5 -48 139.5v303h126v-291q0 -105 98 -105q43 0 81 20.5t64 61.5v314h126v-480h-122v65q-34 -41 -81 -60.5t-99 -19.5q-97 0 -145 52.5z" />
    <glyph glyph-name="uni01D5" unicode="&#x1d5;" horiz-adv-x="707" 
d="M192 1013h323v-84h-323v84zM188 771.5q-20 19.5 -20 46.5q0 28 20 47.5t47 19.5t46.5 -19.5t19.5 -47.5t-19.5 -47t-46.5 -19t-47 19.5zM425 771.5q-20 19.5 -20 46.5q0 28 20 47.5t47 19.5t46.5 -19.5t19.5 -47.5t-19.5 -47t-46.5 -19t-47 19.5zM130.5 62.5
q-75.5 77.5 -75.5 209.5v427h127v-429q0 -83 46.5 -126.5t125.5 -43.5q78 0 124.5 43.5t46.5 126.5v429h127v-427q0 -132 -75 -209.5t-223 -77.5t-223.5 77.5z" />
    <glyph glyph-name="uni01D6" unicode="&#x1d6;" horiz-adv-x="610" 
d="M142 808h323v-84h-323v84zM138 564.5q-20 19.5 -20 46.5q0 28 20 47.5t47 19.5t46.5 -19.5t19.5 -47.5t-19.5 -47t-46.5 -19t-47 19.5zM375 564.5q-20 19.5 -20 46.5q0 28 20 47.5t47 19.5t46.5 -19.5t19.5 -47.5t-19.5 -47t-46.5 -19t-47 19.5zM103 37.5
q-48 52.5 -48 139.5v303h126v-291q0 -105 98 -105q43 0 81 20.5t64 61.5v314h126v-480h-122v65q-34 -41 -81 -60.5t-99 -19.5q-97 0 -145 52.5z" />
    <glyph glyph-name="uni01D7" unicode="&#x1d7;" horiz-adv-x="707" 
d="M364 992h117l-77 -128h-101zM180 771.5q-20 19.5 -20 46.5q0 28 20 47.5t47 19.5t46.5 -19.5t19.5 -47.5t-19.5 -47t-46.5 -19t-47 19.5zM437 771.5q-20 19.5 -20 46.5q0 28 20 47.5t47 19.5t46.5 -19.5t19.5 -47.5t-19.5 -47t-46.5 -19t-47 19.5zM130.5 62.5
q-75.5 77.5 -75.5 209.5v427h127v-429q0 -83 46.5 -126.5t125.5 -43.5q78 0 124.5 43.5t46.5 126.5v429h127v-427q0 -132 -75 -209.5t-223 -77.5t-223.5 77.5z" />
    <glyph glyph-name="uni01D8" unicode="&#x1d8;" horiz-adv-x="610" 
d="M305 785h117l-77 -128h-101zM121 564.5q-20 19.5 -20 46.5q0 28 20 47.5t47 19.5t46.5 -19.5t19.5 -47.5t-19.5 -47t-46.5 -19t-47 19.5zM378 564.5q-20 19.5 -20 46.5q0 28 20 47.5t47 19.5t46.5 -19.5t19.5 -47.5t-19.5 -47t-46.5 -19t-47 19.5zM103 37.5
q-48 52.5 -48 139.5v303h126v-291q0 -105 98 -105q43 0 81 20.5t64 61.5v314h126v-480h-122v65q-34 -41 -81 -60.5t-99 -19.5q-97 0 -145 52.5z" />
    <glyph glyph-name="uni01D9" unicode="&#x1d9;" horiz-adv-x="707" 
d="M183 1000h106l64 -75l64 75h107l-124 -136h-94zM177.5 771q-19.5 19 -19.5 47t19.5 47.5t46.5 19.5t47 -19.5t20 -47.5q0 -27 -20 -46.5t-47 -19.5t-46.5 19zM434.5 771q-19.5 19 -19.5 47t19.5 47.5t46.5 19.5t47 -19.5t20 -47.5q0 -27 -20 -46.5t-47 -19.5t-46.5 19z
M130.5 62.5q-75.5 77.5 -75.5 209.5v427h127v-429q0 -83 46.5 -126.5t125.5 -43.5q78 0 124.5 43.5t46.5 126.5v429h127v-427q0 -132 -75 -209.5t-223 -77.5t-223.5 77.5z" />
    <glyph glyph-name="uni01DA" unicode="&#x1da;" horiz-adv-x="610" 
d="M121 793h106l64 -75l64 75h107l-124 -136h-94zM115.5 564q-19.5 19 -19.5 47t19.5 47.5t46.5 19.5t47 -19.5t20 -47.5q0 -27 -20 -46.5t-47 -19.5t-46.5 19zM372.5 564q-19.5 19 -19.5 47t19.5 47.5t46.5 19.5t47 -19.5t20 -47.5q0 -27 -20 -46.5t-47 -19.5t-46.5 19z
M103 37.5q-48 52.5 -48 139.5v303h126v-291q0 -105 98 -105q43 0 81 20.5t64 61.5v314h126v-480h-122v65q-34 -41 -81 -60.5t-99 -19.5q-97 0 -145 52.5z" />
    <glyph glyph-name="uni01DB" unicode="&#x1db;" horiz-adv-x="707" 
d="M230 992h117l61 -128h-101zM180.5 771q-19.5 19 -19.5 47t19.5 47.5t46.5 19.5t47 -19.5t20 -47.5q0 -27 -20 -46.5t-47 -19.5t-46.5 19zM437.5 771q-19.5 19 -19.5 47t19.5 47.5t46.5 19.5t47 -19.5t20 -47.5q0 -27 -20 -46.5t-47 -19.5t-46.5 19zM130.5 62.5
q-75.5 77.5 -75.5 209.5v427h127v-429q0 -83 46.5 -126.5t125.5 -43.5q78 0 124.5 43.5t46.5 126.5v429h127v-427q0 -132 -75 -209.5t-223 -77.5t-223.5 77.5z" />
    <glyph glyph-name="uni01DC" unicode="&#x1dc;" horiz-adv-x="610" 
d="M175 785h117l61 -128h-101zM125.5 564q-19.5 19 -19.5 47t19.5 47.5t46.5 19.5t47 -19.5t20 -47.5q0 -27 -20 -46.5t-47 -19.5t-46.5 19zM382.5 564q-19.5 19 -19.5 47t19.5 47.5t46.5 19.5t47 -19.5t20 -47.5q0 -27 -20 -46.5t-47 -19.5t-46.5 19zM103 37.5
q-48 52.5 -48 139.5v303h126v-291q0 -105 98 -105q43 0 81 20.5t64 61.5v314h126v-480h-122v65q-34 -41 -81 -60.5t-99 -19.5q-97 0 -145 52.5z" />
    <glyph glyph-name="Gcaron" unicode="&#x1e6;" horiz-adv-x="713" 
d="M196 913h127l76 -100l76 100h126l-146 -171h-112zM219 29.5q-85 44.5 -132 127t-47 192.5t47 192.5t132 127.5t195 45q75 0 134 -16t107 -51v-121q-44 38 -101 55t-129 17t-130.5 -30.5t-92.5 -87t-34 -131.5q0 -76 32 -132.5t89 -87t130 -30.5q77 0 127 26v157h-118v101
h245v-326q-93 -72 -259 -72q-110 0 -195 44.5z" />
    <glyph glyph-name="gcaron" unicode="&#x1e7;" horiz-adv-x="665" 
d="M120 706h127l76 -100l76 100h126l-146 -171h-112zM218 -221q-48 9 -80 24v100q78 -34 176 -34q88 0 126.5 37t38.5 110v31q-34 -31 -81 -46.5t-101 -15.5q-73 0 -132 32.5t-92 90.5t-33 133q0 76 32.5 133.5t90 89t130.5 31.5q61 0 105 -16.5t85 -54.5v56h122v-451
q0 -124 -71.5 -191.5t-219.5 -67.5q-48 0 -96 9zM420.5 113.5q42.5 29.5 58.5 78.5v97q-17 49 -59 78t-96 29q-68 0 -112 -43t-44 -112t44 -113t112 -44q54 0 96.5 29.5z" />
    <glyph glyph-name="Aringacute" unicode="&#x1fa;" horiz-adv-x="762" 
d="M439 919h-116l69 139h133zM722 0h-129l-64 161h-296l-63 -161h-130l271 676q-25 17 -39.5 43.5t-14.5 58.5q0 52 36 88.5t88 36.5t88.5 -36.5t36.5 -88.5q0 -32 -14.5 -58.5t-39.5 -43.5zM345 814q-15 -15 -15 -36t15 -36t36 -15t36 15t15 36t-15 36t-36 15t-36 -15z
M494 266l-113 297l-113 -297h226z" />
    <glyph glyph-name="aringacute" unicode="&#x1fb;" horiz-adv-x="577" 
d="M316 958h133l-86 -139h-116zM216 571q-36 36 -36 88t36 88.5t88 36.5t88.5 -36.5t36.5 -88.5t-36.5 -88t-88.5 -36t-88 36zM340 623q15 15 15 36t-15 36t-36 15t-36 -15t-15 -36t15 -36t36 -15t36 15zM95 30.5q-55 45.5 -55 122.5q0 80 52 125t146 45q91 0 157 -37v13
q0 51 -31.5 74t-101.5 23q-44 0 -87 -8.5t-76 -23.5v99q30 14 80.5 23t97.5 9q125 0 185 -53.5t60 -148.5v-293h-119v47q-31 -30 -70.5 -46t-96.5 -16q-86 0 -141 45.5zM343 93.5q34 16.5 52 45.5v53q-55 39 -126 39q-101 0 -101 -78q0 -38 25.5 -57t73.5 -19q42 0 76 16.5z
" />
    <glyph glyph-name="AEacute" unicode="&#x1fc;" horiz-adv-x="924" 
d="M561 916h133l-86 -174h-116zM371 699h513v-105h-311v-192h222v-105h-222v-192h311v-105h-438v171h-191l-79 -171h-136zM446 266v316h-3l-140 -316h143z" />
    <glyph glyph-name="aeacute" unicode="&#x1fd;" horiz-adv-x="969" 
d="M477 709h133l-86 -174h-116zM94.5 30q-54.5 45 -54.5 123q0 80 52 125t146 45q91 0 157 -37v13q0 51 -31.5 74t-101.5 23q-44 0 -87 -8.5t-76 -23.5v99q30 14 80.5 23t97.5 9q130 0 192 -70q34 34 84.5 52t112.5 18q84 0 143.5 -32t89.5 -87.5t30 -126.5v-58h-407
q13 -107 184 -107q46 0 94 8t84 22v-97q-34 -14 -87.5 -23t-106.5 -9q-139 0 -224 77q-41 -38 -92 -57.5t-130 -19.5q-95 0 -149.5 45zM810 277q-2 57 -40.5 88t-105.5 31q-65 0 -102.5 -32t-39.5 -87h288zM342.5 92.5q33.5 15.5 52.5 43.5v56q-55 39 -126 39
q-101 0 -101 -78q0 -38 25.5 -57t73.5 -19q42 0 75.5 15.5z" />
    <glyph glyph-name="Oslashacute" unicode="&#x1fe;" horiz-adv-x="821" 
d="M419 916h133l-86 -174h-116zM222 30q-85 46 -133.5 129t-48.5 190t48.5 190t133 129t189.5 46q40 0 82 -8l32 78h124l-47 -118q83 -46 131 -128.5t48 -188.5q0 -107 -48.5 -189.5t-133 -128.5t-188.5 -46q-39 0 -81 8l-31 -79h-124zM449 595q-19 3 -38 3
q-68 0 -123.5 -31t-87.5 -87.5t-32 -130.5q0 -68 26.5 -121t72.5 -85zM533 130.5q55 30.5 87.5 87t32.5 131.5q0 66 -26 118.5t-71 85.5l-181 -451q22 -2 36 -2q67 0 122 30.5z" />
    <glyph glyph-name="oslashacute" unicode="&#x1ff;" horiz-adv-x="642" 
d="M291 709h133l-86 -174h-116zM167 18q-61 31 -94 88t-33 134t34.5 134.5t98.5 89t148 31.5q13 0 37 -2l29 73h124l-42 -103q63 -31 98 -89t35 -134q0 -79 -35 -136.5t-98.5 -88t-147.5 -30.5q-15 0 -43 2l-29 -73h-124zM319 396q-69 -1 -109 -42.5t-40 -113.5
q0 -70 41 -113zM321 84q69 0 110 43.5t41 112.5q0 76 -45 118l-110 -274h4z" />
    <glyph glyph-name="Scommaaccent" unicode="&#x218;" horiz-adv-x="567" 
d="M139.5 -3.5q-60.5 11.5 -99.5 30.5v109q50 -24 105 -36t108 -12q67 0 102 25t35 69q0 31 -16 51.5t-47 36t-95 40.5q-98 40 -142 89t-44 122q0 57 31 101t87 68t129 24q60 0 106.5 -9.5t91.5 -29.5v-106q-87 42 -176 42q-64 0 -99 -23.5t-35 -66.5q0 -31 16 -50.5
t42.5 -33t95.5 -42.5q70 -29 110.5 -57t61 -65.5t20.5 -91.5q0 -93 -67 -144.5t-198 -51.5q-62 0 -122.5 11.5zM204 -56h131l-98 -203h-115z" />
    <glyph glyph-name="scommaaccent" unicode="&#x219;" horiz-adv-x="499" 
d="M136 -3q-59 12 -92 33v107q39 -24 93 -38.5t102 -14.5t70 8.5t22 31.5q0 18 -11.5 29.5t-37 21t-78.5 23.5q-60 17 -94.5 35t-52 45.5t-17.5 71.5q0 72 57 108.5t154 36.5q50 0 99.5 -9.5t77.5 -26.5v-103q-30 18 -73 29t-88 11q-49 0 -74 -9.5t-25 -36.5
q0 -18 13.5 -28.5t35.5 -18t80 -22.5q62 -17 97 -37t50 -48t15 -70q0 -64 -54.5 -102.5t-157.5 -38.5q-52 0 -111 12zM184 -56h131l-98 -203h-115z" />
    <glyph glyph-name="uni021A" unicode="&#x21a;" horiz-adv-x="589" 
d="M231 594h-211v105h549v-105h-211v-594h-127v594zM226 -56h131l-98 -203h-115z" />
    <glyph glyph-name="uni021B" unicode="&#x21b;" horiz-adv-x="388" 
d="M133 29q-41 44 -41 124v231h-72v96h72v144h126v-144h115v-96h-115v-215q0 -46 17 -65.5t62 -19.5q31 0 61 14v-96q-43 -17 -105 -17q-79 0 -120 44zM178 -56h131l-98 -203h-115z" />
    <glyph glyph-name="uni0237" unicode="&#x237;" horiz-adv-x="249" 
d="M-80 -218v102q27 -12 62 -12q41 0 61 20.5t20 64.5v523h126v-536q0 -87 -50 -131t-135 -44q-48 0 -84 13z" />
    <glyph glyph-name="uni0251" unicode="&#x251;" horiz-adv-x="665" 
d="M162.5 16.5q-57.5 31.5 -90 89t-32.5 133.5q0 75 32.5 133t90 90.5t130.5 32.5q118 0 186 -62v47h126v-480h-122v56q-41 -38 -85 -54.5t-105 -16.5q-73 0 -130.5 31.5zM420 113q42 29 59 78v97q-16 49 -58.5 78.5t-96.5 29.5q-68 0 -112 -44t-44 -113t44 -112t112 -43
q54 0 96 29z" />
    <glyph glyph-name="uni0259" unicode="&#x259;" horiz-adv-x="609" 
d="M159.5 17q-59.5 32 -89.5 87.5t-30 126.5v58h409q-13 107 -186 107q-46 0 -94 -8t-84 -22v97q34 14 87.5 23t106.5 9q134 0 212 -67t78 -187q0 -118 -69 -187t-197 -69q-84 0 -143.5 32zM409 116q38 32 40 87h-290q2 -57 40.5 -88t105.5 -31q66 0 104 32z" />
    <glyph glyph-name="uni02BB" unicode="&#x2bb;" horiz-adv-x="268" 
d="M120 714h108l-66 -196h-122z" />
    <glyph glyph-name="uni02BC" unicode="&#x2bc;" horiz-adv-x="268" 
d="M106 714h122l-80 -196h-108z" />
    <glyph glyph-name="uni02BE" unicode="&#x2be;" 
d="M-76 615q34 0 50.5 12.5t16.5 43.5t-16.5 43.5t-50.5 12.5v90q71 0 113.5 -36.5t42.5 -109.5t-42.5 -109.5t-113.5 -36.5v90z" />
    <glyph glyph-name="uni02BF" unicode="&#x2bf;" 
d="M-33.5 561.5q-42.5 36.5 -42.5 109.5t42.5 109.5t113.5 36.5v-90q-34 0 -50.5 -12.5t-16.5 -43.5t16.5 -43.5t50.5 -12.5v-90q-71 0 -113.5 36.5z" />
    <glyph glyph-name="circumflex" unicode="&#x2c6;" horiz-adv-x="485" 
d="M187 763h112l146 -171h-126l-76 99l-76 -99h-127z" />
    <glyph glyph-name="caron" unicode="&#x2c7;" horiz-adv-x="485" 
d="M40 763h127l76 -100l76 100h126l-146 -171h-112z" />
    <glyph glyph-name="uni02C8" unicode="&#x2c8;" 
d="M-48 761h94v-182h-94v182z" />
    <glyph glyph-name="uni02C9" unicode="&#x2c9;" horiz-adv-x="589" 
d="M128 678h332v-84h-332v84z" />
    <glyph glyph-name="uni02CA" unicode="&#x2ca;" 
d="M-34 758h133l-86 -174h-116z" />
    <glyph glyph-name="uni02CB" unicode="&#x2cb;" 
d="M-18 758h116l-69 -174h-133z" />
    <glyph glyph-name="uni02CC" unicode="&#x2cc;" 
d="M-48 -61h94v-182h-94v182z" />
    <glyph glyph-name="breve" unicode="&#x2d8;" horiz-adv-x="402" 
d="M83 612.5q-43 41.5 -43 109.5h95q0 -33 17 -50t49 -17t49 17t17 50h95q0 -68 -43 -109.5t-118 -41.5t-118 41.5z" />
    <glyph glyph-name="dotaccent" unicode="&#x2d9;" horiz-adv-x="213" 
d="M60 597.5q-20 19.5 -20 46.5q0 28 20 47.5t47 19.5t46.5 -19.5t19.5 -47.5t-19.5 -47t-46.5 -19t-47 19.5z" />
    <glyph glyph-name="ring" unicode="&#x2da;" horiz-adv-x="329" 
d="M76 569q-36 36 -36 88t36 88.5t88 36.5t88.5 -36.5t36.5 -88.5t-36.5 -88t-88.5 -36t-88 36zM200 621q15 15 15 36t-15 36t-36 15t-36 -15t-15 -36t15 -36t36 -15t36 15z" />
    <glyph glyph-name="ogonek" unicode="&#x2db;" horiz-adv-x="279" 
d="M71.5 -189.5q-31.5 23.5 -31.5 68.5q0 38 20 69t53 52h117q-40 -24 -59.5 -47.5t-19.5 -51.5q0 -19 11.5 -29.5t29.5 -10.5q25 0 47 11v-72q-34 -13 -87 -13q-49 0 -80.5 23.5z" />
    <glyph glyph-name="tilde" unicode="&#x2dc;" horiz-adv-x="469" 
d="M40 695q32 43 100 43q22 0 43 -6t54 -19q28 -12 49 -18.5t43 -6.5q62 0 100 51v-103q-31 -42 -100 -42q-25 0 -48 6.5t-53 19.5q-30 12 -48.5 18t-39.5 6q-29 0 -53.5 -12t-46.5 -40v103z" />
    <glyph glyph-name="hungarumlaut" unicode="&#x2dd;" horiz-adv-x="496" 
d="M110 743h122l-86 -174h-106zM333 743h123l-86 -174h-106z" />
    <glyph glyph-name="gravecomb" unicode="&#x300;" 
d="M-479 758h133l69 -174h-116z" />
    <glyph glyph-name="acutecomb" unicode="&#x301;" 
d="M-300 758h133l-86 -174h-116z" />
    <glyph glyph-name="uni0302" unicode="&#x302;" 
d="M-56 758h112l146 -171h-126l-76 99l-76 -99h-127z" />
    <glyph glyph-name="tildecomb" unicode="&#x303;" 
d="M-503 695q32 43 100 43q22 0 43 -6t54 -19q28 -12 49 -18.5t43 -6.5q62 0 100 51v-103q-31 -42 -100 -42q-25 0 -48 6.5t-53 19.5q-30 12 -48.5 18t-39.5 6q-29 0 -53.5 -12t-46.5 -40v103z" />
    <glyph glyph-name="uni0304" unicode="&#x304;" 
d="M-156 678h323v-84h-323v84z" />
    <glyph glyph-name="uni0306" unicode="&#x306;" 
d="M-118 612.5q-43 41.5 -43 109.5h95q0 -33 17 -50t49 -17t49 17t17 50h95q0 -68 -43 -109.5t-118 -41.5t-118 41.5z" />
    <glyph glyph-name="uni0307" unicode="&#x307;" 
d="M-47 597.5q-20 19.5 -20 46.5q0 28 20 47.5t47 19.5t46.5 -19.5t19.5 -47.5t-19.5 -47t-46.5 -19t-47 19.5z" />
    <glyph glyph-name="uni0308" unicode="&#x308;" 
d="M-166 597.5q-20 19.5 -20 46.5q0 28 20 47.5t47 19.5t46.5 -19.5t19.5 -47.5t-19.5 -47t-46.5 -19t-47 19.5zM71 597.5q-20 19.5 -20 46.5q0 28 20 47.5t47 19.5t46.5 -19.5t19.5 -47.5t-19.5 -47t-46.5 -19t-47 19.5z" />
    <glyph glyph-name="hookabovecomb" unicode="&#x309;" 
d="M-410 640q45 0 68 11t23 38q0 20 -14.5 28.5t-47.5 8.5q-13 0 -35 -4t-31 -8v66q19 6 46 10t52 4q68 0 104 -27t36 -73q0 -37 -24 -62t-67 -32v-34h-110v74z" />
    <glyph glyph-name="uni030A" unicode="&#x30a;" 
d="M-88 569q-36 36 -36 88t36 88.5t88 36.5t88.5 -36.5t36.5 -88.5t-36.5 -88t-88.5 -36t-88 36zM36 621q15 15 15 36t-15 36t-36 15t-36 -15t-15 -36t15 -36t36 -15t36 15z" />
    <glyph glyph-name="uni030B" unicode="&#x30b;" 
d="M-149 758h123l-86 -174h-106zM75 758h122l-86 -174h-106z" />
    <glyph glyph-name="uni030C" unicode="&#x30c;" 
d="M-203 758h127l76 -100l76 100h126l-146 -171h-112z" />
    <glyph glyph-name="uni031B" unicode="&#x31b;" 
d="M-90 629q43 0 66 23.5t23 59.5v35h101v-42q0 -72 -49.5 -118t-140.5 -46v88z" />
    <glyph glyph-name="dotbelowcomb" unicode="&#x323;" 
d="M-47 -159.5q-20 19.5 -20 46.5q0 28 20 47.5t47 19.5t46.5 -19.5t19.5 -47.5t-19.5 -47t-46.5 -19t-47 19.5z" />
    <glyph glyph-name="uni0324" unicode="&#x324;" 
d="M-155 -159.5q-20 19.5 -20 46.5q0 28 20 47.5t47 19.5t46.5 -19.5t19.5 -47.5t-19.5 -47t-46.5 -19t-47 19.5zM60 -159.5q-20 19.5 -20 46.5q0 28 20 47.5t47 19.5t46.5 -19.5t19.5 -47.5t-19.5 -47t-46.5 -19t-47 19.5z" />
    <glyph glyph-name="uni0326" unicode="&#x326;" 
d="M-171 -56h131l-98 -203h-115z" />
    <glyph glyph-name="uni0327" unicode="&#x327;" 
d="M-73 -244.5q-25 3.5 -39 8.5l1 69q11 -5 27 -8.5t31 -3.5q59 0 59 41q0 24 -23.5 38.5t-75.5 14.5l33 85h113l-20 -52q43 -5 66.5 -31.5t23.5 -66.5q0 -47 -39 -72.5t-105 -25.5q-27 0 -52 3.5z" />
    <glyph glyph-name="uni0328" unicode="&#x328;" 
d="M-65 -189.5q-31 23.5 -31 68.5q0 38 20 69t53 52h116q-40 -24 -59.5 -47.5t-19.5 -51.5q0 -19 11.5 -29.5t29.5 -10.5q26 0 48 11v-72q-34 -13 -87 -13q-50 0 -81 23.5z" />
    <glyph glyph-name="uni032E" unicode="&#x32e;" 
d="M-118 -168.5q-43 41.5 -43 109.5h95q0 -33 17 -50t49 -17t49 17t17 50h95q0 -68 -43 -109.5t-118 -41.5t-118 41.5z" />
    <glyph glyph-name="uni0331" unicode="&#x331;" 
d="M-156 -68h323v-83h-323v83z" />
    <glyph glyph-name="uni0394" unicode="&#x394;" horiz-adv-x="690" 
d="M40 86l250 628h110l250 -628v-86h-610v86zM530 103l-185 473l-186 -473h371z" />
    <glyph glyph-name="uni03A9" unicode="&#x3a9;" horiz-adv-x="818" 
d="M40 105h123q-54 43 -88 109.5t-34 142.5q0 105 45.5 186t129 126t193.5 45t193.5 -45t129 -126t45.5 -186q0 -76 -34 -142.5t-88 -109.5h123v-105h-296v95q167 92 167 262q0 72 -31 127t-85.5 84.5t-123.5 29.5t-123.5 -29.5t-85.5 -84.5t-31 -127q0 -170 167 -262v-95
h-296v105z" />
    <glyph glyph-name="uni03BC" unicode="&#x3bc;" horiz-adv-x="615" 
d="M60 480h126v-297q0 -50 24 -74.5t74 -24.5q43 0 81 20.5t64 61.5v314h126v-480h-122v65q-34 -41 -81 -60.5t-99 -19.5q-42 0 -67 14v-218h-126v699z" />
    <glyph glyph-name="pi" unicode="&#x3c0;" horiz-adv-x="696" 
d="M452 28.5q-46 43.5 -46 131.5v215h-162v-375h-127v375h-87v105h590v-105h-87v-202q0 -46 15.5 -65.5t55.5 -19.5q35 0 62 12v-102q-36 -13 -84 -13q-84 0 -130 43.5z" />
    <glyph glyph-name="uni0E01" unicode="&#xe01;" horiz-adv-x="650" 
d="M90 326l-50 83q55 69 126.5 105t165.5 36q125 0 191.5 -56t66.5 -155v-339h-127v329q0 62 -33 92t-98 30q-49 0 -86.5 -14t-69.5 -46l41 -66v-325h-127v326z" />
    <glyph glyph-name="uni0E02" unicode="&#xe02;" horiz-adv-x="597" 
d="M162 10.5q-56 25.5 -86 71t-30 103.5v25q0 35 14.5 64t40.5 66q17 24 25 38t8 27q0 30 -37 30h-57v100h124q45 0 71.5 -25.5t26.5 -68.5q0 -30 -11.5 -55t-33.5 -61t-33 -59.5t-11 -50.5v-25q0 -51 30 -78.5t90 -27.5q117 0 117 111v340h127v-319q0 -106 -63.5 -168.5
t-180.5 -62.5q-75 0 -131 25.5z" />
    <glyph glyph-name="uni0E03" unicode="&#xe03;" horiz-adv-x="607" 
d="M172 10.5q-56 25.5 -86 71t-30 103.5v29q0 33 18 63.5t50 68.5q21 26 29 38t8 22v3q-20 -10 -46 -10q-75 0 -75 84v52h89v-36q0 -29 29 -29q17 0 29 12v53h96v-94q0 -35 -14.5 -65t-41.5 -69q-22 -32 -33 -53t-11 -42v-22q0 -51 30 -78.5t90 -27.5q117 0 117 111v340h127
v-319q0 -106 -63.5 -168.5t-180.5 -62.5q-75 0 -131 25.5z" />
    <glyph glyph-name="uni0E04" unicode="&#xe04;" horiz-adv-x="649" 
d="M60 324q0 108 71.5 167t193.5 59t193 -59t71 -167v-324h-127v329q0 61 -35.5 91.5t-101.5 30.5t-102 -30t-36 -92v-88q13 21 38.5 34t59.5 13h81v-106h-90q-39 0 -64 -25.5t-25 -61.5v-95h-127v324z" />
    <glyph glyph-name="uni0E05" unicode="&#xe05;" horiz-adv-x="649" 
d="M60 371q0 82 37 130.5t115 48.5q40 0 69 -14.5t43 -42.5q16 28 44.5 42.5t68.5 14.5q78 0 115 -48t37 -131v-371h-127v374q0 42 -10 59.5t-40 17.5q-23 0 -34.5 -13.5t-17.5 -43.5h-71q-6 30 -17.5 43.5t-34.5 13.5q-29 0 -39.5 -17.5t-10.5 -58.5v-134q13 21 38.5 34
t59.5 13h81v-106h-90q-39 0 -64 -25.5t-25 -61.5v-95h-127v371z" />
    <glyph glyph-name="uni0E06" unicode="&#xe06;" horiz-adv-x="631" 
d="M264.5 5.5q-48.5 20.5 -86.5 60.5v-66h-122v206q0 36 18.5 68t50.5 73q18 22 27 35.5t9 23.5v3q-20 -10 -46 -10q-75 0 -75 84v52h89v-36q0 -29 29 -29q17 0 29 12v53h96v-94q0 -35 -14.5 -64.5t-41.5 -70.5q-22 -32 -33 -53t-11 -42v-45q52 -82 144 -82q118 0 118 110
v341h126v-347q0 -57 -24.5 -103.5t-71.5 -73t-112 -26.5q-50 0 -98.5 20.5z" />
    <glyph glyph-name="uni0E07" unicode="&#xe07;" horiz-adv-x="629" 
d="M40 468h127l117 -369q84 0 129.5 47.5t45.5 135.5q0 85 -31 127t-99 42q-37 0 -69 -10v97q39 12 91 12q117 0 177.5 -71t60.5 -197q0 -88 -38.5 -152t-103.5 -97t-144 -33h-115z" />
    <glyph glyph-name="uni0E08" unicode="&#xe08;" horiz-adv-x="592" 
d="M61 294h126l48 -195q84 0 135.5 44.5t51.5 126.5q0 88 -45 134.5t-149 46.5q-50 0 -102 -10t-86 -26v99q39 17 93 26.5t111 9.5q145 0 226.5 -73t81.5 -207q0 -81 -40 -142t-109 -94.5t-151 -33.5h-118z" />
    <glyph glyph-name="uni0E09" unicode="&#xe09;" horiz-adv-x="616" 
d="M102 38q-51 53 -51 145v122h127v-114q0 -55 27 -81t84 -26q44 0 81 21.5t59 60.5v118q0 86 -40 126.5t-143 40.5q-53 0 -112 -10t-94 -26v99q38 16 99.5 26t119.5 10q156 0 226.5 -65.5t70.5 -195.5v-289h-122v66q-31 -40 -79.5 -60.5t-104.5 -20.5q-97 0 -148 53z" />
    <glyph glyph-name="uni0E0A" unicode="&#xe0a;" horiz-adv-x="591" 
d="M164 10.5q-56 25.5 -87 71t-31 103.5v25q0 35 15 65t41 67q18 27 25 39t7 24q0 30 -37 30h-57v100h124q45 0 71.5 -25.5t26.5 -68.5q0 -30 -11.5 -55t-33.5 -61t-33 -59.5t-11 -50.5v-25q0 -50 31.5 -78t89.5 -28q61 0 93.5 33.5t32.5 98.5q0 131 -107 131v67l102 136
h136l-111 -148q57 -27 82 -72t25 -114q0 -67 -31 -119.5t-88.5 -82t-133.5 -29.5q-74 0 -130 25.5z" />
    <glyph glyph-name="uni0E0B" unicode="&#xe0b;" horiz-adv-x="601" 
d="M174 10.5q-56 25.5 -87 71t-31 103.5v29q0 33 18 63.5t50 68.5q21 26 29 38t8 22v3q-20 -10 -46 -10q-75 0 -75 84v52h89v-36q0 -29 29 -29q17 0 29 12v53h96v-94q0 -35 -14.5 -65t-41.5 -69q-22 -32 -33 -53t-11 -42v-22q0 -50 31.5 -78t89.5 -28q61 0 93.5 33.5
t32.5 98.5q0 131 -107 131v67l102 136h136l-111 -148q57 -27 82 -72t25 -114q0 -67 -31 -119.5t-88.5 -82t-133.5 -29.5q-74 0 -130 25.5z" />
    <glyph glyph-name="uni0E0C" unicode="&#xe0c;" horiz-adv-x="998" 
d="M646 4q-45 19 -81 59v-63h-122v329q0 63 -30 92.5t-91 29.5q-46 0 -81 -14t-65 -46l41 -66v-172q0 -26 11.5 -36.5t38.5 -10.5h54v-106h-122q-53 0 -81 30t-28 82v214l-50 83q55 69 123.5 105t158.5 36q121 0 184 -55.5t63 -155.5v-173q52 -82 135 -82q56 0 82 27t26 83
v341h126v-347q0 -57 -23 -103.5t-67.5 -73t-107.5 -26.5q-49 0 -94 19z" />
    <glyph glyph-name="uni0E0D" unicode="&#xe0d;" horiz-adv-x="1011" 
d="M594 -87q-54 11 -87 30v105q87 -47 196 -47q72 0 107 15.5t35 48.5q0 22 -16 40q-66 -32 -137 -32q-123 0 -186 58.5t-63 163.5v34q0 63 -30 92.5t-91 29.5q-46 0 -81 -14t-65 -46l41 -66v-172q0 -26 11 -36.5t37 -10.5h56v-106h-122q-53 0 -81 30t-28 82v214l-50 83
q55 69 123.5 105t158.5 36q121 0 184 -55.5t63 -155.5v-34q0 -68 28.5 -100.5t97.5 -32.5q127 0 127 133v230h127v-240q0 -62 -39 -121q51 -45 51 -109q0 -78 -72 -120.5t-186 -42.5q-55 0 -109 11z" />
    <glyph glyph-name="uni0E0E" unicode="&#xe0e;" horiz-adv-x="664" 
d="M173 -123q28 25 73 39.5t91 14.5q87 0 140 -34v432q0 62 -33 92t-98 30q-48 0 -84.5 -14t-68.5 -42l58 -69v-213q0 -53 -28.5 -83t-80.5 -30h-102v106h39q26 0 35.5 10t9.5 37v173l-70 83q107 141 293 141q124 0 190.5 -56t66.5 -155v-560h-112q-35 28 -72.5 40.5
t-82.5 12.5q-46 0 -89.5 -15.5t-74.5 -43.5v104z" />
    <glyph glyph-name="uni0E0F" unicode="&#xe0f;" horiz-adv-x="664" 
d="M160.5 -215.5q-28.5 8.5 -48.5 22.5v96q43 -28 100 -28q39 0 64.5 17t32.5 52h70l98 -56v441q0 62 -33 92t-98 30q-48 0 -84.5 -14t-68.5 -42l58 -69v-213q0 -53 -28.5 -83t-80.5 -30h-102v106h39q26 0 35.5 10t9.5 37v173l-70 83q107 141 293 141q124 0 190.5 -56
t66.5 -155v-560h-121l-119 68q-20 -35 -57 -53t-87 -18q-31 0 -59.5 8.5z" />
    <glyph glyph-name="uni0E10" unicode="&#xe10;" horiz-adv-x="608" 
d="M61 294h126l48 -195q83 0 135 47.5t52 130.5q0 87 -45 130.5t-149 43.5q-50 0 -102 -10t-86 -26v99q39 17 93 26.5t111 9.5q90 0 157 -29l47 54h140l-101 -115q65 -71 65 -184q0 -83 -40 -146t-108.5 -96.5t-151.5 -33.5h-118zM95.5 -215.5q-30.5 8.5 -49.5 22.5v86
q43 -28 100 -28q40 0 63 18t34 56h62l106 -64v87h126v-183h-115l-123 72q-21 -40 -55 -57.5t-86 -17.5q-32 0 -62.5 8.5z" />
    <glyph glyph-name="uni0E11" unicode="&#xe11;" horiz-adv-x="636" 
d="M71 214q0 33 15 63t42 69q17 25 24 37.5t7 22.5v3q-20 -10 -46 -10q-73 0 -73 84v52h89v-36q0 -29 29 -29q17 0 29 12v53h96v-33q21 22 59 35t76 13q158 0 158 -181v-369h-127v384q0 34 -15.5 50.5t-47.5 16.5q-74 0 -113 -56q-7 -22 -15.5 -39t-23.5 -41
q-18 -30 -27 -52t-9 -51v-212h-127v214z" />
    <glyph glyph-name="uni0E12" unicode="&#xe12;" horiz-adv-x="1044" 
d="M167.5 16.5q-59.5 31.5 -93.5 93t-34 149.5q0 90 25.5 156t70.5 100.5t102 34.5q72 0 106 -57q37 57 128 57q72 0 108 -45.5t36 -121.5v-217q52 -82 134 -82q56 0 82 27t26 83v341h126v-347q0 -57 -23 -103.5t-67.5 -73t-107.5 -26.5q-49 0 -94 19t-81 59v-63h-122v374
q0 41 -11 59t-40 18q-47 0 -58 -58h-71q-3 29 -14.5 43.5t-35.5 14.5q-41 0 -65 -48t-24 -144q0 -85 41 -130t114 -45q37 0 69 10v-97q-39 -12 -91 -12q-76 0 -135.5 31.5z" />
    <glyph glyph-name="uni0E13" unicode="&#xe13;" horiz-adv-x="998" 
d="M533.5 11.5q-44.5 26.5 -67.5 73t-23 103.5v141q0 63 -30 92.5t-91 29.5q-46 0 -81 -14t-65 -46l41 -66v-172q0 -26 11.5 -36.5t38.5 -10.5h54v-106h-122q-53 0 -81 30t-28 82v214l-50 83q55 69 123.5 105t158.5 36q121 0 184 -55.5t63 -155.5v-145q0 -56 26 -83t82 -27
q44 0 80.5 21.5t54.5 60.5v369h126v-535h-122v63q-63 -78 -175 -78q-63 0 -107.5 26.5z" />
    <glyph glyph-name="uni0E14" unicode="&#xe14;" horiz-adv-x="686" 
d="M110.5 53.5q-70.5 68.5 -70.5 200.5q0 92 36.5 158.5t105 102t161.5 35.5q147 0 215 -68t68 -177v-305h-127v306q0 70 -36.5 107.5t-119.5 37.5q-80 0 -126.5 -51.5t-46.5 -145.5q0 -86 40 -128t115 -42q37 0 69 10v-97q-39 -12 -91 -12q-122 0 -192.5 68.5z" />
    <glyph glyph-name="uni0E15" unicode="&#xe15;" horiz-adv-x="686" 
d="M111 53.5q-71 68.5 -71 200.5q0 90 26 157t72 103t103 36q74 0 108 -57q19 30 54 43.5t77 13.5q72 0 109 -45.5t37 -121.5v-383h-127v374q0 40 -12 58.5t-41 18.5q-50 0 -61 -58h-71q-6 58 -52 58q-41 0 -66.5 -50.5t-25.5 -146.5q0 -170 155 -170q37 0 69 10v-97
q-39 -12 -91 -12q-121 0 -192 68.5z" />
    <glyph glyph-name="uni0E16" unicode="&#xe16;" horiz-adv-x="650" 
d="M118 30q-28 30 -28 82v214l-50 83q55 69 126.5 105t165.5 36q125 0 191.5 -56t66.5 -155v-339h-127v329q0 62 -33 92t-98 30q-49 0 -86.5 -14t-69.5 -46l41 -66v-172q0 -26 11.5 -36.5t38.5 -10.5h54v-106h-122q-53 0 -81 30z" />
    <glyph glyph-name="uni0E17" unicode="&#xe17;" horiz-adv-x="635" 
d="M60 535h122v-66q38 40 88.5 60.5t101.5 20.5q99 0 151 -55.5t52 -142.5v-352h-127v346q0 105 -112 105q-97 0 -149 -82v-369h-127v535z" />
    <glyph glyph-name="uni0E18" unicode="&#xe18;" horiz-adv-x="564" 
d="M108 28.5q-66 43.5 -66 118.5v65h125v-56q0 -76 118 -76q113 0 113 68q0 29 -14 45t-44 26t-99 26q-101 24 -151 58t-50 100q0 75 66 111t170 36q62 0 121 -12.5t95 -31.5v-104q-38 23 -92.5 36t-109.5 13q-62 0 -92.5 -9t-30.5 -39q0 -26 27.5 -39t99.5 -32l43 -11
q70 -19 109.5 -40t58.5 -52t19 -81q0 -73 -62 -118t-177 -45q-111 0 -177 43.5z" />
    <glyph glyph-name="uni0E19" unicode="&#xe19;" horiz-adv-x="635" 
d="M156 11.5q-47 26.5 -71.5 73t-24.5 103.5v347h127v-341q0 -110 117 -110q92 0 144 82v369h127v-535h-122v66q-38 -40 -86.5 -60.5t-98.5 -20.5q-65 0 -112 26.5z" />
    <glyph glyph-name="uni0E1A" unicode="&#xe1a;" horiz-adv-x="653" 
d="M187.5 14q-60.5 29 -93 80.5t-32.5 117.5v323h127v-318q0 -63 35 -98t104 -35q68 0 103 35t35 98v318h127v-323q0 -66 -32.5 -117.5t-92.5 -80.5t-140 -29t-140.5 29z" />
    <glyph glyph-name="uni0E1B" unicode="&#xe1b;" horiz-adv-x="651" 
d="M185.5 14q-60.5 29 -93 80.5t-32.5 117.5v323h127v-318q0 -63 35 -98t104 -35q68 0 103 35t35 98v497h127v-502q0 -66 -32.5 -117.5t-92.5 -80.5t-140 -29t-140.5 29z" />
    <glyph glyph-name="uni0E1C" unicode="&#xe1c;" horiz-adv-x="652" 
d="M60 418q0 57 30.5 87t87.5 30h91v-106h-37q-26 0 -36 -11t-10 -39v-199l115 180h50l115 -180v355h126v-535h-114l-152 241l-152 -241h-114v418z" />
    <glyph glyph-name="uni0E1D" unicode="&#xe1d;" horiz-adv-x="652" 
d="M60 418q0 57 30.5 87t87.5 30h91v-106h-37q-26 0 -36 -11t-10 -39v-199l115 180h50l115 -180v534h126v-714h-114l-152 241l-152 -241h-114v418z" />
    <glyph glyph-name="uni0E1E" unicode="&#xe1e;" horiz-adv-x="788" 
d="M30 535h127l86 -359l104 359h94l104 -359l86 359h127l-149 -535h-107l-108 368l-108 -368h-107z" />
    <glyph glyph-name="uni0E1F" unicode="&#xe1f;" horiz-adv-x="761" 
d="M30 535h127l86 -359l104 359h94l104 -359l109 538h127l-172 -714h-107l-108 368l-108 -368h-107z" />
    <glyph glyph-name="uni0E20" unicode="&#xe20;" horiz-adv-x="664" 
d="M40 106h39q26 0 35.5 10t9.5 37v173l-70 83q107 141 293 141q124 0 190.5 -56t66.5 -155v-339h-127v329q0 62 -33 92t-98 30q-48 0 -84.5 -14t-68.5 -42l58 -69v-213q0 -53 -28.5 -83t-80.5 -30h-102v106z" />
    <glyph glyph-name="uni0E21" unicode="&#xe21;" horiz-adv-x="635" 
d="M268.5 5.5q-48.5 20.5 -86.5 60.5v-66h-122v535h127v-369q52 -82 144 -82q118 0 118 110v341h126v-347q0 -57 -24.5 -103.5t-71.5 -73t-112 -26.5q-50 0 -98.5 20.5z" />
    <glyph glyph-name="uni0E22" unicode="&#xe22;" horiz-adv-x="641" 
d="M112 31q-72 46 -72 130q0 41 24 74t62 46q-36 17 -58.5 49t-22.5 72q0 67 46 107.5t136 40.5q28 0 54 -3.5t41 -8.5v-99q-13 6 -33.5 9t-36.5 3q-77 0 -77 -57q0 -31 19 -46t61 -15h67v-103h-67q-85 0 -85 -69q0 -36 35.5 -56.5t97.5 -20.5q78 0 114.5 32t36.5 94v326
h127v-324q0 -57 -27.5 -108.5t-90 -85t-160.5 -33.5q-119 0 -191 46z" />
    <glyph glyph-name="uni0E23" unicode="&#xe23;" horiz-adv-x="519" 
d="M135.5 -3q-58.5 12 -91.5 36v99q44 -26 97.5 -39t98.5 -13q60 0 86.5 12t26.5 45q0 23 -14 36.5t-38 22.5t-90 29q-86 27 -128.5 65t-42.5 103q0 75 60 116t162 41q54 0 103.5 -11.5t81.5 -30.5v-104q-33 21 -79.5 34t-93.5 13q-107 0 -107 -58q0 -21 13 -34t35 -21.5
t67 -22.5l33 -10q64 -20 99.5 -43t50 -53t14.5 -74q0 -67 -57 -108.5t-171 -41.5q-57 0 -115.5 12z" />
    <glyph glyph-name="uni0E24" unicode="&#xe24;" horiz-adv-x="650" 
d="M463 329q0 62 -33 92t-98 30q-49 0 -86.5 -14t-69.5 -46l41 -66v-172q0 -26 11.5 -36.5t38.5 -10.5h54v-106h-122q-53 0 -81 30t-28 82v214l-50 83q55 69 126.5 105t165.5 36q125 0 191.5 -56t66.5 -155v-535h-127v525z" />
    <glyph glyph-name="uni0E25" unicode="&#xe25;" horiz-adv-x="618" 
d="M94.5 30q-54.5 45 -54.5 127q0 54 27.5 95t78 64t118.5 23q97 0 168 -33v24q0 62 -36.5 91.5t-117.5 29.5q-49 0 -96.5 -10t-82.5 -27v99q32 15 88.5 26t110.5 11q130 0 195 -59t65 -158v-333h-126v206q-67 34 -153 34q-56 0 -83.5 -21.5t-27.5 -62.5q0 -37 25 -54.5
t79 -17.5q34 0 59 10v-97q-37 -12 -93 -12q-89 0 -143.5 45z" />
    <glyph glyph-name="uni0E26" unicode="&#xe26;" horiz-adv-x="664" 
d="M477 329q0 62 -33 92t-98 30q-48 0 -84.5 -14t-68.5 -42l58 -69v-213q0 -53 -28.5 -83t-80.5 -30h-102v106h39q26 0 35.5 10t9.5 37v173l-70 83q107 141 293 141q124 0 190.5 -56t66.5 -155v-535h-127v525z" />
    <glyph glyph-name="uni0E27" unicode="&#xe27;" horiz-adv-x="574" 
d="M40 28v100q62 -44 173 -44q91 0 141 45.5t50 137.5t-50 138t-141 46q-105 0 -170 -44v100q69 43 196 43q138 0 216.5 -74.5t78.5 -208.5q0 -133 -79 -207.5t-216 -74.5q-131 0 -199 43z" />
    <glyph glyph-name="uni0E28" unicode="&#xe28;" horiz-adv-x="664" 
d="M60 324q0 108 71.5 167t193.5 59q69 0 120 -19l39 44h140l-88 -101q53 -58 53 -150v-324h-127v329q0 61 -35.5 91.5t-101.5 30.5t-102 -30t-36 -92v-88q13 21 38.5 34t59.5 13h81v-106h-90q-39 0 -64 -25.5t-25 -61.5v-95h-127v324z" />
    <glyph glyph-name="uni0E29" unicode="&#xe29;" horiz-adv-x="670" 
d="M185.5 14q-60.5 29 -93 80.5t-32.5 117.5v323h127v-318q0 -63 35 -98t104 -35q68 0 103 35t35 98v45h-117v106h117v167h127v-167h54v-106h-54v-50q0 -66 -32.5 -117.5t-92.5 -80.5t-140 -29t-140.5 29z" />
    <glyph glyph-name="uni0E2A" unicode="&#xe2a;" horiz-adv-x="642" 
d="M94.5 30q-54.5 45 -54.5 127q0 54 27.5 95t78 64t118.5 23q97 0 168 -33v24q0 62 -36.5 91.5t-117.5 29.5q-49 0 -96.5 -10t-82.5 -27v99q32 15 88.5 26t110.5 11q81 0 140 -25l44 50h140l-103 -118q39 -44 39 -124v-333h-126v206q-67 34 -153 34q-56 0 -83.5 -21.5
t-27.5 -62.5q0 -37 25 -54.5t79 -17.5q34 0 59 10v-97q-37 -12 -93 -12q-89 0 -143.5 45z" />
    <glyph glyph-name="uni0E2B" unicode="&#xe2b;" horiz-adv-x="624" 
d="M60 535h127v-214l231 214h146l-146 -135q81 -21 113 -68t32 -125v-207h-127v198q0 57 -20.5 86t-74.5 41l-154 -143v-182h-127v535z" />
    <glyph glyph-name="uni0E2C" unicode="&#xe2c;" horiz-adv-x="662" 
d="M60 535h126v-350l120 205h50l120 -205v215q0 52 -23 73.5t-82 21.5v70l109 149h140l-115 -157q56 -18 76.5 -56t20.5 -104v-397h-114l-157 266l-157 -266h-114v535z" />
    <glyph glyph-name="uni0E2D" unicode="&#xe2d;" horiz-adv-x="617" 
d="M143 -1q-62 14 -103 39v280h240v-103h-113v-111q37 -20 102 -20q88 0 133 48t45 140q0 63 -20 102t-66 58t-124 19q-51 0 -103.5 -10.5t-87.5 -30.5v99q40 20 95.5 30.5t117.5 10.5q152 0 235 -72.5t83 -205.5t-79.5 -210t-228.5 -77q-64 0 -126 14z" />
    <glyph glyph-name="uni0E2E" unicode="&#xe2e;" horiz-adv-x="634" 
d="M143 -1q-62 14 -103 39v280h240v-103h-113v-111q37 -20 102 -20q88 0 133 48t45 140q0 93 -50 136t-160 43q-51 0 -103.5 -10.5t-87.5 -30.5v99q40 20 95.5 30.5t117.5 10.5q95 0 165 -33l50 58h140l-104 -120q67 -73 67 -183q0 -133 -79.5 -210t-228.5 -77
q-64 0 -126 14z" />
    <glyph glyph-name="uni0E2F" unicode="&#xe2f;" horiz-adv-x="551" 
d="M364 243q-59 -33 -152 -33q-84 0 -138 45t-54 124q0 80 49.5 125.5t127.5 45.5q59 0 95 -13v-96q-30 10 -59 10q-39 0 -61 -17.5t-22 -54.5q0 -70 93 -70q71 0 121 35v191h127v-535h-127v243z" />
    <glyph glyph-name="uni0E30" unicode="&#xe30;" horiz-adv-x="341" 
d="M59.5 341q-19.5 22 -19.5 68v64h114v-41q0 -15 6.5 -21t22.5 -6h118v-86h-174q-48 0 -67.5 22zM59.5 70q-19.5 22 -19.5 68v64h114v-41q0 -15 6.5 -21t22.5 -6h118v-86h-174q-48 0 -67.5 22z" />
    <glyph glyph-name="uni0E31" unicode="&#xe31;" 
d="M-330.5 632q-21.5 24 -21.5 72v58h114v-46q0 -16 6 -21.5t22 -5.5h238v-81h-290q-47 0 -68.5 24z" />
    <glyph glyph-name="uni0E32" unicode="&#xe32;" horiz-adv-x="419" 
d="M232 342q0 59 -23.5 84t-84.5 25q-56 0 -114 -29v99q24 12 63.5 20.5t77.5 8.5q103 0 155.5 -56t52.5 -160v-334h-127v342z" />
    <glyph glyph-name="uni0E33" unicode="&#xe33;" horiz-adv-x="424" 
d="M-213.5 625q-33.5 33 -33.5 81q0 47 34 81t81 34t80.5 -34t33.5 -81q0 -48 -33.5 -81t-80.5 -33q-48 0 -81.5 33zM-103 674.5q13 13.5 13 30.5t-12.5 30.5t-29.5 13.5q-18 0 -30.5 -13t-12.5 -31q0 -17 12.5 -30.5t30.5 -13.5q16 0 29 13.5zM237 342q0 59 -23.5 84
t-84.5 25q-56 0 -114 -29v99q24 12 63.5 20.5t77.5 8.5q103 0 155.5 -56t52.5 -160v-334h-127v342z" />
    <glyph glyph-name="uni0E34" unicode="&#xe34;" 
d="M-507 689h447v-81h-447v81z" />
    <glyph glyph-name="uni0E35" unicode="&#xe35;" 
d="M-505 689h333v108h114v-189h-447v81z" />
    <glyph glyph-name="uni0E36" unicode="&#xe36;" 
d="M-504 689h263q-3 12 -3 24q0 42 29 69.5t74 27.5q48 0 76 -29.5t28 -69.5q0 -45 -31.5 -74t-81.5 -29h-354v81zM-108.5 679.5q13.5 13.5 13.5 31.5t-13.5 31.5t-31.5 13.5t-31.5 -13.5t-13.5 -31.5t13.5 -31.5t31.5 -13.5t31.5 13.5z" />
    <glyph glyph-name="uni0E37" unicode="&#xe37;" 
d="M-504 689h194v108h89v-108h76v108h88v-189h-447v81z" />
    <glyph glyph-name="uni0E38" unicode="&#xe38;" 
d="M-171 -165q0 18 -6 25t-24 7h-35v81h93q50 0 68 -18.5t18 -67.5v-130h-114v103z" />
    <glyph glyph-name="uni0E39" unicode="&#xe39;" 
d="M-297.5 -247.5q-37.5 27.5 -37.5 73.5v18q0 14 -4 18.5t-17 4.5h-34v81h101q28 0 39 -12.5t11 -40.5v-56q0 -40 43 -40q42 0 42 40v109h96v-119q0 -46 -35 -75t-99 -29q-68 0 -105.5 27.5z" />
    <glyph glyph-name="uni0E3A" unicode="&#xe3a;" 
d="M-169.5 -161.5q-19.5 19.5 -19.5 46.5q0 28 19.5 47.5t47.5 19.5q27 0 47 -19.5t20 -47.5q0 -27 -20 -46.5t-47 -19.5q-28 0 -47.5 19.5z" />
    <glyph glyph-name="uni0E3F" unicode="&#xe3f;" horiz-adv-x="658" 
d="M258 0h-198v699h198v103h108v-103h26q96 0 149.5 -48t53.5 -140q0 -49 -23.5 -88.5t-62.5 -60.5q109 -36 109 -161q0 -62 -28 -107.5t-75.5 -69.5t-105.5 -24h-43v-103h-108v103zM258 408v191h-72v-191h72zM372 408q43 0 69 23.5t26 71.5q0 55 -25.5 75.5t-75.5 20.5
v-191h6zM258 100v206h-72v-206h72zM380 100q53 0 81.5 22t28.5 78t-30 81t-87 25h-7v-206h14z" />
    <glyph glyph-name="uni0E40" unicode="&#xe40;" horiz-adv-x="309" 
d="M87.5 29.5q-27.5 29.5 -27.5 82.5v423h127v-383q0 -26 11 -36t36 -10h35v-106h-102q-52 0 -79.5 29.5z" />
    <glyph glyph-name="uni0E41" unicode="&#xe41;" horiz-adv-x="578" 
d="M87.5 29.5q-27.5 29.5 -27.5 82.5v423h127v-383q0 -26 11 -36t36 -10h35v-106h-102q-52 0 -79.5 29.5zM356.5 29.5q-27.5 29.5 -27.5 82.5v423h127v-383q0 -26 11 -36t36 -10h35v-106h-102q-52 0 -79.5 29.5z" />
    <glyph glyph-name="uni0E42" unicode="&#xe42;" horiz-adv-x="341" 
d="M134.5 29.5q-27.5 29.5 -27.5 82.5v364q0 72 -26.5 112.5t-85.5 64.5v99h336v-106h-170q73 -53 73 -173v-321q0 -26 11 -36t36 -10h35v-106h-102q-52 0 -79.5 29.5z" />
    <glyph glyph-name="uni0E43" unicode="&#xe43;" horiz-adv-x="311" 
d="M86.5 29.5q-27.5 29.5 -27.5 82.5v254q0 48 18 82.5t51 73.5q22 27 32.5 44.5t10.5 37.5q0 31 -16 45t-56 14q-60 0 -109 -35v97q31 18 70 27.5t80 9.5q81 0 121 -38t40 -99q0 -35 -14 -62t-42 -63q-30 -38 -44.5 -65.5t-14.5 -66.5v-216q0 -26 11 -36t36 -10h35v-106
h-102q-52 0 -79.5 29.5z" />
    <glyph glyph-name="uni0E44" unicode="&#xe44;" horiz-adv-x="341" 
d="M119.5 29.5q-27.5 29.5 -27.5 82.5v361q0 120 73 173h-170v106h336v-99q-59 -24 -85.5 -64.5t-26.5 -112.5v-324q0 -26 11 -36t36 -10h35v-106h-102q-52 0 -79.5 29.5z" />
    <glyph glyph-name="uni0E45" unicode="&#xe45;" horiz-adv-x="419" 
d="M232 342q0 59 -23.5 84t-84.5 25q-56 0 -114 -29v99q24 12 63.5 20.5t77.5 8.5q103 0 155.5 -56t52.5 -160v-530h-127v538z" />
    <glyph glyph-name="uni0E46" unicode="&#xe46;" horiz-adv-x="613" 
d="M426 382q0 37 -11 53t-40 16q-48 0 -55 -58h-71q-3 30 -11 44t-33 14q-55 0 -55 -93q0 -42 20 -59.5t57 -17.5q39 0 69 10v-97q-39 -12 -91 -12q-79 0 -132 43t-53 133q0 82 39 137t122 55q73 0 105 -57q31 57 111 57q81 0 118.5 -49.5t37.5 -132.5v-368h-127v382z" />
    <glyph glyph-name="uni0E47" unicode="&#xe47;" 
d="M-446 633.5q-33 30.5 -33 81.5q0 64 37 96.5t101 32.5h245v-69h-236q-30 0 -45.5 -12t-15.5 -39q0 -24 12.5 -36.5t35.5 -12.5q25 0 38.5 14t13.5 37h68q0 -24 14 -35.5t39 -11.5h59v-72h-57q-34 0 -58.5 13t-31.5 32q-9 -20 -36 -34.5t-61 -14.5q-56 0 -89 30.5z" />
    <glyph glyph-name="uni0E48" unicode="&#xe48;" 
d="M-186 780h127v-172h-127v172z" />
    <glyph glyph-name="uni0E49" unicode="&#xe49;" 
d="M-288 671q0 11 -4.5 16t-16.5 5h-46v88h85q34 0 50 -16.5t16 -40.5v-32h205v-83h-289v63z" />
    <glyph glyph-name="uni0E4A" unicode="&#xe4a;" 
d="M-493 697q0 55 27.5 87t71.5 32q30 0 47 -10.5t27 -30.5q21 39 73 39q82 0 82 -89v-49h13q15 0 20.5 7t5.5 23v104h70v-107q0 -45 -25 -70.5t-74 -25.5h-75v87q0 40 -29 40q-19 0 -25 -10t-6 -31v-18h-58v17q0 21 -6 31.5t-23 10.5q-18 0 -26.5 -11.5t-8.5 -37.5
q0 -43 25 -78h-81q-25 38 -25 90z" />
    <glyph glyph-name="uni0E4B" unicode="&#xe4b;" 
d="M-245 651h-61v96h61v43h123v-43h61v-96h-61v-43h-123v43z" />
    <glyph glyph-name="uni0E4C" unicode="&#xe4c;" 
d="M-313 672q0 42 22 63.5t71 21.5h221v-81h-170q-17 0 -23.5 -7t-6.5 -24v-37h-114v64z" />
    <glyph glyph-name="uni0E4D" unicode="&#xe4d;" 
d="M-213.5 625q-33.5 33 -33.5 81q0 47 34 81t81 34t80.5 -34t33.5 -81q0 -48 -33.5 -81t-80.5 -33q-48 0 -81.5 33zM-103 674.5q13 13.5 13 30.5t-12.5 30.5t-29.5 13.5q-18 0 -30.5 -13t-12.5 -31q0 -17 12.5 -30.5t30.5 -13.5q16 0 29 13.5z" />
    <glyph glyph-name="uni0E4E" unicode="&#xe4e;" 
d="M-274 629q-28 23 -28 62t22.5 61t59.5 25q-15 17 -15 41q0 32 25 50.5t63 18.5q39 0 62 -14v-54q-19 15 -48 15q-16 0 -23.5 -5t-7.5 -17q0 -24 36 -32v-53q-22 7 -43 7q-28 0 -40.5 -9t-12.5 -30q0 -17 13.5 -25.5t35.5 -8.5q34 0 57 17v-55q-26 -17 -78 -17
q-50 0 -78 23z" />
    <glyph glyph-name="uni0E4F" unicode="&#xe4f;" horiz-adv-x="588" 
d="M165.5 18q-58.5 33 -92 91.5t-33.5 130.5t33.5 130.5t92 91.5t128.5 33q71 0 129 -33t91.5 -91.5t33.5 -130.5t-33.5 -130.5t-91.5 -91.5t-129 -33q-70 0 -128.5 33zM379 92.5q38 21.5 60 60t22 87.5t-22 87t-60 59.5t-85 21.5t-85 -21.5t-59.5 -59.5t-21.5 -87
t21.5 -87.5t59.5 -60t85 -21.5t85 21.5zM195 139q-40 39 -40 101t40 101t100 39q59 0 99.5 -39.5t40.5 -100.5q0 -62 -40 -101t-100 -39t-100 39zM339.5 193.5q17.5 17.5 17.5 46.5t-17.5 46.5t-44.5 17.5t-45 -17.5t-18 -46.5t18 -46.5t45 -17.5t44.5 17.5z" />
    <glyph glyph-name="uni0E50" unicode="&#xe50;" horiz-adv-x="646" 
d="M175 17q-64 32 -99.5 89.5t-35.5 133.5t35.5 133.5t99.5 89.5t148 32t148 -32t99.5 -89.5t35.5 -133.5t-35.5 -133.5t-99.5 -89.5t-148 -32t-148 32zM434.5 126q43.5 42 43.5 114q0 71 -44 113.5t-111 42.5t-111 -42.5t-44 -113.5q0 -72 43.5 -114t111.5 -42t111.5 42z
" />
    <glyph glyph-name="uni0E51" unicode="&#xe51;" horiz-adv-x="626" 
d="M262 19q73 17 115.5 44.5t61.5 68.5t19 103q0 80 -37 120.5t-119 40.5q-63 0 -98.5 -33t-35.5 -89q0 -49 27.5 -75t80.5 -26q46 0 78 17v-92q-18 -11 -46 -17.5t-60 -6.5q-93 0 -150.5 54.5t-57.5 144.5q0 104 71 163t191 59q137 0 210.5 -70t73.5 -187q0 -122 -81 -205
t-243 -121v107z" />
    <glyph glyph-name="uni0E52" unicode="&#xe52;" horiz-adv-x="730" 
d="M143 50q-83 65 -83 198v302h112v-296q0 -86 44.5 -129t149.5 -43q94 0 142.5 36.5t48.5 103.5v127q0 44 -35 44q-36 0 -53 -58h-75q-4 31 -12.5 46t-30.5 15q-20 0 -32 -19t-12 -60q0 -43 20.5 -65.5t58.5 -22.5q43 0 67 9v-96q-19 -6 -35.5 -8t-42.5 -2q-80 0 -128 47
t-48 138q0 44 15 85t46.5 67t76.5 26q70 0 95 -61q14 28 41.5 44.5t63.5 16.5q66 0 99.5 -35.5t33.5 -98.5v-144q0 -69 -41 -122t-111 -81.5t-152 -28.5q-140 0 -223 65z" />
    <glyph glyph-name="uni0E53" unicode="&#xe53;" horiz-adv-x="667" 
d="M143.5 13.5q-48.5 28.5 -76 84.5t-27.5 134q0 127 52.5 195t142.5 68q70 0 103 -50q18 23 48.5 36.5t66.5 13.5q70 0 112 -39.5t42 -104.5v-351h-113v339q0 30 -13.5 43.5t-42.5 13.5q-51 0 -51 -53v-163h-102v163q0 28 -10 40.5t-35 12.5q-72 0 -72 -166q0 -146 97 -146
q21 0 44.5 3t36.5 8v-99q-44 -11 -94 -11q-60 0 -108.5 28.5z" />
    <glyph glyph-name="uni0E54" unicode="&#xe54;" horiz-adv-x="635" 
d="M111.5 60q-71.5 60 -71.5 176q0 73 32 133.5t97 97t160 36.5q65 0 95.5 4t45.5 16.5t23 40.5h122q-21 -80 -76 -119.5t-158 -39.5q-112 0 -162.5 -38.5t-50.5 -131.5q0 -74 32.5 -105t96.5 -31h38q-18 16 -29 40.5t-11 50.5q0 61 45.5 96.5t117.5 35.5q75 0 114 -19v-99
q-14 9 -35 14t-44 5q-72 0 -72 -60q0 -32 21 -48t59 -16h93v-99h-289q-122 0 -193.5 60z" />
    <glyph glyph-name="uni0E55" unicode="&#xe55;" horiz-adv-x="635" 
d="M111.5 60q-71.5 60 -71.5 176q0 104 58.5 171.5t154.5 82.5q-10 22 -10 42q0 47 28.5 72.5t75.5 25.5t74 -25t27 -65q0 -19 -7 -33q30 2 44.5 15.5t20.5 41.5h109q-21 -79 -76.5 -118.5t-157.5 -39.5q-112 0 -162.5 -39t-50.5 -132q0 -74 32.5 -105t96.5 -31h38
q-18 16 -29 40.5t-11 50.5q0 61 45.5 96.5t117.5 35.5q75 0 114 -19v-99q-14 9 -35 14t-44 5q-72 0 -72 -60q0 -32 21 -48t59 -16h93v-99h-289q-122 0 -193.5 60zM375 503.5q11 11.5 11 28.5t-10.5 28t-28.5 11q-16 0 -26.5 -11t-10.5 -28t10.5 -28.5t26.5 -11.5
q17 0 28 11.5z" />
    <glyph glyph-name="uni0E56" unicode="&#xe56;" horiz-adv-x="649" 
d="M206.5 0.5q-55.5 15.5 -89.5 45.5v106q42 -34 94 -51t108 -17q78 0 120 39t42 114q0 78 -34.5 118.5t-110.5 40.5q-56 0 -100 -30t-63 -86h-87l-66 271h105l37 -148q28 44 77.5 68t114.5 24q129 0 192 -71t63 -187q0 -72 -34.5 -129.5t-99 -90t-152.5 -32.5
q-61 0 -116.5 15.5z" />
    <glyph glyph-name="uni0E57" unicode="&#xe57;" horiz-adv-x="839" 
d="M143.5 13.5q-48.5 28.5 -76 84.5t-27.5 134q0 127 52.5 195t142.5 68q70 0 103 -50q18 23 48.5 36.5t66.5 13.5q70 0 112 -39.5t42 -104.5v-254q34 0 51.5 15t17.5 53v385h103v-365q0 -185 -209 -185h-76v339q0 30 -13.5 43.5t-42.5 13.5q-51 0 -51 -53v-163h-102v163
q0 28 -10 40.5t-35 12.5q-72 0 -72 -166q0 -146 97 -146q21 0 44.5 3t36.5 8v-99q-44 -11 -94 -11q-60 0 -108.5 28.5z" />
    <glyph glyph-name="uni0E58" unicode="&#xe58;" horiz-adv-x="664" 
d="M90 47.5q-50 62.5 -50 182.5q0 73 32 135.5t97 100t160 37.5q65 0 95.5 4t45.5 16.5t23 40.5h122q-21 -80 -76 -119.5t-158 -39.5q-112 0 -163.5 -42.5t-51.5 -133.5q0 -79 15.5 -113t48.5 -34q29 0 40.5 14.5t11.5 43.5v40h118v-40q0 -58 51 -58q28 0 43.5 22.5
t15.5 65.5q0 34 -16 54.5t-46 20.5q-37 0 -60 -13v99q33 13 84 13q66 0 109 -46.5t43 -127.5q0 -87 -44.5 -136t-118.5 -49q-34 0 -68 13t-52 36q-17 -24 -48 -36.5t-69 -12.5q-84 0 -134 62.5z" />
    <glyph glyph-name="uni0E59" unicode="&#xe59;" horiz-adv-x="728" 
d="M142 13.5q-46 28.5 -74 84t-28 133.5q0 127 54.5 195.5t146.5 68.5q36 0 63 -14t42 -33q15 20 42 33.5t58 13.5q41 0 67 -13.5t46 -41.5l43 110h106l-114 -290h-98l21 53q5 17 5 30q0 23 -13.5 38t-39.5 15q-28 0 -43 -13t-15 -37q0 -12 5 -30l97 -316h-106l-100 327
q-8 27 -14.5 40t-18.5 21t-33 8q-76 0 -76 -165q0 -147 101 -147q34 0 61 10v-99q-42 -10 -84 -10q-55 0 -101 28.5z" />
    <glyph glyph-name="uni0E5A" unicode="&#xe5a;" horiz-adv-x="886" 
d="M384 243q-59 -33 -152 -33q-84 0 -138 45t-54 124q0 80 49.5 125.5t127.5 45.5q59 0 95 -13v-96q-30 10 -59 10q-39 0 -61 -17.5t-22 -54.5q0 -70 93 -70q71 0 121 35v191h127v-211q24 -15 67 -15q71 0 121 35v191h127v-535h-127v243q-59 -33 -152 -33q-25 0 -36 2v-212
h-127v243z" />
    <glyph glyph-name="uni0E5B" unicode="&#xe5b;" horiz-adv-x="1138" 
d="M113 50q-73 65 -73 188q0 73 30.5 131.5t86 92t126.5 33.5q107 0 161.5 -51.5t54.5 -144.5q0 -88 -51 -133t-127 -45q-55 0 -91 21v98q15 -11 37 -18t44 -7q43 0 66 20t23 65q0 101 -118 101q-65 0 -104 -42.5t-39 -120.5t44.5 -118.5t129.5 -40.5q117 0 169.5 55.5
t52.5 172.5v97h116l36 -136h2l19 122h100l29 -128h2l17 108h76l37 -110h2l18 47h109v-84h-76l-24 -69h-59l-32 89h-2l-32 -114h-69l-42 128h-2l-35 -149h-71l-35 140h-2q1 -77 -37.5 -137t-108.5 -93t-158 -33q-127 0 -200 65z" />
    <glyph glyph-name="uni1E0C" unicode="&#x1e0c;" horiz-adv-x="706" 
d="M60 699h234q114 0 198 -42t129 -120t45 -184q0 -174 -101 -263.5t-282 -89.5h-223v699zM285 105q122 0 187.5 65.5t65.5 182.5q0 71 -29 125.5t-83 85t-128 30.5h-111v-489h98zM230 -159.5q-20 19.5 -20 46.5q0 28 20 47.5t47 19.5t46.5 -19.5t19.5 -47.5t-19.5 -47
t-46.5 -19t-47 19.5z" />
    <glyph glyph-name="uni1E0D" unicode="&#x1e0d;" horiz-adv-x="665" 
d="M162.5 16.5q-57.5 31.5 -90 89t-32.5 133.5q0 75 32.5 133t90 90.5t130.5 32.5q118 0 186 -62v306h126v-739h-122v56q-41 -38 -85 -54.5t-105 -16.5q-73 0 -130.5 31.5zM420 113q42 29 59 78v97q-16 49 -58.5 78.5t-96.5 29.5q-68 0 -112 -44t-44 -113t44 -112t112 -43
q54 0 96 29zM269 -159.5q-20 19.5 -20 46.5q0 28 20 47.5t47 19.5t46.5 -19.5t19.5 -47.5t-19.5 -47t-46.5 -19t-47 19.5z" />
    <glyph glyph-name="uni1E0E" unicode="&#x1e0e;" horiz-adv-x="706" 
d="M60 699h234q114 0 198 -42t129 -120t45 -184q0 -174 -101 -263.5t-282 -89.5h-223v699zM285 105q122 0 187.5 65.5t65.5 182.5q0 71 -29 125.5t-83 85t-128 30.5h-111v-489h98zM133 -68h323v-83h-323v83z" />
    <glyph glyph-name="uni1E0F" unicode="&#x1e0f;" horiz-adv-x="665" 
d="M162.5 16.5q-57.5 31.5 -90 89t-32.5 133.5q0 75 32.5 133t90 90.5t130.5 32.5q118 0 186 -62v306h126v-739h-122v56q-41 -38 -85 -54.5t-105 -16.5q-73 0 -130.5 31.5zM420 113q42 29 59 78v97q-16 49 -58.5 78.5t-96.5 29.5q-68 0 -112 -44t-44 -113t44 -112t112 -43
q54 0 96 29zM178 -68h323v-83h-323v83z" />
    <glyph glyph-name="uni1E20" unicode="&#x1e20;" horiz-adv-x="713" 
d="M251 836h323v-84h-323v84zM219 29.5q-85 44.5 -132 127t-47 192.5t47 192.5t132 127.5t195 45q75 0 134 -16t107 -51v-121q-44 38 -101 55t-129 17t-130.5 -30.5t-92.5 -87t-34 -131.5q0 -76 32 -132.5t89 -87t130 -30.5q77 0 127 26v157h-118v101h245v-326
q-93 -72 -259 -72q-110 0 -195 44.5z" />
    <glyph glyph-name="uni1E21" unicode="&#x1e21;" horiz-adv-x="665" 
d="M169 629h323v-84h-323v84zM218 -221q-48 9 -80 24v100q78 -34 176 -34q88 0 126.5 37t38.5 110v31q-34 -31 -81 -46.5t-101 -15.5q-73 0 -132 32.5t-92 90.5t-33 133q0 76 32.5 133.5t90 89t130.5 31.5q61 0 105 -16.5t85 -54.5v56h122v-451q0 -124 -71.5 -191.5
t-219.5 -67.5q-48 0 -96 9zM420.5 113.5q42.5 29.5 58.5 78.5v97q-17 49 -59 78t-96 29q-68 0 -112 -43t-44 -112t44 -113t112 -44q54 0 96.5 29.5z" />
    <glyph glyph-name="uni1E24" unicode="&#x1e24;" horiz-adv-x="709" 
d="M60 699h127v-290h336v290h126v-699h-126v304h-336v-304h-127v699zM308 -159.5q-20 19.5 -20 46.5q0 28 20 47.5t47 19.5t46.5 -19.5t19.5 -47.5t-19.5 -47t-46.5 -19t-47 19.5z" />
    <glyph glyph-name="uni1E25" unicode="&#x1e25;" horiz-adv-x="610" 
d="M60 739h126v-320q68 76 176 76q97 0 145 -52.5t48 -139.5v-303h-126v291q0 105 -98 105q-43 0 -81 -20.5t-64 -61.5v-314h-126v739zM259 -159.5q-20 19.5 -20 46.5q0 28 20 47.5t47 19.5t46.5 -19.5t19.5 -47.5t-19.5 -47t-46.5 -19t-47 19.5z" />
    <glyph glyph-name="uni1E2A" unicode="&#x1e2a;" horiz-adv-x="709" 
d="M60 699h127v-290h336v290h126v-699h-126v304h-336v-304h-127v699zM236 -168.5q-43 41.5 -43 109.5h95q0 -33 17 -50t49 -17t49 17t17 50h95q0 -68 -43 -109.5t-118 -41.5t-118 41.5z" />
    <glyph glyph-name="uni1E2B" unicode="&#x1e2b;" horiz-adv-x="610" 
d="M60 739h126v-320q68 76 176 76q97 0 145 -52.5t48 -139.5v-303h-126v291q0 105 -98 105q-43 0 -81 -20.5t-64 -61.5v-314h-126v739zM194 -168.5q-43 41.5 -43 109.5h95q0 -33 17 -50t49 -17t49 17t17 50h95q0 -68 -43 -109.5t-118 -41.5t-118 41.5z" />
    <glyph glyph-name="uni1E36" unicode="&#x1e36;" horiz-adv-x="543" 
d="M60 699h127v-594h336v-105h-463v699zM215 -159.5q-20 19.5 -20 46.5q0 28 20 47.5t47 19.5t46.5 -19.5t19.5 -47.5t-19.5 -47t-46.5 -19t-47 19.5z" />
    <glyph glyph-name="uni1E37" unicode="&#x1e37;" horiz-adv-x="246" 
d="M60 739h126v-739h-126v739zM77 -159.5q-20 19.5 -20 46.5q0 28 20 47.5t47 19.5t46.5 -19.5t19.5 -47.5t-19.5 -47t-46.5 -19t-47 19.5z" />
    <glyph glyph-name="uni1E38" unicode="&#x1e38;" horiz-adv-x="560" 
d="M70 836h323v-84h-323v84zM77 699h127v-594h336v-105h-463v699zM256 -159.5q-20 19.5 -20 46.5q0 28 20 47.5t47 19.5t46.5 -19.5t19.5 -47.5t-19.5 -47t-46.5 -19t-47 19.5z" />
    <glyph glyph-name="uni1E39" unicode="&#x1e39;" horiz-adv-x="246" 
d="M-38 850h323v-84h-323v84zM60 739h126v-739h-126v739zM77 -159.5q-20 19.5 -20 46.5q0 28 20 47.5t47 19.5t46.5 -19.5t19.5 -47.5t-19.5 -47t-46.5 -19t-47 19.5z" />
    <glyph glyph-name="uni1E3A" unicode="&#x1e3a;" horiz-adv-x="543" 
d="M60 699h127v-594h336v-105h-463v699zM125 -68h323v-83h-323v83z" />
    <glyph glyph-name="uni1E3B" unicode="&#x1e3b;" horiz-adv-x="246" 
d="M60 739h126v-739h-126v739zM-38 -68h323v-83h-323v83z" />
    <glyph glyph-name="uni1E42" unicode="&#x1e42;" horiz-adv-x="836" 
d="M60 699h124l234 -512l234 512h124v-699h-120v454l-208 -454h-60l-208 454v-454h-120v699zM372 -159.5q-20 19.5 -20 46.5q0 28 20 47.5t47 19.5t46.5 -19.5t19.5 -47.5t-19.5 -47t-46.5 -19t-47 19.5z" />
    <glyph glyph-name="uni1E43" unicode="&#x1e43;" horiz-adv-x="872" 
d="M60 480h118v-63q32 38 75 58t87 20q56 0 90 -18.5t51 -55.5q32 36 77.5 55t90.5 19q90 0 129 -45t39 -132v-318h-121v301q0 51 -20.5 73t-65.5 22q-32 0 -58.5 -12.5t-48.5 -42.5q2 -32 2 -52v-289h-122v303q0 52 -17 72.5t-62 20.5q-68 0 -122 -77v-319h-122v480z
M400 -159.5q-20 19.5 -20 46.5q0 28 20 47.5t47 19.5t46.5 -19.5t19.5 -47.5t-19.5 -47t-46.5 -19t-47 19.5z" />
    <glyph glyph-name="uni1E44" unicode="&#x1e44;" horiz-adv-x="694" 
d="M303 771.5q-20 19.5 -20 46.5q0 28 20 47.5t47 19.5t46.5 -19.5t19.5 -47.5t-19.5 -47t-46.5 -19t-47 19.5zM60 699h120l327 -487v487h127v-699h-120l-327 488v-488h-127v699z" />
    <glyph glyph-name="uni1E45" unicode="&#x1e45;" horiz-adv-x="610" 
d="M255 564.5q-20 19.5 -20 46.5q0 28 20 47.5t47 19.5t46.5 -19.5t19.5 -47.5t-19.5 -47t-46.5 -19t-47 19.5zM60 480h122v-65q34 41 81 60.5t99 19.5q97 0 145 -52.5t48 -139.5v-303h-126v291q0 105 -98 105q-43 0 -81 -20.5t-64 -61.5v-314h-126v480z" />
    <glyph glyph-name="uni1E46" unicode="&#x1e46;" horiz-adv-x="694" 
d="M60 699h120l327 -487v487h127v-699h-120l-327 488v-488h-127v699zM302 -159.5q-20 19.5 -20 46.5q0 28 20 47.5t47 19.5t46.5 -19.5t19.5 -47.5t-19.5 -47t-46.5 -19t-47 19.5z" />
    <glyph glyph-name="uni1E47" unicode="&#x1e47;" horiz-adv-x="610" 
d="M60 480h122v-65q34 41 81 60.5t99 19.5q97 0 145 -52.5t48 -139.5v-303h-126v291q0 105 -98 105q-43 0 -81 -20.5t-64 -61.5v-314h-126v480zM259 -159.5q-20 19.5 -20 46.5q0 28 20 47.5t47 19.5t46.5 -19.5t19.5 -47.5t-19.5 -47t-46.5 -19t-47 19.5z" />
    <glyph glyph-name="uni1E48" unicode="&#x1e48;" horiz-adv-x="694" 
d="M60 699h120l327 -487v487h127v-699h-120l-327 488v-488h-127v699zM192 -68h323v-83h-323v83z" />
    <glyph glyph-name="uni1E49" unicode="&#x1e49;" horiz-adv-x="610" 
d="M60 480h122v-65q34 41 81 60.5t99 19.5q97 0 145 -52.5t48 -139.5v-303h-126v291q0 105 -98 105q-43 0 -81 -20.5t-64 -61.5v-314h-126v480zM158 -68h323v-83h-323v83z" />
    <glyph glyph-name="uni1E5A" unicode="&#x1e5a;" horiz-adv-x="634" 
d="M60 699h292q116 0 179 -57t63 -165q0 -77 -38 -131t-108 -77l142 -269h-130l-135 256h-138v-256h-127v699zM329 361q62 0 100 29t38 87q0 117 -138 117h-142v-233h142zM259 -159.5q-20 19.5 -20 46.5q0 28 20 47.5t47 19.5t46.5 -19.5t19.5 -47.5t-19.5 -47t-46.5 -19
t-47 19.5z" />
    <glyph glyph-name="uni1E5B" unicode="&#x1e5b;" horiz-adv-x="407" 
d="M60 480h122v-77q29 39 82.5 58t122.5 19v-96q-73 0 -126.5 -22.5t-74.5 -70.5v-291h-126v480zM69 -159.5q-20 19.5 -20 46.5q0 28 20 47.5t47 19.5t46.5 -19.5t19.5 -47.5t-19.5 -47t-46.5 -19t-47 19.5z" />
    <glyph glyph-name="uni1E5C" unicode="&#x1e5c;" horiz-adv-x="634" 
d="M123 836h323v-84h-323v84zM60 699h292q116 0 179 -57t63 -165q0 -77 -38 -131t-108 -77l142 -269h-130l-135 256h-138v-256h-127v699zM329 361q62 0 100 29t38 87q0 117 -138 117h-142v-233h142zM239 -159.5q-20 19.5 -20 46.5q0 28 20 47.5t47 19.5t46.5 -19.5
t19.5 -47.5t-19.5 -47t-46.5 -19t-47 19.5z" />
    <glyph glyph-name="uni1E5D" unicode="&#x1e5d;" horiz-adv-x="434" 
d="M70 629h323v-84h-323v84zM87 480h122v-77q29 39 82.5 58t122.5 19v-96q-73 0 -126.5 -22.5t-74.5 -70.5v-291h-126v480zM99 -159.5q-20 19.5 -20 46.5q0 28 20 47.5t47 19.5t46.5 -19.5t19.5 -47.5t-19.5 -47t-46.5 -19t-47 19.5z" />
    <glyph glyph-name="uni1E5E" unicode="&#x1e5e;" horiz-adv-x="634" 
d="M60 699h292q116 0 179 -57t63 -165q0 -77 -38 -131t-108 -77l142 -269h-130l-135 256h-138v-256h-127v699zM329 361q62 0 100 29t38 87q0 117 -138 117h-142v-233h142zM143 -68h323v-83h-323v83z" />
    <glyph glyph-name="uni1E5F" unicode="&#x1e5f;" horiz-adv-x="407" 
d="M60 480h122v-77q29 39 82.5 58t122.5 19v-96q-73 0 -126.5 -22.5t-74.5 -70.5v-291h-126v480zM17 -68h323v-83h-323v83z" />
    <glyph glyph-name="uni1E60" unicode="&#x1e60;" horiz-adv-x="567" 
d="M244 771.5q-20 19.5 -20 46.5q0 28 20 47.5t47 19.5t46.5 -19.5t19.5 -47.5t-19.5 -47t-46.5 -19t-47 19.5zM139.5 -3.5q-60.5 11.5 -99.5 30.5v109q50 -24 105 -36t108 -12q67 0 102 25t35 69q0 31 -16 51.5t-47 36t-95 40.5q-98 40 -142 89t-44 122q0 57 31 101t87 68
t129 24q60 0 106.5 -9.5t91.5 -29.5v-106q-87 42 -176 42q-64 0 -99 -23.5t-35 -66.5q0 -31 16 -50.5t42.5 -33t95.5 -42.5q70 -29 110.5 -57t61 -65.5t20.5 -91.5q0 -93 -67 -144.5t-198 -51.5q-62 0 -122.5 11.5z" />
    <glyph glyph-name="uni1E61" unicode="&#x1e61;" horiz-adv-x="499" 
d="M200 564.5q-20 19.5 -20 46.5q0 28 20 47.5t47 19.5t46.5 -19.5t19.5 -47.5t-19.5 -47t-46.5 -19t-47 19.5zM136 -3q-59 12 -92 33v107q39 -24 93 -38.5t102 -14.5t70 8.5t22 31.5q0 18 -11.5 29.5t-37 21t-78.5 23.5q-60 17 -94.5 35t-52 45.5t-17.5 71.5q0 72 57 108.5
t154 36.5q50 0 99.5 -9.5t77.5 -26.5v-103q-30 18 -73 29t-88 11q-49 0 -74 -9.5t-25 -36.5q0 -18 13.5 -28.5t35.5 -18t80 -22.5q62 -17 97 -37t50 -48t15 -70q0 -64 -54.5 -102.5t-157.5 -38.5q-52 0 -111 12z" />
    <glyph glyph-name="uni1E62" unicode="&#x1e62;" horiz-adv-x="567" 
d="M139.5 -3.5q-60.5 11.5 -99.5 30.5v109q50 -24 105 -36t108 -12q67 0 102 25t35 69q0 31 -16 51.5t-47 36t-95 40.5q-98 40 -142 89t-44 122q0 57 31 101t87 68t129 24q60 0 106.5 -9.5t91.5 -29.5v-106q-87 42 -176 42q-64 0 -99 -23.5t-35 -66.5q0 -31 16 -50.5
t42.5 -33t95.5 -42.5q70 -29 110.5 -57t61 -65.5t20.5 -91.5q0 -93 -67 -144.5t-198 -51.5q-62 0 -122.5 11.5zM222 -159.5q-20 19.5 -20 46.5q0 28 20 47.5t47 19.5t46.5 -19.5t19.5 -47.5t-19.5 -47t-46.5 -19t-47 19.5z" />
    <glyph glyph-name="uni1E63" unicode="&#x1e63;" horiz-adv-x="499" 
d="M136 -3q-59 12 -92 33v107q39 -24 93 -38.5t102 -14.5t70 8.5t22 31.5q0 18 -11.5 29.5t-37 21t-78.5 23.5q-60 17 -94.5 35t-52 45.5t-17.5 71.5q0 72 57 108.5t154 36.5q50 0 99.5 -9.5t77.5 -26.5v-103q-30 18 -73 29t-88 11q-49 0 -74 -9.5t-25 -36.5
q0 -18 13.5 -28.5t35.5 -18t80 -22.5q62 -17 97 -37t50 -48t15 -70q0 -64 -54.5 -102.5t-157.5 -38.5q-52 0 -111 12zM197 -159.5q-20 19.5 -20 46.5q0 28 20 47.5t47 19.5t46.5 -19.5t19.5 -47.5t-19.5 -47t-46.5 -19t-47 19.5z" />
    <glyph glyph-name="uni1E6C" unicode="&#x1e6c;" horiz-adv-x="589" 
d="M231 594h-211v105h549v-105h-211v-594h-127v594zM248 -159.5q-20 19.5 -20 46.5q0 28 20 47.5t47 19.5t46.5 -19.5t19.5 -47.5t-19.5 -47t-46.5 -19t-47 19.5z" />
    <glyph glyph-name="uni1E6D" unicode="&#x1e6d;" horiz-adv-x="388" 
d="M133 29q-41 44 -41 124v231h-72v96h72v144h126v-144h115v-96h-115v-215q0 -46 17 -65.5t62 -19.5q31 0 61 14v-96q-43 -17 -105 -17q-79 0 -120 44zM183 -159.5q-20 19.5 -20 46.5q0 28 20 47.5t47 19.5t46.5 -19.5t19.5 -47.5t-19.5 -47t-46.5 -19t-47 19.5z" />
    <glyph glyph-name="uni1E6E" unicode="&#x1e6e;" horiz-adv-x="589" 
d="M231 594h-211v105h549v-105h-211v-594h-127v594zM133 -68h323v-83h-323v83z" />
    <glyph glyph-name="uni1E6F" unicode="&#x1e6f;" horiz-adv-x="399" 
d="M143 29q-41 44 -41 124v231h-72v96h72v144h126v-144h115v-96h-115v-215q0 -46 17 -65.5t62 -19.5q31 0 61 14v-96q-43 -17 -105 -17q-79 0 -120 44zM46 -68h323v-83h-323v83z" />
    <glyph glyph-name="Wgrave" unicode="&#x1e80;" horiz-adv-x="1006" 
d="M354 916h133l69 -174h-116zM46 699h132l139 -494l137 494h98l137 -494l139 494h132l-199 -699h-118l-140 486l-140 -486h-118z" />
    <glyph glyph-name="wgrave" unicode="&#x1e81;" horiz-adv-x="830" 
d="M264 709h133l69 -174h-116zM40 480h126l98 -325l96 325h110l96 -325l98 325h126l-157 -480h-116l-102 326l-102 -326h-116z" />
    <glyph glyph-name="Wacute" unicode="&#x1e82;" horiz-adv-x="1006" 
d="M520 916h133l-86 -174h-116zM46 699h132l139 -494l137 494h98l137 -494l139 494h132l-199 -699h-118l-140 486l-140 -486h-118z" />
    <glyph glyph-name="wacute" unicode="&#x1e83;" horiz-adv-x="830" 
d="M426 709h133l-86 -174h-116zM40 480h126l98 -325l96 325h110l96 -325l98 325h126l-157 -480h-116l-102 326l-102 -326h-116z" />
    <glyph glyph-name="Wdieresis" unicode="&#x1e84;" horiz-adv-x="1006" 
d="M338 771.5q-20 19.5 -20 46.5q0 28 20 47.5t47 19.5t46.5 -19.5t19.5 -47.5t-19.5 -47t-46.5 -19t-47 19.5zM575 771.5q-20 19.5 -20 46.5q0 28 20 47.5t47 19.5t46.5 -19.5t19.5 -47.5t-19.5 -47t-46.5 -19t-47 19.5zM46 699h132l139 -494l137 494h98l137 -494l139 494
h132l-199 -699h-118l-140 486l-140 -486h-118z" />
    <glyph glyph-name="wdieresis" unicode="&#x1e85;" horiz-adv-x="830" 
d="M250 564.5q-20 19.5 -20 46.5q0 28 20 47.5t47 19.5t46.5 -19.5t19.5 -47.5t-19.5 -47t-46.5 -19t-47 19.5zM487 564.5q-20 19.5 -20 46.5q0 28 20 47.5t47 19.5t46.5 -19.5t19.5 -47.5t-19.5 -47t-46.5 -19t-47 19.5zM40 480h126l98 -325l96 325h110l96 -325l98 325h126
l-157 -480h-116l-102 326l-102 -326h-116z" />
    <glyph glyph-name="uni1E8E" unicode="&#x1e8e;" horiz-adv-x="726" 
d="M315 771.5q-20 19.5 -20 46.5q0 28 20 47.5t47 19.5t46.5 -19.5t19.5 -47.5t-19.5 -47t-46.5 -19t-47 19.5zM300 266l-254 433h135l180 -311l185 311h134l-259 -433v-266h-121v266z" />
    <glyph glyph-name="uni1E8F" unicode="&#x1e8f;" horiz-adv-x="600" 
d="M269 564.5q-20 19.5 -20 46.5q0 28 20 47.5t47 19.5t46.5 -19.5t19.5 -47.5t-19.5 -47t-46.5 -19t-47 19.5zM120.5 -194.5q-28.5 3.5 -44.5 9.5v96q25 -10 62 -10q38 0 57 17t33 54l19 50l-207 458h127l148 -350l139 350h126l-210 -523q-32 -79 -77.5 -117t-117.5 -38
q-26 0 -54.5 3.5z" />
    <glyph glyph-name="uni1E92" unicode="&#x1e92;" horiz-adv-x="619" 
d="M40 83l366 511h-357v105h512v-83l-365 -511h383v-105h-539v83zM273 -159.5q-20 19.5 -20 46.5q0 28 20 47.5t47 19.5t46.5 -19.5t19.5 -47.5t-19.5 -47t-46.5 -19t-47 19.5z" />
    <glyph glyph-name="uni1E93" unicode="&#x1e93;" horiz-adv-x="501" 
d="M40 79l255 305h-248v96h406v-79l-254 -305h262v-96h-421v79zM206 -159.5q-20 19.5 -20 46.5q0 28 20 47.5t47 19.5t46.5 -19.5t19.5 -47.5t-19.5 -47t-46.5 -19t-47 19.5z" />
    <glyph glyph-name="uni1E97" unicode="&#x1e97;" horiz-adv-x="388" 
d="M-6 682.5q-20 19.5 -20 46.5q0 28 20 47.5t47 19.5t46.5 -19.5t19.5 -47.5t-19.5 -47t-46.5 -19t-47 19.5zM231 682.5q-20 19.5 -20 46.5q0 28 20 47.5t47 19.5t46.5 -19.5t19.5 -47.5t-19.5 -47t-46.5 -19t-47 19.5zM133 29q-41 44 -41 124v231h-72v96h72v144h126v-144
h115v-96h-115v-215q0 -46 17 -65.5t62 -19.5q31 0 61 14v-96q-43 -17 -105 -17q-79 0 -120 44z" />
    <glyph glyph-name="uni1E9E" unicode="&#x1e9e;" horiz-adv-x="638" 
d="M240 4v117q41 -21 101 -21q62 0 95.5 26.5t33.5 78.5q0 59 -40 84.5t-106 25.5h-43v71l134 138q-8 32 -38 53t-75 21q-56 0 -88.5 -34.5t-32.5 -100.5v-463h-126v459q0 121 62 188t185 67q76 0 131 -28.5t84.5 -76.5t32.5 -107l-107 -110q81 -14 118 -62t37 -131
q0 -97 -59 -155.5t-169 -58.5q-85 0 -130 19z" />
    <glyph glyph-name="uni1EA0" unicode="&#x1ea0;" horiz-adv-x="762" 
d="M320 699h123l279 -699h-129l-64 161h-296l-63 -161h-130zM494 266l-113 297l-113 -297h226zM334 -159.5q-20 19.5 -20 46.5q0 28 20 47.5t47 19.5t46.5 -19.5t19.5 -47.5t-19.5 -47t-46.5 -19t-47 19.5z" />
    <glyph glyph-name="uni1EA1" unicode="&#x1ea1;" horiz-adv-x="577" 
d="M95 30.5q-55 45.5 -55 122.5q0 80 52 125t146 45q91 0 157 -37v13q0 51 -31.5 74t-101.5 23q-44 0 -87 -8.5t-76 -23.5v99q30 14 80.5 23t97.5 9q125 0 185 -53.5t60 -148.5v-293h-119v47q-31 -30 -70.5 -46t-96.5 -16q-86 0 -141 45.5zM343 93.5q34 16.5 52 45.5v53
q-55 39 -126 39q-101 0 -101 -78q0 -38 25.5 -57t73.5 -19q42 0 76 16.5zM238 -159.5q-20 19.5 -20 46.5q0 28 20 47.5t47 19.5t46.5 -19.5t19.5 -47.5t-19.5 -47t-46.5 -19t-47 19.5z" />
    <glyph glyph-name="uni1EA2" unicode="&#x1ea2;" horiz-adv-x="762" 
d="M326 816q45 0 68 11t23 38q0 20 -14.5 28.5t-47.5 8.5q-13 0 -35 -4t-31 -8v66q19 6 46 10t52 4q68 0 104 -27t36 -73q0 -37 -24 -62t-67 -32v-34h-110v74zM320 699h123l279 -699h-129l-64 161h-296l-63 -161h-130zM494 266l-113 297l-113 -297h226z" />
    <glyph glyph-name="uni1EA3" unicode="&#x1ea3;" horiz-adv-x="577" 
d="M245 609q45 0 68 11t23 38q0 20 -14.5 28.5t-47.5 8.5q-13 0 -35 -4t-31 -8v66q19 6 46 10t52 4q68 0 104 -27t36 -73q0 -37 -24 -62t-67 -32v-34h-110v74zM95 30.5q-55 45.5 -55 122.5q0 80 52 125t146 45q91 0 157 -37v13q0 51 -31.5 74t-101.5 23q-44 0 -87 -8.5
t-76 -23.5v99q30 14 80.5 23t97.5 9q125 0 185 -53.5t60 -148.5v-293h-119v47q-31 -30 -70.5 -46t-96.5 -16q-86 0 -141 45.5zM343 93.5q34 16.5 52 45.5v53q-55 39 -126 39q-101 0 -101 -78q0 -38 25.5 -57t73.5 -19q42 0 76 16.5z" />
    <glyph glyph-name="uni1EA4" unicode="&#x1ea4;" horiz-adv-x="762" 
d="M578 970h117l-77 -128h-101zM328 895h106l138 -152h-119l-72 84l-72 -84h-120zM320 699h123l279 -699h-129l-64 161h-296l-63 -161h-130zM494 266l-113 297l-113 -297h226z" />
    <glyph glyph-name="uni1EA5" unicode="&#x1ea5;" horiz-adv-x="577" 
d="M504 762h117l-77 -128h-101zM254 687h106l138 -152h-119l-72 84l-72 -84h-120zM95 30.5q-55 45.5 -55 122.5q0 80 52 125t146 45q91 0 157 -37v13q0 51 -31.5 74t-101.5 23q-44 0 -87 -8.5t-76 -23.5v99q30 14 80.5 23t97.5 9q125 0 185 -53.5t60 -148.5v-293h-119v47
q-31 -30 -70.5 -46t-96.5 -16q-86 0 -141 45.5zM343 93.5q34 16.5 52 45.5v53q-55 39 -126 39q-101 0 -101 -78q0 -38 25.5 -57t73.5 -19q42 0 76 16.5z" />
    <glyph glyph-name="uni1EA6" unicode="&#x1ea6;" horiz-adv-x="762" 
d="M67 969h117l61 -128h-101zM328 894h106l139 -152h-120l-72 84l-72 -84h-119zM320 699h123l279 -699h-129l-64 161h-296l-63 -161h-130zM494 266l-113 297l-113 -297h226z" />
    <glyph glyph-name="uni1EA7" unicode="&#x1ea7;" horiz-adv-x="577" 
d="M-15 762h117l61 -128h-101zM246 687h106l139 -152h-120l-72 84l-72 -84h-119zM95 30.5q-55 45.5 -55 122.5q0 80 52 125t146 45q91 0 157 -37v13q0 51 -31.5 74t-101.5 23q-44 0 -87 -8.5t-76 -23.5v99q30 14 80.5 23t97.5 9q125 0 185 -53.5t60 -148.5v-293h-119v47
q-31 -30 -70.5 -46t-96.5 -16q-86 0 -141 45.5zM343 93.5q34 16.5 52 45.5v53q-55 39 -126 39q-101 0 -101 -78q0 -38 25.5 -57t73.5 -19q42 0 76 16.5z" />
    <glyph glyph-name="uni1EA8" unicode="&#x1ea8;" horiz-adv-x="762" 
d="M517 881q30 0 43.5 7t13.5 24q0 15 -10 20.5t-32 5.5q-25 0 -41 -8v49q14 5 34 8t38 3q45 0 71 -19t26 -51q0 -25 -17 -42.5t-47 -22.5v-24h-79v50zM328 895h106l138 -152h-119l-72 84l-72 -84h-120zM320 699h123l279 -699h-129l-64 161h-296l-63 -161h-130zM494 266
l-113 297l-113 -297h226z" />
    <glyph glyph-name="uni1EA9" unicode="&#x1ea9;" horiz-adv-x="577" 
d="M430 673q30 0 43.5 7t13.5 24q0 15 -10 20.5t-32 5.5q-25 0 -41 -8v49q14 5 34 8t38 3q45 0 71 -19t26 -51q0 -25 -17 -42.5t-47 -22.5v-24h-79v50zM241 687h106l138 -152h-119l-72 84l-72 -84h-120zM95 30.5q-55 45.5 -55 122.5q0 80 52 125t146 45q91 0 157 -37v13
q0 51 -31.5 74t-101.5 23q-44 0 -87 -8.5t-76 -23.5v99q30 14 80.5 23t97.5 9q125 0 185 -53.5t60 -148.5v-293h-119v47q-31 -30 -70.5 -46t-96.5 -16q-86 0 -141 45.5zM343 93.5q34 16.5 52 45.5v53q-55 39 -126 39q-101 0 -101 -78q0 -38 25.5 -57t73.5 -19q42 0 76 16.5z
" />
    <glyph glyph-name="uni1EAA" unicode="&#x1eaa;" horiz-adv-x="762" 
d="M425 912q-18 6 -45 17q-26 10 -41.5 15t-30.5 5q-24 0 -42.5 -9.5t-35.5 -32.5v89q24 35 78 35q17 0 34.5 -5.5t44.5 -16.5q5 -2 21 -8t29.5 -9.5t24.5 -3.5q24 0 43 9.5t35 32.5v-90q-24 -34 -78 -34q-19 0 -37 6zM329 894h106l138 -152h-119l-72 84l-72 -84h-120z
M320 699h123l279 -699h-129l-64 161h-296l-63 -161h-130zM494 266l-113 297l-113 -297h226z" />
    <glyph glyph-name="uni1EAB" unicode="&#x1eab;" horiz-adv-x="577" 
d="M342 705q-18 6 -45 17q-26 10 -41.5 15t-30.5 5q-24 0 -42.5 -9.5t-35.5 -32.5v89q24 35 78 35q17 0 34.5 -5.5t44.5 -16.5q5 -2 21 -8t29.5 -9.5t24.5 -3.5q24 0 43 9.5t35 32.5v-90q-24 -34 -78 -34q-19 0 -37 6zM246 687h106l138 -152h-119l-72 84l-72 -84h-120z
M95 30.5q-55 45.5 -55 122.5q0 80 52 125t146 45q91 0 157 -37v13q0 51 -31.5 74t-101.5 23q-44 0 -87 -8.5t-76 -23.5v99q30 14 80.5 23t97.5 9q125 0 185 -53.5t60 -148.5v-293h-119v47q-31 -30 -70.5 -46t-96.5 -16q-86 0 -141 45.5zM343 93.5q34 16.5 52 45.5v53
q-55 39 -126 39q-101 0 -101 -78q0 -38 25.5 -57t73.5 -19q42 0 76 16.5z" />
    <glyph glyph-name="uni1EAC" unicode="&#x1eac;" horiz-adv-x="762" 
d="M326 913h112l146 -171h-126l-76 99l-76 -99h-127zM320 699h123l279 -699h-129l-64 161h-296l-63 -161h-130zM494 266l-113 297l-113 -297h226zM335 -159.5q-20 19.5 -20 46.5q0 28 20 47.5t47 19.5t46.5 -19.5t19.5 -47.5t-19.5 -47t-46.5 -19t-47 19.5z" />
    <glyph glyph-name="uni1EAD" unicode="&#x1ead;" horiz-adv-x="577" 
d="M236 706h112l146 -171h-126l-76 99l-76 -99h-127zM95 30.5q-55 45.5 -55 122.5q0 80 52 125t146 45q91 0 157 -37v13q0 51 -31.5 74t-101.5 23q-44 0 -87 -8.5t-76 -23.5v99q30 14 80.5 23t97.5 9q125 0 185 -53.5t60 -148.5v-293h-119v47q-31 -30 -70.5 -46t-96.5 -16
q-86 0 -141 45.5zM343 93.5q34 16.5 52 45.5v53q-55 39 -126 39q-101 0 -101 -78q0 -38 25.5 -57t73.5 -19q42 0 76 16.5zM235 -159.5q-20 19.5 -20 46.5q0 28 20 47.5t47 19.5t46.5 -19.5t19.5 -47.5t-19.5 -47t-46.5 -19t-47 19.5z" />
    <glyph glyph-name="uni1EAE" unicode="&#x1eae;" horiz-adv-x="762" 
d="M389 1019h101l-67 -126h-86zM266.5 782q-41.5 40 -41.5 107h92q0 -32 16.5 -48.5t47.5 -16.5t47.5 16.5t16.5 48.5h92q0 -67 -41.5 -107t-114.5 -40t-114.5 40zM320 699h123l279 -699h-129l-64 161h-296l-63 -161h-130zM494 266l-113 297l-113 -297h226z" />
    <glyph glyph-name="uni1EAF" unicode="&#x1eaf;" horiz-adv-x="577" 
d="M307 812h101l-67 -126h-86zM184.5 575q-41.5 40 -41.5 107h92q0 -32 16.5 -48.5t47.5 -16.5t47.5 16.5t16.5 48.5h92q0 -67 -41.5 -107t-114.5 -40t-114.5 40zM95 30.5q-55 45.5 -55 122.5q0 80 52 125t146 45q91 0 157 -37v13q0 51 -31.5 74t-101.5 23q-44 0 -87 -8.5
t-76 -23.5v99q30 14 80.5 23t97.5 9q125 0 185 -53.5t60 -148.5v-293h-119v47q-31 -30 -70.5 -46t-96.5 -16q-86 0 -141 45.5zM343 93.5q34 16.5 52 45.5v53q-55 39 -126 39q-101 0 -101 -78q0 -38 25.5 -57t73.5 -19q42 0 76 16.5z" />
    <glyph glyph-name="uni1EB0" unicode="&#x1eb0;" horiz-adv-x="762" 
d="M272 1019h101l52 -126h-86zM266.5 782q-41.5 40 -41.5 107h92q0 -32 16.5 -48.5t47.5 -16.5t47.5 16.5t16.5 48.5h92q0 -67 -41.5 -107t-114.5 -40t-114.5 40zM320 699h123l279 -699h-129l-64 161h-296l-63 -161h-130zM494 266l-113 297l-113 -297h226z" />
    <glyph glyph-name="uni1EB1" unicode="&#x1eb1;" horiz-adv-x="577" 
d="M185 812h101l52 -126h-86zM179.5 575q-41.5 40 -41.5 107h92q0 -32 16.5 -48.5t47.5 -16.5t47.5 16.5t16.5 48.5h92q0 -67 -41.5 -107t-114.5 -40t-114.5 40zM95 30.5q-55 45.5 -55 122.5q0 80 52 125t146 45q91 0 157 -37v13q0 51 -31.5 74t-101.5 23q-44 0 -87 -8.5
t-76 -23.5v99q30 14 80.5 23t97.5 9q125 0 185 -53.5t60 -148.5v-293h-119v47q-31 -30 -70.5 -46t-96.5 -16q-86 0 -141 45.5zM343 93.5q34 16.5 52 45.5v53q-55 39 -126 39q-101 0 -101 -78q0 -38 25.5 -57t73.5 -19q42 0 76 16.5z" />
    <glyph glyph-name="uni1EB2" unicode="&#x1eb2;" horiz-adv-x="762" 
d="M343 932q30 0 43.5 7t13.5 24q0 15 -10 20.5t-32 5.5q-25 0 -41 -8v49q14 5 34 8t38 3q45 0 71 -19t26 -51q0 -25 -17 -42.5t-47 -22.5v-24h-79v50zM266.5 782q-41.5 40 -41.5 107h90q0 -32 17.5 -49.5t48.5 -17.5t48.5 17.5t17.5 49.5h90q0 -67 -41.5 -107t-114.5 -40
t-114.5 40zM320 699h123l279 -699h-129l-64 161h-296l-63 -161h-130zM494 266l-113 297l-113 -297h226z" />
    <glyph glyph-name="uni1EB3" unicode="&#x1eb3;" horiz-adv-x="577" 
d="M258 720q30 0 43.5 7t13.5 24q0 15 -10 20.5t-32 5.5q-25 0 -41 -8v49q14 5 34 8t38 3q45 0 71 -19t26 -51q0 -25 -17 -42.5t-47 -22.5v-24h-79v50zM181.5 570q-41.5 40 -41.5 107h90q0 -32 17.5 -49.5t48.5 -17.5t48.5 17.5t17.5 49.5h90q0 -67 -41.5 -107t-114.5 -40
t-114.5 40zM95 30.5q-55 45.5 -55 122.5q0 80 52 125t146 45q91 0 157 -37v13q0 51 -31.5 74t-101.5 23q-44 0 -87 -8.5t-76 -23.5v99q30 14 80.5 23t97.5 9q125 0 185 -53.5t60 -148.5v-293h-119v47q-31 -30 -70.5 -46t-96.5 -16q-86 0 -141 45.5zM343 93.5
q34 16.5 52 45.5v53q-55 39 -126 39q-101 0 -101 -78q0 -38 25.5 -57t73.5 -19q42 0 76 16.5z" />
    <glyph glyph-name="uni1EB4" unicode="&#x1eb4;" horiz-adv-x="762" 
d="M422 931q-18 6 -45 17q-26 10 -41.5 15t-30.5 5q-24 0 -42.5 -9.5t-35.5 -32.5v89q24 35 78 35q17 0 34.5 -5.5t44.5 -16.5q5 -2 21 -8t29.5 -9.5t24.5 -3.5q24 0 43 9.5t35 32.5v-90q-24 -34 -78 -34q-19 0 -37 6zM266.5 782q-41.5 40 -41.5 107h92q0 -32 16.5 -48.5
t47.5 -16.5t47.5 16.5t16.5 48.5h92q0 -67 -41.5 -107t-114.5 -40t-114.5 40zM320 699h123l279 -699h-129l-64 161h-296l-63 -161h-130zM494 266l-113 297l-113 -297h226z" />
    <glyph glyph-name="uni1EB5" unicode="&#x1eb5;" horiz-adv-x="577" 
d="M355 724q-18 6 -45 17q-26 10 -41.5 15t-30.5 5q-24 0 -42.5 -9.5t-35.5 -32.5v89q24 35 78 35q17 0 34.5 -5.5t44.5 -16.5q5 -2 21 -8t29.5 -9.5t24.5 -3.5q24 0 43 9.5t35 32.5v-90q-24 -34 -78 -34q-19 0 -37 6zM199.5 575q-41.5 40 -41.5 107h92q0 -32 16.5 -48.5
t47.5 -16.5t47.5 16.5t16.5 48.5h92q0 -67 -41.5 -107t-114.5 -40t-114.5 40zM95 30.5q-55 45.5 -55 122.5q0 80 52 125t146 45q91 0 157 -37v13q0 51 -31.5 74t-101.5 23q-44 0 -87 -8.5t-76 -23.5v99q30 14 80.5 23t97.5 9q125 0 185 -53.5t60 -148.5v-293h-119v47
q-31 -30 -70.5 -46t-96.5 -16q-86 0 -141 45.5zM343 93.5q34 16.5 52 45.5v53q-55 39 -126 39q-101 0 -101 -78q0 -38 25.5 -57t73.5 -19q42 0 76 16.5z" />
    <glyph glyph-name="uni1EB6" unicode="&#x1eb6;" horiz-adv-x="762" 
d="M263 783.5q-43 41.5 -43 109.5h95q0 -33 17 -50t49 -17t49 17t17 50h95q0 -68 -43 -109.5t-118 -41.5t-118 41.5zM320 699h123l279 -699h-129l-64 161h-296l-63 -161h-130zM494 266l-113 297l-113 -297h226zM335 -159.5q-20 19.5 -20 46.5q0 28 20 47.5t47 19.5
t46.5 -19.5t19.5 -47.5t-19.5 -47t-46.5 -19t-47 19.5z" />
    <glyph glyph-name="uni1EB7" unicode="&#x1eb7;" horiz-adv-x="577" 
d="M180 576.5q-43 41.5 -43 109.5h95q0 -33 17 -50t49 -17t49 17t17 50h95q0 -68 -43 -109.5t-118 -41.5t-118 41.5zM95 30.5q-55 45.5 -55 122.5q0 80 52 125t146 45q91 0 157 -37v13q0 51 -31.5 74t-101.5 23q-44 0 -87 -8.5t-76 -23.5v99q30 14 80.5 23t97.5 9
q125 0 185 -53.5t60 -148.5v-293h-119v47q-31 -30 -70.5 -46t-96.5 -16q-86 0 -141 45.5zM343 93.5q34 16.5 52 45.5v53q-55 39 -126 39q-101 0 -101 -78q0 -38 25.5 -57t73.5 -19q42 0 76 16.5zM242 -159.5q-20 19.5 -20 46.5q0 28 20 47.5t47 19.5t46.5 -19.5t19.5 -47.5
t-19.5 -47t-46.5 -19t-47 19.5z" />
    <glyph glyph-name="uni1EB8" unicode="&#x1eb8;" horiz-adv-x="573" 
d="M60 699h473v-105h-346v-192h257v-105h-257v-192h346v-105h-473v699zM246 -159.5q-20 19.5 -20 46.5q0 28 20 47.5t47 19.5t46.5 -19.5t19.5 -47.5t-19.5 -47t-46.5 -19t-47 19.5z" />
    <glyph glyph-name="uni1EB9" unicode="&#x1eb9;" horiz-adv-x="609" 
d="M118 52q-78 67 -78 187q0 118 69 187t197 69q84 0 143.5 -32t89.5 -87.5t30 -126.5v-58h-409q13 -107 186 -107q46 0 94 8t84 22v-97q-34 -14 -87.5 -23t-106.5 -9q-134 0 -212 67zM450 277q-2 57 -40.5 88t-105.5 31q-66 0 -104 -32t-40 -87h290zM276 -159.5
q-20 19.5 -20 46.5q0 28 20 47.5t47 19.5t46.5 -19.5t19.5 -47.5t-19.5 -47t-46.5 -19t-47 19.5z" />
    <glyph glyph-name="uni1EBA" unicode="&#x1eba;" horiz-adv-x="573" 
d="M233 816q45 0 68 11t23 38q0 20 -14.5 28.5t-47.5 8.5q-13 0 -35 -4t-31 -8v66q19 6 46 10t52 4q68 0 104 -27t36 -73q0 -37 -24 -62t-67 -32v-34h-110v74zM60 699h473v-105h-346v-192h257v-105h-257v-192h346v-105h-473v699z" />
    <glyph glyph-name="uni1EBB" unicode="&#x1ebb;" horiz-adv-x="609" 
d="M255 609q45 0 68 11t23 38q0 20 -14.5 28.5t-47.5 8.5q-13 0 -35 -4t-31 -8v66q19 6 46 10t52 4q68 0 104 -27t36 -73q0 -37 -24 -62t-67 -32v-34h-110v74zM118 52q-78 67 -78 187q0 118 69 187t197 69q84 0 143.5 -32t89.5 -87.5t30 -126.5v-58h-409q13 -107 186 -107
q46 0 94 8t84 22v-97q-34 -14 -87.5 -23t-106.5 -9q-134 0 -212 67zM450 277q-2 57 -40.5 88t-105.5 31q-66 0 -104 -32t-40 -87h290z" />
    <glyph glyph-name="uni1EBC" unicode="&#x1ebc;" horiz-adv-x="573" 
d="M100 845q32 43 100 43q22 0 43 -6t54 -19q28 -12 49 -18.5t43 -6.5q62 0 100 51v-103q-31 -42 -100 -42q-25 0 -48 6.5t-53 19.5q-30 12 -48.5 18t-39.5 6q-29 0 -53.5 -12t-46.5 -40v103zM60 699h473v-105h-346v-192h257v-105h-257v-192h346v-105h-473v699z" />
    <glyph glyph-name="uni1EBD" unicode="&#x1ebd;" horiz-adv-x="609" 
d="M124 638q32 43 100 43q22 0 43 -6t54 -19q28 -12 49 -18.5t43 -6.5q62 0 100 51v-103q-31 -42 -100 -42q-25 0 -48 6.5t-53 19.5q-30 12 -48.5 18t-39.5 6q-29 0 -53.5 -12t-46.5 -40v103zM118 52q-78 67 -78 187q0 118 69 187t197 69q84 0 143.5 -32t89.5 -87.5
t30 -126.5v-58h-409q13 -107 186 -107q46 0 94 8t84 22v-97q-34 -14 -87.5 -23t-106.5 -9q-134 0 -212 67zM450 277q-2 57 -40.5 88t-105.5 31q-66 0 -104 -32t-40 -87h290z" />
    <glyph glyph-name="uni1EBE" unicode="&#x1ebe;" horiz-adv-x="563" 
d="M475 969h117l-77 -128h-101zM225 894h106l138 -152h-119l-72 84l-72 -84h-120zM60 699h473v-105h-346v-192h257v-105h-257v-192h346v-105h-473v699z" />
    <glyph glyph-name="uni1EBF" unicode="&#x1ebf;" horiz-adv-x="609" 
d="M510 762h117l-77 -128h-101zM260 687h106l138 -152h-119l-72 84l-72 -84h-120zM118 52q-78 67 -78 187q0 118 69 187t197 69q84 0 143.5 -32t89.5 -87.5t30 -126.5v-58h-409q13 -107 186 -107q46 0 94 8t84 22v-97q-34 -14 -87.5 -23t-106.5 -9q-134 0 -212 67zM450 277
q-2 57 -40.5 88t-105.5 31q-66 0 -104 -32t-40 -87h290z" />
    <glyph glyph-name="uni1EC0" unicode="&#x1ec0;" horiz-adv-x="563" 
d="M-15 969h117l61 -128h-101zM246 894h106l139 -152h-120l-72 84l-72 -84h-119zM60 699h473v-105h-346v-192h257v-105h-257v-192h346v-105h-473v699z" />
    <glyph glyph-name="uni1EC1" unicode="&#x1ec1;" horiz-adv-x="609" 
d="M3 762h117l61 -128h-101zM264 687h106l139 -152h-120l-72 84l-72 -84h-119zM118 52q-78 67 -78 187q0 118 69 187t197 69q84 0 143.5 -32t89.5 -87.5t30 -126.5v-58h-409q13 -107 186 -107q46 0 94 8t84 22v-97q-34 -14 -87.5 -23t-106.5 -9q-134 0 -212 67zM450 277
q-2 57 -40.5 88t-105.5 31q-66 0 -104 -32t-40 -87h290z" />
    <glyph glyph-name="uni1EC2" unicode="&#x1ec2;" horiz-adv-x="563" 
d="M433 880q30 0 43.5 7t13.5 24q0 15 -10 20.5t-32 5.5q-25 0 -41 -8v49q14 5 34 8t38 3q45 0 71 -19t26 -51q0 -25 -17 -42.5t-47 -22.5v-24h-79v50zM244 894h106l138 -152h-119l-72 84l-72 -84h-120zM60 699h473v-105h-346v-192h257v-105h-257v-192h346v-105h-473v699z
" />
    <glyph glyph-name="uni1EC3" unicode="&#x1ec3;" horiz-adv-x="609" 
d="M444 673q30 0 43.5 7t13.5 24q0 15 -10 20.5t-32 5.5q-25 0 -41 -8v49q14 5 34 8t38 3q45 0 71 -19t26 -51q0 -25 -17 -42.5t-47 -22.5v-24h-79v50zM255 687h106l138 -152h-119l-72 84l-72 -84h-120zM118 52q-78 67 -78 187q0 118 69 187t197 69q84 0 143.5 -32
t89.5 -87.5t30 -126.5v-58h-409q13 -107 186 -107q46 0 94 8t84 22v-97q-34 -14 -87.5 -23t-106.5 -9q-134 0 -212 67zM450 277q-2 57 -40.5 88t-105.5 31q-66 0 -104 -32t-40 -87h290z" />
    <glyph glyph-name="uni1EC4" unicode="&#x1ec4;" horiz-adv-x="573" 
d="M343 912q-18 6 -45 17q-26 10 -41.5 15t-30.5 5q-24 0 -42.5 -9.5t-35.5 -32.5v89q24 35 78 35q17 0 34.5 -5.5t44.5 -16.5q5 -2 21 -8t29.5 -9.5t24.5 -3.5q24 0 43 9.5t35 32.5v-90q-24 -34 -78 -34q-19 0 -37 6zM247 894h106l138 -152h-119l-72 84l-72 -84h-120z
M60 699h473v-105h-346v-192h257v-105h-257v-192h346v-105h-473v699z" />
    <glyph glyph-name="uni1EC5" unicode="&#x1ec5;" horiz-adv-x="609" 
d="M348 705q-18 6 -45 17q-26 10 -41.5 15t-30.5 5q-24 0 -42.5 -9.5t-35.5 -32.5v89q24 35 78 35q17 0 34.5 -5.5t44.5 -16.5q5 -2 21 -8t29.5 -9.5t24.5 -3.5q24 0 43 9.5t35 32.5v-90q-24 -34 -78 -34q-19 0 -37 6zM252 687h106l138 -152h-119l-72 84l-72 -84h-120z
M118 52q-78 67 -78 187q0 118 69 187t197 69q84 0 143.5 -32t89.5 -87.5t30 -126.5v-58h-409q13 -107 186 -107q46 0 94 8t84 22v-97q-34 -14 -87.5 -23t-106.5 -9q-134 0 -212 67zM450 277q-2 57 -40.5 88t-105.5 31q-66 0 -104 -32t-40 -87h290z" />
    <glyph glyph-name="uni1EC6" unicode="&#x1ec6;" horiz-adv-x="575" 
d="M237 913h112l146 -171h-126l-76 99l-76 -99h-127zM62 699h473v-105h-346v-192h257v-105h-257v-192h346v-105h-473v699zM247 -159.5q-20 19.5 -20 46.5q0 28 20 47.5t47 19.5t46.5 -19.5t19.5 -47.5t-19.5 -47t-46.5 -19t-47 19.5z" />
    <glyph glyph-name="uni1EC7" unicode="&#x1ec7;" horiz-adv-x="609" 
d="M257 706h112l146 -171h-126l-76 99l-76 -99h-127zM118 52q-78 67 -78 187q0 118 69 187t197 69q84 0 143.5 -32t89.5 -87.5t30 -126.5v-58h-409q13 -107 186 -107q46 0 94 8t84 22v-97q-34 -14 -87.5 -23t-106.5 -9q-134 0 -212 67zM450 277q-2 57 -40.5 88t-105.5 31
q-66 0 -104 -32t-40 -87h290zM266 -159.5q-20 19.5 -20 46.5q0 28 20 47.5t47 19.5t46.5 -19.5t19.5 -47.5t-19.5 -47t-46.5 -19t-47 19.5z" />
    <glyph glyph-name="uni1EC8" unicode="&#x1ec8;" horiz-adv-x="253" 
d="M70 816q45 0 68 11t23 38q0 20 -14.5 28.5t-47.5 8.5q-13 0 -35 -4t-31 -8v66q19 6 46 10t52 4q68 0 104 -27t36 -73q0 -37 -24 -62t-67 -32v-34h-110v74zM63 699h127v-699h-127v699z" />
    <glyph glyph-name="uni1EC9" unicode="&#x1ec9;" horiz-adv-x="248" 
d="M69 609q45 0 68 11t23 38q0 20 -14.5 28.5t-47.5 8.5q-13 0 -35 -4t-31 -8v66q19 6 46 10t52 4q68 0 104 -27t36 -73q0 -37 -24 -62t-67 -32v-34h-110v74zM60 480h128v-480h-128v480z" />
    <glyph glyph-name="uni1ECA" unicode="&#x1eca;" horiz-adv-x="253" 
d="M63 699h127v-699h-127v699zM80 -159.5q-20 19.5 -20 46.5q0 28 20 47.5t47 19.5t46.5 -19.5t19.5 -47.5t-19.5 -47t-46.5 -19t-47 19.5z" />
    <glyph glyph-name="uni1ECB" unicode="&#x1ecb;" horiz-adv-x="263" 
d="M80.5 584q-20.5 20 -20.5 50t20.5 50.5t50.5 20.5t51 -20.5t21 -50.5t-21 -50t-51 -20t-50.5 20zM67 480h128v-480h-128v480zM85 -159.5q-20 19.5 -20 46.5q0 28 20 47.5t47 19.5t46.5 -19.5t19.5 -47.5t-19.5 -47t-46.5 -19t-47 19.5z" />
    <glyph glyph-name="uni1ECC" unicode="&#x1ecc;" horiz-adv-x="821" 
d="M221.5 30.5q-84.5 45.5 -133 128.5t-48.5 190t48.5 190t133 129t189.5 46q104 0 188.5 -46t133 -129t48.5 -190t-48.5 -189.5t-133 -128.5t-188.5 -46q-105 0 -189.5 45.5zM533 130.5q55 30.5 87.5 87t32.5 131.5q0 74 -32 130.5t-87 87.5t-123 31t-123.5 -31
t-87.5 -87.5t-32 -130.5q0 -75 32.5 -131.5t88 -87t122.5 -30.5t122 30.5zM364 -159.5q-20 19.5 -20 46.5q0 28 20 47.5t47 19.5t46.5 -19.5t19.5 -47.5t-19.5 -47t-46.5 -19t-47 19.5z" />
    <glyph glyph-name="uni1ECD" unicode="&#x1ecd;" horiz-adv-x="642" 
d="M173.5 15.5q-63.5 30.5 -98.5 88t-35 136.5q0 77 34.5 134.5t98.5 89t148 31.5t147.5 -31.5t98.5 -89t35 -134.5q0 -79 -35 -136.5t-98.5 -88t-147.5 -30.5t-147.5 30.5zM431 127.5q41 43.5 41 112.5q0 73 -40.5 114.5t-110.5 41.5t-110.5 -41.5t-40.5 -114.5
q0 -69 41 -112.5t110 -43.5t110 43.5zM275 -159.5q-20 19.5 -20 46.5q0 28 20 47.5t47 19.5t46.5 -19.5t19.5 -47.5t-19.5 -47t-46.5 -19t-47 19.5z" />
    <glyph glyph-name="uni1ECE" unicode="&#x1ece;" horiz-adv-x="821" 
d="M351 816q45 0 68 11t23 38q0 20 -14.5 28.5t-47.5 8.5q-13 0 -35 -4t-31 -8v66q19 6 46 10t52 4q68 0 104 -27t36 -73q0 -37 -24 -62t-67 -32v-34h-110v74zM221.5 30.5q-84.5 45.5 -133 128.5t-48.5 190t48.5 190t133 129t189.5 46q104 0 188.5 -46t133 -129t48.5 -190
t-48.5 -189.5t-133 -128.5t-188.5 -46q-105 0 -189.5 45.5zM533 130.5q55 30.5 87.5 87t32.5 131.5q0 74 -32 130.5t-87 87.5t-123 31t-123.5 -31t-87.5 -87.5t-32 -130.5q0 -75 32.5 -131.5t88 -87t122.5 -30.5t122 30.5z" />
    <glyph glyph-name="uni1ECF" unicode="&#x1ecf;" horiz-adv-x="642" 
d="M269 609q45 0 68 11t23 38q0 20 -14.5 28.5t-47.5 8.5q-13 0 -35 -4t-31 -8v66q19 6 46 10t52 4q68 0 104 -27t36 -73q0 -37 -24 -62t-67 -32v-34h-110v74zM173.5 15.5q-63.5 30.5 -98.5 88t-35 136.5q0 77 34.5 134.5t98.5 89t148 31.5t147.5 -31.5t98.5 -89t35 -134.5
q0 -79 -35 -136.5t-98.5 -88t-147.5 -30.5t-147.5 30.5zM431 127.5q41 43.5 41 112.5q0 73 -40.5 114.5t-110.5 41.5t-110.5 -41.5t-40.5 -114.5q0 -69 41 -112.5t110 -43.5t110 43.5z" />
    <glyph glyph-name="uni1ED0" unicode="&#x1ed0;" horiz-adv-x="821" 
d="M621 969h117l-77 -128h-101zM371 894h106l138 -152h-119l-72 84l-72 -84h-120zM221.5 30.5q-84.5 45.5 -133 128.5t-48.5 190t48.5 190t133 129t189.5 46q104 0 188.5 -46t133 -129t48.5 -190t-48.5 -189.5t-133 -128.5t-188.5 -46q-105 0 -189.5 45.5zM533 130.5
q55 30.5 87.5 87t32.5 131.5q0 74 -32 130.5t-87 87.5t-123 31t-123.5 -31t-87.5 -87.5t-32 -130.5q0 -75 32.5 -131.5t88 -87t122.5 -30.5t122 30.5z" />
    <glyph glyph-name="uni1ED1" unicode="&#x1ed1;" horiz-adv-x="642" 
d="M518 762h117l-77 -128h-101zM268 687h106l138 -152h-119l-72 84l-72 -84h-120zM173.5 15.5q-63.5 30.5 -98.5 88t-35 136.5q0 77 34.5 134.5t98.5 89t148 31.5t147.5 -31.5t98.5 -89t35 -134.5q0 -79 -35 -136.5t-98.5 -88t-147.5 -30.5t-147.5 30.5zM431 127.5
q41 43.5 41 112.5q0 73 -40.5 114.5t-110.5 41.5t-110.5 -41.5t-40.5 -114.5q0 -69 41 -112.5t110 -43.5t110 43.5z" />
    <glyph glyph-name="uni1ED2" unicode="&#x1ed2;" horiz-adv-x="821" 
d="M102 969h117l61 -128h-101zM363 894h106l139 -152h-120l-72 84l-72 -84h-119zM221.5 30.5q-84.5 45.5 -133 128.5t-48.5 190t48.5 190t133 129t189.5 46q104 0 188.5 -46t133 -129t48.5 -190t-48.5 -189.5t-133 -128.5t-188.5 -46q-105 0 -189.5 45.5zM533 130.5
q55 30.5 87.5 87t32.5 131.5q0 74 -32 130.5t-87 87.5t-123 31t-123.5 -31t-87.5 -87.5t-32 -130.5q0 -75 32.5 -131.5t88 -87t122.5 -30.5t122 30.5z" />
    <glyph glyph-name="uni1ED3" unicode="&#x1ed3;" horiz-adv-x="642" 
d="M14 762h117l61 -128h-101zM275 687h106l139 -152h-120l-72 84l-72 -84h-119zM173.5 15.5q-63.5 30.5 -98.5 88t-35 136.5q0 77 34.5 134.5t98.5 89t148 31.5t147.5 -31.5t98.5 -89t35 -134.5q0 -79 -35 -136.5t-98.5 -88t-147.5 -30.5t-147.5 30.5zM431 127.5
q41 43.5 41 112.5q0 73 -40.5 114.5t-110.5 41.5t-110.5 -41.5t-40.5 -114.5q0 -69 41 -112.5t110 -43.5t110 43.5z" />
    <glyph glyph-name="uni1ED4" unicode="&#x1ed4;" horiz-adv-x="821" 
d="M560 880q30 0 43.5 7t13.5 24q0 15 -10 20.5t-32 5.5q-25 0 -41 -8v49q14 5 34 8t38 3q45 0 71 -19t26 -51q0 -25 -17 -42.5t-47 -22.5v-24h-79v50zM371 894h106l138 -152h-119l-72 84l-72 -84h-120zM221.5 30.5q-84.5 45.5 -133 128.5t-48.5 190t48.5 190t133 129
t189.5 46q104 0 188.5 -46t133 -129t48.5 -190t-48.5 -189.5t-133 -128.5t-188.5 -46q-105 0 -189.5 45.5zM533 130.5q55 30.5 87.5 87t32.5 131.5q0 74 -32 130.5t-87 87.5t-123 31t-123.5 -31t-87.5 -87.5t-32 -130.5q0 -75 32.5 -131.5t88 -87t122.5 -30.5t122 30.5z" />
    <glyph glyph-name="uni1ED5" unicode="&#x1ed5;" horiz-adv-x="642" 
d="M458 673q30 0 43.5 7t13.5 24q0 15 -10 20.5t-32 5.5q-25 0 -41 -8v49q14 5 34 8t38 3q45 0 71 -19t26 -51q0 -25 -17 -42.5t-47 -22.5v-24h-79v50zM269 687h106l138 -152h-119l-72 84l-72 -84h-120zM173.5 15.5q-63.5 30.5 -98.5 88t-35 136.5q0 77 34.5 134.5t98.5 89
t148 31.5t147.5 -31.5t98.5 -89t35 -134.5q0 -79 -35 -136.5t-98.5 -88t-147.5 -30.5t-147.5 30.5zM431 127.5q41 43.5 41 112.5q0 73 -40.5 114.5t-110.5 41.5t-110.5 -41.5t-40.5 -114.5q0 -69 41 -112.5t110 -43.5t110 43.5z" />
    <glyph glyph-name="uni1ED6" unicode="&#x1ed6;" horiz-adv-x="821" 
d="M451 931q-18 6 -45 17q-26 10 -41.5 15t-30.5 5q-24 0 -42.5 -9.5t-35.5 -32.5v89q24 35 78 35q17 0 34.5 -5.5t44.5 -16.5q5 -2 21 -8t29.5 -9.5t24.5 -3.5q24 0 43 9.5t35 32.5v-90q-24 -34 -78 -34q-19 0 -37 6zM295.5 782q-41.5 40 -41.5 107h92q0 -32 16.5 -48.5
t47.5 -16.5t47.5 16.5t16.5 48.5h92q0 -67 -41.5 -107t-114.5 -40t-114.5 40zM221.5 30.5q-84.5 45.5 -133 128.5t-48.5 190t48.5 190t133 129t189.5 46q104 0 188.5 -46t133 -129t48.5 -190t-48.5 -189.5t-133 -128.5t-188.5 -46q-105 0 -189.5 45.5zM533 130.5
q55 30.5 87.5 87t32.5 131.5q0 74 -32 130.5t-87 87.5t-123 31t-123.5 -31t-87.5 -87.5t-32 -130.5q0 -75 32.5 -131.5t88 -87t122.5 -30.5t122 30.5z" />
    <glyph glyph-name="uni1ED7" unicode="&#x1ed7;" horiz-adv-x="642" 
d="M362 724q-18 6 -45 17q-26 10 -41.5 15t-30.5 5q-24 0 -42.5 -9.5t-35.5 -32.5v89q24 35 78 35q17 0 34.5 -5.5t44.5 -16.5q5 -2 21 -8t29.5 -9.5t24.5 -3.5q24 0 43 9.5t35 32.5v-90q-24 -34 -78 -34q-19 0 -37 6zM206.5 575q-41.5 40 -41.5 107h92q0 -32 16.5 -48.5
t47.5 -16.5t47.5 16.5t16.5 48.5h92q0 -67 -41.5 -107t-114.5 -40t-114.5 40zM173.5 15.5q-63.5 30.5 -98.5 88t-35 136.5q0 77 34.5 134.5t98.5 89t148 31.5t147.5 -31.5t98.5 -89t35 -134.5q0 -79 -35 -136.5t-98.5 -88t-147.5 -30.5t-147.5 30.5zM431 127.5
q41 43.5 41 112.5q0 73 -40.5 114.5t-110.5 41.5t-110.5 -41.5t-40.5 -114.5q0 -69 41 -112.5t110 -43.5t110 43.5z" />
    <glyph glyph-name="uni1ED8" unicode="&#x1ed8;" horiz-adv-x="821" 
d="M355 913h112l146 -171h-126l-76 99l-76 -99h-127zM221.5 30.5q-84.5 45.5 -133 128.5t-48.5 190t48.5 190t133 129t189.5 46q104 0 188.5 -46t133 -129t48.5 -190t-48.5 -189.5t-133 -128.5t-188.5 -46q-105 0 -189.5 45.5zM533 130.5q55 30.5 87.5 87t32.5 131.5
q0 74 -32 130.5t-87 87.5t-123 31t-123.5 -31t-87.5 -87.5t-32 -130.5q0 -75 32.5 -131.5t88 -87t122.5 -30.5t122 30.5zM365 -159.5q-20 19.5 -20 46.5q0 28 20 47.5t47 19.5t46.5 -19.5t19.5 -47.5t-19.5 -47t-46.5 -19t-47 19.5z" />
    <glyph glyph-name="uni1ED9" unicode="&#x1ed9;" horiz-adv-x="642" 
d="M266 706h112l146 -171h-126l-76 99l-76 -99h-127zM173.5 15.5q-63.5 30.5 -98.5 88t-35 136.5q0 77 34.5 134.5t98.5 89t148 31.5t147.5 -31.5t98.5 -89t35 -134.5q0 -79 -35 -136.5t-98.5 -88t-147.5 -30.5t-147.5 30.5zM431 127.5q41 43.5 41 112.5q0 73 -40.5 114.5
t-110.5 41.5t-110.5 -41.5t-40.5 -114.5q0 -69 41 -112.5t110 -43.5t110 43.5zM275 -159.5q-20 19.5 -20 46.5q0 28 20 47.5t47 19.5t46.5 -19.5t19.5 -47.5t-19.5 -47t-46.5 -19t-47 19.5z" />
    <glyph glyph-name="uni1EDA" unicode="&#x1eda;" horiz-adv-x="872" 
d="M425 916h133l-86 -174h-116zM221.5 30.5q-84.5 45.5 -133 128.5t-48.5 190t48.5 190t133 129t189.5 46q72 0 136 -23t113 -65q49 1 67 19t18 67v35h117v-42q0 -62 -34 -109.5t-92 -63.5q45 -81 45 -183q0 -107 -48.5 -189.5t-133 -128.5t-188.5 -46q-105 0 -189.5 45.5z
M530 136q54 30 85.5 85t31.5 128q0 72 -31 127.5t-85 85.5t-120 30t-120.5 -30t-85.5 -85.5t-31 -127.5q0 -73 31.5 -128t85.5 -85t120 -30q65 0 119 30z" />
    <glyph glyph-name="uni1EDB" unicode="&#x1edb;" horiz-adv-x="690" 
d="M324 709h133l-86 -174h-116zM173.5 15.5q-63.5 30.5 -98.5 88t-35 136.5q0 77 34.5 134.5t98.5 89t148 31.5q113 0 189 -57q68 12 68 85v35h102v-42q0 -53 -28.5 -94t-78.5 -59q29 -56 29 -123q0 -79 -35 -136.5t-98.5 -88t-147.5 -30.5t-147.5 30.5zM431 127.5
q41 43.5 41 112.5q0 73 -40.5 114.5t-110.5 41.5t-110.5 -41.5t-40.5 -114.5q0 -69 41 -112.5t110 -43.5t110 43.5z" />
    <glyph glyph-name="uni1EDC" unicode="&#x1edc;" horiz-adv-x="872" 
d="M257 916h133l69 -174h-116zM221.5 30.5q-84.5 45.5 -133 128.5t-48.5 190t48.5 190t133 129t189.5 46q72 0 136 -23t113 -65q49 1 67 19t18 67v35h117v-42q0 -62 -34 -109.5t-92 -63.5q45 -81 45 -183q0 -107 -48.5 -189.5t-133 -128.5t-188.5 -46q-105 0 -189.5 45.5z
M530 136q54 30 85.5 85t31.5 128q0 72 -31 127.5t-85 85.5t-120 30t-120.5 -30t-85.5 -85.5t-31 -127.5q0 -73 31.5 -128t85.5 -85t120 -30q65 0 119 30z" />
    <glyph glyph-name="uni1EDD" unicode="&#x1edd;" horiz-adv-x="690" 
d="M172 709h133l69 -174h-116zM173.5 15.5q-63.5 30.5 -98.5 88t-35 136.5q0 77 34.5 134.5t98.5 89t148 31.5q113 0 189 -57q68 12 68 85v35h102v-42q0 -53 -28.5 -94t-78.5 -59q29 -56 29 -123q0 -79 -35 -136.5t-98.5 -88t-147.5 -30.5t-147.5 30.5zM431 127.5
q41 43.5 41 112.5q0 73 -40.5 114.5t-110.5 41.5t-110.5 -41.5t-40.5 -114.5q0 -69 41 -112.5t110 -43.5t110 43.5z" />
    <glyph glyph-name="uni1EDE" unicode="&#x1ede;" horiz-adv-x="872" 
d="M354 816q45 0 68 11t23 38q0 20 -14.5 28.5t-47.5 8.5q-13 0 -35 -4t-31 -8v66q19 6 46 10t52 4q68 0 104 -27t36 -73q0 -37 -24 -62t-67 -32v-34h-110v74zM221.5 30.5q-84.5 45.5 -133 128.5t-48.5 190t48.5 190t133 129t189.5 46q72 0 136 -23t113 -65q49 1 67 19
t18 67v35h117v-42q0 -62 -34 -109.5t-92 -63.5q45 -81 45 -183q0 -107 -48.5 -189.5t-133 -128.5t-188.5 -46q-105 0 -189.5 45.5zM530 136q54 30 85.5 85t31.5 128q0 72 -31 127.5t-85 85.5t-120 30t-120.5 -30t-85.5 -85.5t-31 -127.5q0 -73 31.5 -128t85.5 -85t120 -30
q65 0 119 30z" />
    <glyph glyph-name="uni1EDF" unicode="&#x1edf;" horiz-adv-x="690" 
d="M255 609q45 0 68 11t23 38q0 20 -14.5 28.5t-47.5 8.5q-13 0 -35 -4t-31 -8v66q19 6 46 10t52 4q68 0 104 -27t36 -73q0 -37 -24 -62t-67 -32v-34h-110v74zM173.5 15.5q-63.5 30.5 -98.5 88t-35 136.5q0 77 34.5 134.5t98.5 89t148 31.5q113 0 189 -57q68 12 68 85v35
h102v-42q0 -53 -28.5 -94t-78.5 -59q29 -56 29 -123q0 -79 -35 -136.5t-98.5 -88t-147.5 -30.5t-147.5 30.5zM431 127.5q41 43.5 41 112.5q0 73 -40.5 114.5t-110.5 41.5t-110.5 -41.5t-40.5 -114.5q0 -69 41 -112.5t110 -43.5t110 43.5z" />
    <glyph glyph-name="uni1EE0" unicode="&#x1ee0;" horiz-adv-x="872" 
d="M231 845q32 43 100 43q22 0 43 -6t54 -19q28 -12 49 -18.5t43 -6.5q62 0 100 51v-103q-31 -42 -100 -42q-25 0 -48 6.5t-53 19.5q-30 12 -48.5 18t-39.5 6q-29 0 -53.5 -12t-46.5 -40v103zM221.5 30.5q-84.5 45.5 -133 128.5t-48.5 190t48.5 190t133 129t189.5 46
q72 0 136 -23t113 -65q49 1 67 19t18 67v35h117v-42q0 -62 -34 -109.5t-92 -63.5q45 -81 45 -183q0 -107 -48.5 -189.5t-133 -128.5t-188.5 -46q-105 0 -189.5 45.5zM530 136q54 30 85.5 85t31.5 128q0 72 -31 127.5t-85 85.5t-120 30t-120.5 -30t-85.5 -85.5t-31 -127.5
q0 -73 31.5 -128t85.5 -85t120 -30q65 0 119 30z" />
    <glyph glyph-name="uni1EE1" unicode="&#x1ee1;" horiz-adv-x="690" 
d="M122 651q32 43 100 43q22 0 43 -6t54 -19q28 -12 49 -18.5t43 -6.5q62 0 100 51v-103q-31 -42 -100 -42q-25 0 -48 6.5t-53 19.5q-30 12 -48.5 18t-39.5 6q-29 0 -53.5 -12t-46.5 -40v103zM173.5 15.5q-63.5 30.5 -98.5 88t-35 136.5q0 77 34.5 134.5t98.5 89t148 31.5
q113 0 189 -57q68 12 68 85v35h102v-42q0 -53 -28.5 -94t-78.5 -59q29 -56 29 -123q0 -79 -35 -136.5t-98.5 -88t-147.5 -30.5t-147.5 30.5zM431 127.5q41 43.5 41 112.5q0 73 -40.5 114.5t-110.5 41.5t-110.5 -41.5t-40.5 -114.5q0 -69 41 -112.5t110 -43.5t110 43.5z" />
    <glyph glyph-name="uni1EE2" unicode="&#x1ee2;" horiz-adv-x="872" 
d="M221.5 30.5q-84.5 45.5 -133 128.5t-48.5 190t48.5 190t133 129t189.5 46q72 0 136 -23t113 -65q49 1 67 19t18 67v35h117v-42q0 -62 -34 -109.5t-92 -63.5q45 -81 45 -183q0 -107 -48.5 -189.5t-133 -128.5t-188.5 -46q-105 0 -189.5 45.5zM530 136q54 30 85.5 85
t31.5 128q0 72 -31 127.5t-85 85.5t-120 30t-120.5 -30t-85.5 -85.5t-31 -127.5q0 -73 31.5 -128t85.5 -85t120 -30q65 0 119 30zM358 -159.5q-20 19.5 -20 46.5q0 28 20 47.5t47 19.5t46.5 -19.5t19.5 -47.5t-19.5 -47t-46.5 -19t-47 19.5z" />
    <glyph glyph-name="uni1EE3" unicode="&#x1ee3;" horiz-adv-x="690" 
d="M173.5 15.5q-63.5 30.5 -98.5 88t-35 136.5q0 77 34.5 134.5t98.5 89t148 31.5q113 0 189 -57q68 12 68 85v35h102v-42q0 -53 -28.5 -94t-78.5 -59q29 -56 29 -123q0 -79 -35 -136.5t-98.5 -88t-147.5 -30.5t-147.5 30.5zM431 127.5q41 43.5 41 112.5q0 73 -40.5 114.5
t-110.5 41.5t-110.5 -41.5t-40.5 -114.5q0 -69 41 -112.5t110 -43.5t110 43.5zM269 -159.5q-20 19.5 -20 46.5q0 28 20 47.5t47 19.5t46.5 -19.5t19.5 -47.5t-19.5 -47t-46.5 -19t-47 19.5z" />
    <glyph glyph-name="uni1EE4" unicode="&#x1ee4;" horiz-adv-x="707" 
d="M130.5 62.5q-75.5 77.5 -75.5 209.5v427h127v-429q0 -83 46.5 -126.5t125.5 -43.5q78 0 124.5 43.5t46.5 126.5v429h127v-427q0 -132 -75 -209.5t-223 -77.5t-223.5 77.5zM307 -159.5q-20 19.5 -20 46.5q0 28 20 47.5t47 19.5t46.5 -19.5t19.5 -47.5t-19.5 -47t-46.5 -19
t-47 19.5z" />
    <glyph glyph-name="uni1EE5" unicode="&#x1ee5;" horiz-adv-x="610" 
d="M103 37.5q-48 52.5 -48 139.5v303h126v-291q0 -105 98 -105q43 0 81 20.5t64 61.5v314h126v-480h-122v65q-34 -41 -81 -60.5t-99 -19.5q-97 0 -145 52.5zM252 -159.5q-20 19.5 -20 46.5q0 28 20 47.5t47 19.5t46.5 -19.5t19.5 -47.5t-19.5 -47t-46.5 -19t-47 19.5z" />
    <glyph glyph-name="uni1EE6" unicode="&#x1ee6;" horiz-adv-x="707" 
d="M288 816q45 0 68 11t23 38q0 20 -14.5 28.5t-47.5 8.5q-13 0 -35 -4t-31 -8v66q19 6 46 10t52 4q68 0 104 -27t36 -73q0 -37 -24 -62t-67 -32v-34h-110v74zM130.5 62.5q-75.5 77.5 -75.5 209.5v427h127v-429q0 -83 46.5 -126.5t125.5 -43.5q78 0 124.5 43.5t46.5 126.5
v429h127v-427q0 -132 -75 -209.5t-223 -77.5t-223.5 77.5z" />
    <glyph glyph-name="uni1EE7" unicode="&#x1ee7;" horiz-adv-x="610" 
d="M237 609q45 0 68 11t23 38q0 20 -14.5 28.5t-47.5 8.5q-13 0 -35 -4t-31 -8v66q19 6 46 10t52 4q68 0 104 -27t36 -73q0 -37 -24 -62t-67 -32v-34h-110v74zM103 37.5q-48 52.5 -48 139.5v303h126v-291q0 -105 98 -105q43 0 81 20.5t64 61.5v314h126v-480h-122v65
q-34 -41 -81 -60.5t-99 -19.5q-97 0 -145 52.5z" />
    <glyph glyph-name="uni1EE8" unicode="&#x1ee8;" horiz-adv-x="862" 
d="M355 916h133l-86 -174h-116zM130.5 62.5q-75.5 77.5 -75.5 209.5v427h133v-429q0 -83 43.5 -123.5t122.5 -40.5q78 0 121.5 41t43.5 123v429h133v-74q49 0 66 19t17 68v35h117v-42q0 -80 -49 -129t-151 -50v-254q0 -132 -75 -209.5t-223 -77.5t-223.5 77.5z" />
    <glyph glyph-name="uni1EE9" unicode="&#x1ee9;" horiz-adv-x="738" 
d="M303 709h133l-86 -174h-116zM103 37.5q-48 52.5 -48 139.5v303h126v-291q0 -105 98 -105q43 0 81 20.5t64 61.5v314h126v-45q38 4 57 25.5t19 58.5v39h102v-42q0 -69 -46.5 -114.5t-131.5 -49.5v-352h-122v65q-34 -41 -81 -60.5t-99 -19.5q-97 0 -145 52.5z" />
    <glyph glyph-name="uni1EEA" unicode="&#x1eea;" horiz-adv-x="862" 
d="M212 916h133l69 -174h-116zM130.5 62.5q-75.5 77.5 -75.5 209.5v427h133v-429q0 -83 43.5 -123.5t122.5 -40.5q78 0 121.5 41t43.5 123v429h133v-74q49 0 66 19t17 68v35h117v-42q0 -80 -49 -129t-151 -50v-254q0 -132 -75 -209.5t-223 -77.5t-223.5 77.5z" />
    <glyph glyph-name="uni1EEB" unicode="&#x1eeb;" horiz-adv-x="738" 
d="M155 709h133l69 -174h-116zM103 37.5q-48 52.5 -48 139.5v303h126v-291q0 -105 98 -105q43 0 81 20.5t64 61.5v314h126v-45q38 4 57 25.5t19 58.5v39h102v-42q0 -69 -46.5 -114.5t-131.5 -49.5v-352h-122v65q-34 -41 -81 -60.5t-99 -19.5q-97 0 -145 52.5z" />
    <glyph glyph-name="uni1EEC" unicode="&#x1eec;" horiz-adv-x="862" 
d="M294 816q45 0 68 11t23 38q0 20 -14.5 28.5t-47.5 8.5q-13 0 -35 -4t-31 -8v66q19 6 46 10t52 4q68 0 104 -27t36 -73q0 -37 -24 -62t-67 -32v-34h-110v74zM130.5 62.5q-75.5 77.5 -75.5 209.5v427h133v-429q0 -83 43.5 -123.5t122.5 -40.5q78 0 121.5 41t43.5 123v429
h133v-74q49 0 66 19t17 68v35h117v-42q0 -80 -49 -129t-151 -50v-254q0 -132 -75 -209.5t-223 -77.5t-223.5 77.5z" />
    <glyph glyph-name="uni1EED" unicode="&#x1eed;" horiz-adv-x="738" 
d="M236 609q45 0 68 11t23 38q0 20 -14.5 28.5t-47.5 8.5q-13 0 -35 -4t-31 -8v66q19 6 46 10t52 4q68 0 104 -27t36 -73q0 -37 -24 -62t-67 -32v-34h-110v74zM103 37.5q-48 52.5 -48 139.5v303h126v-291q0 -105 98 -105q43 0 81 20.5t64 61.5v314h126v-45q38 4 57 25.5
t19 58.5v39h102v-42q0 -69 -46.5 -114.5t-131.5 -49.5v-352h-122v65q-34 -41 -81 -60.5t-99 -19.5q-97 0 -145 52.5z" />
    <glyph glyph-name="uni1EEE" unicode="&#x1eee;" horiz-adv-x="862" 
d="M170 845q32 43 100 43q22 0 43 -6t54 -19q28 -12 49 -18.5t43 -6.5q62 0 100 51v-103q-31 -42 -100 -42q-25 0 -48 6.5t-53 19.5q-30 12 -48.5 18t-39.5 6q-29 0 -53.5 -12t-46.5 -40v103zM130.5 62.5q-75.5 77.5 -75.5 209.5v427h133v-429q0 -83 43.5 -123.5
t122.5 -40.5q78 0 121.5 41t43.5 123v429h133v-74q49 0 66 19t17 68v35h117v-42q0 -80 -49 -129t-151 -50v-254q0 -132 -75 -209.5t-223 -77.5t-223.5 77.5z" />
    <glyph glyph-name="uni1EEF" unicode="&#x1eef;" horiz-adv-x="738" 
d="M112 638q32 43 100 43q22 0 43 -6t54 -19q28 -12 49 -18.5t43 -6.5q62 0 100 51v-103q-31 -42 -100 -42q-25 0 -48 6.5t-53 19.5q-30 12 -48.5 18t-39.5 6q-29 0 -53.5 -12t-46.5 -40v103zM103 37.5q-48 52.5 -48 139.5v303h126v-291q0 -105 98 -105q43 0 81 20.5
t64 61.5v314h126v-45q38 4 57 25.5t19 58.5v39h102v-42q0 -69 -46.5 -114.5t-131.5 -49.5v-352h-122v65q-34 -41 -81 -60.5t-99 -19.5q-97 0 -145 52.5z" />
    <glyph glyph-name="uni1EF0" unicode="&#x1ef0;" horiz-adv-x="862" 
d="M130.5 62.5q-75.5 77.5 -75.5 209.5v427h133v-429q0 -83 43.5 -123.5t122.5 -40.5q78 0 121.5 41t43.5 123v429h133v-74q49 0 66 19t17 68v35h117v-42q0 -80 -49 -129t-151 -50v-254q0 -132 -75 -209.5t-223 -77.5t-223.5 77.5zM304 -159.5q-20 19.5 -20 46.5
q0 28 20 47.5t47 19.5t46.5 -19.5t19.5 -47.5t-19.5 -47t-46.5 -19t-47 19.5z" />
    <glyph glyph-name="uni1EF1" unicode="&#x1ef1;" horiz-adv-x="738" 
d="M103 37.5q-48 52.5 -48 139.5v303h126v-291q0 -105 98 -105q43 0 81 20.5t64 61.5v314h126v-45q38 4 57 25.5t19 58.5v39h102v-42q0 -69 -46.5 -114.5t-131.5 -49.5v-352h-122v65q-34 -41 -81 -60.5t-99 -19.5q-97 0 -145 52.5zM252 -159.5q-20 19.5 -20 46.5
q0 28 20 47.5t47 19.5t46.5 -19.5t19.5 -47.5t-19.5 -47t-46.5 -19t-47 19.5z" />
    <glyph glyph-name="Ygrave" unicode="&#x1ef2;" horiz-adv-x="726" 
d="M226 916h133l69 -174h-116zM300 266l-254 433h135l180 -311l185 311h134l-259 -433v-266h-121v266z" />
    <glyph glyph-name="ygrave" unicode="&#x1ef3;" horiz-adv-x="600" 
d="M172 709h133l69 -174h-116zM120.5 -194.5q-28.5 3.5 -44.5 9.5v96q25 -10 62 -10q38 0 57 17t33 54l19 50l-207 458h127l148 -350l139 350h126l-210 -523q-32 -79 -77.5 -117t-117.5 -38q-26 0 -54.5 3.5z" />
    <glyph glyph-name="uni1EF4" unicode="&#x1ef4;" horiz-adv-x="726" 
d="M300 266l-254 433h135l180 -311l185 311h134l-259 -433v-266h-121v266zM315 -159.5q-20 19.5 -20 46.5q0 28 20 47.5t47 19.5t46.5 -19.5t19.5 -47.5t-19.5 -47t-46.5 -19t-47 19.5z" />
    <glyph glyph-name="uni1EF5" unicode="&#x1ef5;" horiz-adv-x="600" 
d="M120.5 -194.5q-28.5 3.5 -44.5 9.5v96q25 -10 62 -10q38 0 57 17t33 54l19 50l-207 458h127l148 -350l139 350h126l-210 -523q-32 -79 -77.5 -117t-117.5 -38q-26 0 -54.5 3.5zM413 -154.5q-20 19.5 -20 46.5q0 28 20 47.5t47 19.5t46.5 -19.5t19.5 -47.5t-19.5 -47
t-46.5 -19t-47 19.5z" />
    <glyph glyph-name="uni1EF6" unicode="&#x1ef6;" horiz-adv-x="726" 
d="M302 816q45 0 68 11t23 38q0 20 -14.5 28.5t-47.5 8.5q-13 0 -35 -4t-31 -8v66q19 6 46 10t52 4q68 0 104 -27t36 -73q0 -37 -24 -62t-67 -32v-34h-110v74zM300 266l-254 433h135l180 -311l185 311h134l-259 -433v-266h-121v266z" />
    <glyph glyph-name="uni1EF7" unicode="&#x1ef7;" horiz-adv-x="600" 
d="M251 609q45 0 68 11t23 38q0 20 -14.5 28.5t-47.5 8.5q-13 0 -35 -4t-31 -8v66q19 6 46 10t52 4q68 0 104 -27t36 -73q0 -37 -24 -62t-67 -32v-34h-110v74zM120.5 -194.5q-28.5 3.5 -44.5 9.5v96q25 -10 62 -10q38 0 57 17t33 54l19 50l-207 458h127l148 -350l139 350
h126l-210 -523q-32 -79 -77.5 -117t-117.5 -38q-26 0 -54.5 3.5z" />
    <glyph glyph-name="uni1EF8" unicode="&#x1ef8;" horiz-adv-x="726" 
d="M167 845q32 43 100 43q22 0 43 -6t54 -19q28 -12 49 -18.5t43 -6.5q62 0 100 51v-103q-31 -42 -100 -42q-25 0 -48 6.5t-53 19.5q-30 12 -48.5 18t-39.5 6q-29 0 -53.5 -12t-46.5 -40v103zM300 266l-254 433h135l180 -311l185 311h134l-259 -433v-266h-121v266z" />
    <glyph glyph-name="uni1EF9" unicode="&#x1ef9;" horiz-adv-x="600" 
d="M121 638q32 43 100 43q22 0 43 -6t54 -19q28 -12 49 -18.5t43 -6.5q62 0 100 51v-103q-31 -42 -100 -42q-25 0 -48 6.5t-53 19.5q-30 12 -48.5 18t-39.5 6q-29 0 -53.5 -12t-46.5 -40v103zM120.5 -194.5q-28.5 3.5 -44.5 9.5v96q25 -10 62 -10q38 0 57 17t33 54l19 50
l-207 458h127l148 -350l139 350h126l-210 -523q-32 -79 -77.5 -117t-117.5 -38q-26 0 -54.5 3.5z" />
    <glyph glyph-name="uni2007" unicode="&#x2007;" 
 />
    <glyph glyph-name="uni2010" unicode="&#x2010;" horiz-adv-x="442" 
d="M40 340h362v-101h-362v101z" />
    <glyph glyph-name="figuredash" unicode="&#x2012;" horiz-adv-x="688" 
d="M40 340h608v-101h-608v101z" />
    <glyph glyph-name="endash" unicode="&#x2013;" horiz-adv-x="654" 
d="M40 350h574v-101h-574v101z" />
    <glyph glyph-name="emdash" unicode="&#x2014;" horiz-adv-x="796" 
d="M40 350h716v-101h-716v101z" />
    <glyph glyph-name="uni2015" unicode="&#x2015;" horiz-adv-x="1005" 
d="M40 340h925v-101h-925v101z" />
    <glyph glyph-name="quoteleft" unicode="&#x2018;" horiz-adv-x="265" 
d="M120 714h105l-65 -196h-120z" />
    <glyph glyph-name="quoteright" unicode="&#x2019;" horiz-adv-x="268" 
d="M106 714h122l-80 -196h-108z" />
    <glyph glyph-name="quotesinglbase" unicode="&#x201a;" horiz-adv-x="268" 
d="M106 71h122l-80 -196h-108z" />
    <glyph glyph-name="quotedblleft" unicode="&#x201c;" horiz-adv-x="426" 
d="M120 714h98l-66 -196h-112zM289 714h97l-65 -196h-112z" />
    <glyph glyph-name="quotedblright" unicode="&#x201d;" horiz-adv-x="426" 
d="M106 714h112l-80 -196h-98zM274 714h112l-80 -196h-97z" />
    <glyph glyph-name="quotedblbase" unicode="&#x201e;" horiz-adv-x="426" 
d="M106 71h112l-80 -196h-98zM274 71h112l-80 -196h-97z" />
    <glyph glyph-name="dagger" unicode="&#x2020;" horiz-adv-x="541" 
d="M207 420h-167v105h167v174h127v-174h167v-105h-167v-490h-127v490z" />
    <glyph glyph-name="daggerdbl" unicode="&#x2021;" horiz-adv-x="540" 
d="M207 157h-167v106h167v174h-167v106h167v156h126v-156h167v-106h-167v-174h167v-106h-167v-157h-126v157z" />
    <glyph glyph-name="bullet" unicode="&#x2022;" horiz-adv-x="266" 
d="M67 232q-27 27 -27 66t27 66t66 27t66 -27t27 -66t-27 -66t-66 -27t-66 27z" />
    <glyph glyph-name="ellipsis" unicode="&#x2026;" horiz-adv-x="583" 
d="M55 14.5q-15 14.5 -15 35.5q0 22 15 37t36 15t36 -15t15 -37q0 -21 -15 -35.5t-36 -14.5t-36 14.5zM255.5 14.5q-14.5 14.5 -14.5 35.5q0 22 14.5 37t35.5 15q22 0 37 -15t15 -37q0 -21 -15 -35.5t-37 -14.5q-21 0 -35.5 14.5zM456 14.5q-15 14.5 -15 35.5q0 22 15 37
t36 15t36 -15t15 -37q0 -21 -15 -35.5t-36 -14.5t-36 14.5z" />
    <glyph glyph-name="perthousand" unicode="&#x2030;" horiz-adv-x="1290" 
d="M131 371.5q-42 24.5 -66.5 66.5t-24.5 92t24.5 92.5t66.5 67t92 24.5t92.5 -24.5t67 -67t24.5 -92.5t-24.5 -92t-67 -66.5t-92.5 -24.5t-92 24.5zM575 699h123l-387 -699h-123zM289.5 462.5q26.5 26.5 26.5 65.5q0 40 -26.5 66.5t-66.5 26.5q-39 0 -65.5 -26.5
t-26.5 -66.5q0 -39 26.5 -65.5t65.5 -26.5q40 0 66.5 26.5zM569 9.5q-42 24.5 -66.5 66.5t-24.5 92t24.5 92.5t66.5 67t92 24.5t92.5 -24.5t67 -67t24.5 -92.5t-24.5 -92t-67 -66.5t-92.5 -24.5t-92 24.5zM974 9.5q-42 24.5 -66.5 66.5t-24.5 92t24.5 92.5t66.5 67t92 24.5
t92.5 -24.5t67 -67t24.5 -92.5t-24.5 -92t-67 -66.5t-92.5 -24.5t-92 24.5zM726.5 100.5q26.5 26.5 26.5 65.5q0 40 -26.5 66.5t-66.5 26.5q-39 0 -65.5 -26.5t-26.5 -66.5q0 -39 26.5 -65.5t65.5 -26.5q40 0 66.5 26.5zM1131.5 100.5q26.5 26.5 26.5 65.5q0 40 -26.5 66.5
t-66.5 26.5q-39 0 -65.5 -26.5t-26.5 -66.5q0 -39 26.5 -65.5t65.5 -26.5q40 0 66.5 26.5z" />
    <glyph glyph-name="minute" unicode="&#x2032;" horiz-adv-x="175" 
d="M40 699h95v-193h-95v193z" />
    <glyph glyph-name="second" unicode="&#x2033;" horiz-adv-x="349" 
d="M40 699h95v-193h-95v193zM214 699h95v-193h-95v193z" />
    <glyph glyph-name="guilsinglleft" unicode="&#x2039;" horiz-adv-x="380" 
d="M40 308v32l237 206l63 -79l-169 -143l169 -142l-63 -79z" />
    <glyph glyph-name="guilsinglright" unicode="&#x203a;" horiz-adv-x="380" 
d="M40 182l169 142l-169 143l63 79l237 -206v-32l-237 -205z" />
    <glyph glyph-name="fraction" unicode="&#x2044;" horiz-adv-x="234" 
d="M245 714h129l-385 -729h-129z" />
    <glyph glyph-name="uni2070" unicode="&#x2070;" horiz-adv-x="403" 
d="M83 406q-43 47 -43 128t43 128t119 47q75 0 118 -47t43 -128t-43 -128t-118 -47q-76 0 -119 47zM257.5 461q20.5 24 20.5 73t-20.5 73t-55.5 24q-36 0 -57 -24t-21 -73t21 -73t57 -24q35 0 55.5 24z" />
    <glyph glyph-name="uni2074" unicode="&#x2074;" horiz-adv-x="334" 
d="M174 438h-154v64l147 197h101v-193h46v-68h-46v-68h-94v68zM188 506v105l-80 -105h80z" />
    <glyph glyph-name="uni2075" unicode="&#x2075;" horiz-adv-x="347" 
d="M89.5 366q-30.5 6 -49.5 16v78q19 -12 45.5 -18t50.5 -6q40 0 59.5 13.5t19.5 32.5q0 24 -18.5 34.5t-57.5 10.5q-38 0 -69 -11l-25 15l13 168h226v-72h-144l-3 -41q29 6 56 6q55 0 84.5 -28t29.5 -81q0 -56 -43 -89.5t-114 -33.5q-30 0 -60.5 6z" />
    <glyph glyph-name="uni2076" unicode="&#x2076;" horiz-adv-x="369" 
d="M79.5 400.5q-39.5 40.5 -39.5 111.5q0 95 48 146t127 51q18 0 38 -2t29 -6v-64q-17 8 -59 8q-80 0 -95 -73q13 12 34 18.5t46 6.5q59 0 90 -31.5t31 -85.5q0 -53 -36.5 -86.5t-105.5 -33.5q-68 0 -107.5 40.5zM229 436.5q15 15.5 15 41.5t-15 41.5t-42 15.5
q-25 0 -41 -16t-16 -41t16 -41t41 -16q27 0 42 15.5z" />
    <glyph glyph-name="uni2077" unicode="&#x2077;" horiz-adv-x="319" 
d="M187 627h-157v72h259v-52l-126 -277h-93z" />
    <glyph glyph-name="uni2078" unicode="&#x2078;" horiz-adv-x="368" 
d="M77.5 386q-37.5 26 -37.5 74q0 31 16 52.5t42 28.5q-22 11 -34 29.5t-12 43.5q0 45 35.5 70t96.5 25t96.5 -25t35.5 -70q0 -25 -12 -43.5t-34 -29.5q26 -7 42 -28.5t16 -52.5q0 -48 -37.5 -74t-106.5 -26t-106.5 26zM217.5 579q12.5 12 12.5 30t-13 29.5t-33 11.5
t-33 -11.5t-13 -29.5t12.5 -30t33.5 -12t33.5 12zM223 431.5q15 12.5 15 33.5q0 22 -14.5 35t-39.5 13t-39.5 -13t-14.5 -35q0 -21 15 -33.5t39 -12.5t39 12.5z" />
    <glyph glyph-name="uni2079" unicode="&#x2079;" horiz-adv-x="369" 
d="M116 362q-20 2 -29 6v64q17 -8 59 -8q80 0 95 73q-13 -12 -34 -18.5t-46 -6.5q-59 0 -90 31.5t-31 85.5q0 53 36.5 86.5t105.5 33.5q68 0 107.5 -40.5t39.5 -111.5q0 -95 -48 -146t-127 -51q-18 0 -38 2zM223 550q16 16 16 41q0 26 -15.5 41.5t-41.5 15.5
q-27 0 -42 -15.5t-15 -41.5t15 -41.5t42 -15.5q25 0 41 16z" />
    <glyph glyph-name="uni207D" unicode="&#x207d;" horiz-adv-x="234" 
d="M54.5 437.5q-14.5 45.5 -14.5 96.5q0 52 14.5 97t41.5 78h98q-28 -36 -43 -81t-15 -94t15 -93.5t43 -80.5h-98q-27 32 -41.5 77.5z" />
    <glyph glyph-name="uni207E" unicode="&#x207e;" horiz-adv-x="234" 
d="M83 440.5q15 44.5 15 93.5t-15 94t-43 81h98q27 -33 41.5 -78t14.5 -97q0 -51 -14.5 -96.5t-41.5 -77.5h-98q28 36 43 80.5z" />
    <glyph glyph-name="uni207F" unicode="&#x207f;" horiz-adv-x="448" 
d="M45 699h92v-42q24 29 58 43t71 14q72 0 107 -36t35 -98v-220h-95v204q0 36 -17 55.5t-56 19.5q-63 0 -100 -58v-221h-95v339z" />
    <glyph glyph-name="uni2080" unicode="&#x2080;" horiz-adv-x="403" 
d="M83 -123q-43 47 -43 128t43 128t119 47q75 0 118 -47t43 -128t-43 -128t-118 -47q-76 0 -119 47zM257.5 -68q20.5 24 20.5 73t-20.5 73t-55.5 24q-36 0 -57 -24t-21 -73t21 -73t57 -24q35 0 55.5 24z" />
    <glyph glyph-name="uni2081" unicode="&#x2081;" horiz-adv-x="236" 
d="M122 75l-82 -59v86l91 67h85v-329h-94v235z" />
    <glyph glyph-name="uni2082" unicode="&#x2082;" horiz-adv-x="342" 
d="M40 -102l66 55q57 47 77.5 68.5t20.5 43.5q0 35 -45 35q-24 0 -55 -9.5t-50 -22.5v81q19 12 51 20.5t60 8.5q66 0 99.5 -31t33.5 -77q0 -24 -8.5 -42t-23.5 -32.5t-48 -42.5l-50 -42h134v-72h-262v59z" />
    <glyph glyph-name="uni2083" unicode="&#x2083;" horiz-adv-x="347" 
d="M40 -151v71q21 -10 50 -15.5t53 -5.5q31 0 48.5 8t17.5 29q0 19 -15 27.5t-50 8.5h-49v68h48q57 0 57 33q0 17 -16 26.5t-46 9.5q-45 0 -91 -26v71q47 25 119 25q62 0 97 -25.5t35 -70.5q0 -53 -50 -77q59 -16 59 -77q0 -46 -37.5 -72.5t-106.5 -26.5q-78 0 -123 19z" />
    <glyph glyph-name="uni2084" unicode="&#x2084;" horiz-adv-x="334" 
d="M174 -92h-154v64l147 197h101v-193h46v-68h-46v-68h-94v68zM188 -24v105l-80 -105h80z" />
    <glyph glyph-name="uni2085" unicode="&#x2085;" horiz-adv-x="348" 
d="M89.5 -164q-30.5 6 -49.5 16v79q19 -12 45.5 -18t50.5 -6q40 0 59 13.5t19 32.5q0 24 -17.5 33.5t-57.5 9.5q-38 0 -69 -11l-25 15l13 169h226v-72h-144l-3 -41q29 6 56 6q55 0 85 -28t30 -81q0 -55 -43.5 -89t-114.5 -34q-30 0 -60.5 6z" />
    <glyph glyph-name="uni2086" unicode="&#x2086;" horiz-adv-x="369" 
d="M79.5 -129.5q-39.5 40.5 -39.5 111.5q0 95 48 146t127 51q18 0 38 -2t29 -6v-64q-17 8 -59 8q-80 0 -95 -73q13 12 34 18.5t46 6.5q59 0 90 -31.5t31 -85.5q0 -53 -36.5 -86.5t-105.5 -33.5q-68 0 -107.5 40.5zM229 -93.5q15 15.5 15 41.5t-15 41.5t-42 15.5
q-25 0 -41 -16t-16 -41q0 -26 16 -41.5t41 -15.5q27 0 42 15.5z" />
    <glyph glyph-name="uni2087" unicode="&#x2087;" horiz-adv-x="319" 
d="M187 97h-157v72h259v-52l-126 -277h-93z" />
    </font>
</defs>
</svg>
